<svg id="security-camera" xmlns="http://www.w3.org/2000/svg" width="50.099" height="43.584" viewBox="0 0 50.099 43.584">
  <path id="Path_12659" data-name="Path 12659" d="M0,0H31.914V4.811A3.219,3.219,0,0,1,28.7,8.03H3.219A3.219,3.219,0,0,1,0,4.811V0Z" transform="matrix(0.866, 0.5, -0.5, 0.866, 10.702, 9.046)" fill="#17ace8"/>
  <path id="Path_12660" data-name="Path 12660" d="M3.219,0H39.461V10.447H0V3.219A3.219,3.219,0,0,1,3.219,0Z" transform="matrix(0.866, 0.5, -0.5, 0.866, 15.926, 0)" fill="#0d70b2"/>
  <path id="Path_12661" data-name="Path 12661" d="M90.708,74.684a3.271,3.271,0,0,1-.231.341l.025.016a5.223,5.223,0,0,0,7.135-1.912l-4.523-2.612Z" transform="translate(-54.772 -45.514)" fill="#fedb41"/>
  <path id="Path_12662" data-name="Path 12662" d="M103.807,58.187a2,2,0,1,0,2.736-.734,2,2,0,0,0-2.736.734Z" transform="translate(-62.578 -37.546)" fill="#00ddc1"/>
  <path id="Path_12663" data-name="Path 12663" d="M35.01,46.5a.7.7,0,0,1-.351-.095l-5.772-3.333a.7.7,0,1,1,.7-1.22l5.771,3.332a.7.7,0,0,1-.353,1.315Z" transform="translate(-17.756 -28.325)" fill="#e1e4fb"/>
  <path id="Path_12664" data-name="Path 12664" d="M1.75,57.373H3.863a2.414,2.414,0,0,1,2.414,2.414V78.828a2.414,2.414,0,0,1-2.414,2.414H1.75Z" transform="translate(-1.75 -37.659)" fill="#0d70b2"/>
  <path id="Path_12665" data-name="Path 12665" d="M13,67.381h4.527V81.868H13Z" transform="translate(-8.473 -43.639)" fill="#c5c9f7"/>
  <path id="Path_12666" data-name="Path 12666" d="M36.047,68.467l-2.033,3.466a3.233,3.233,0,0,1-2.777,1.591H24.25v4.829h6.987a8.08,8.08,0,0,0,6.942-3.976l2.049-3.495Z" transform="translate(-15.196 -44.288)" fill="#e1e4fb"/>
</svg>
