<svg xmlns="http://www.w3.org/2000/svg" width="49.791" height="49.791" viewBox="0 0 49.791 49.791">
  <g id="coupon" transform="translate(-0.001)">
    <path id="XMLID_2545_" d="M48.436,10,55.7,17.268a6.185,6.185,0,0,1,0,8.747l-7.268,7.268H12.531A2.53,2.53,0,0,1,10,30.754V12.53A2.53,2.53,0,0,1,12.531,10Z" transform="translate(-9.028 -9.028)" fill="#85acf3"/>
    <path id="XMLID_2483_" d="M90.132,64.006H103.91l2.686,2.686V80.47L81.207,105.859a2.53,2.53,0,0,1-3.578,0L64.743,92.973a2.53,2.53,0,0,1,0-3.578Z" transform="translate(-57.777 -57.782)" fill="#3575ec"/>
    <circle id="XMLID_2590_" cx="1.945" cy="1.945" r="1.945" transform="translate(40.65 10.503)" fill="#3575ec"/>
    <circle id="XMLID_2480_" cx="1.945" cy="1.945" r="1.945" transform="translate(15.519 14.531)" fill="#85acf3"/>
    <circle id="XMLID_2476_" cx="1.945" cy="1.945" r="1.945" transform="translate(7.311 6.807)" fill="#85acf3"/>
    <path id="XMLID_1468_" d="M48.851,7.567l.656-.656a.973.973,0,0,0-1.375-1.375l-.656.656-.655-.655a.973.973,0,0,0-.688-.285h-1.07L40.1.285A.973.973,0,0,0,39.409,0H3.5A3.506,3.506,0,0,0,0,3.5V21.726a3.506,3.506,0,0,0,3.5,3.5h8.472l-5.7,5.7a3.5,3.5,0,0,0,0,4.953L19.164,48.765a3.5,3.5,0,0,0,4.953,0l9.651-9.651c.38-.38,6.02-6.433,5.64-6.813s-6.635,5.058-7.015,5.437L22.742,47.39a1.557,1.557,0,0,1-2.2,0L7.653,34.5a1.557,1.557,0,0,1,0-2.2l25.1-25.1H45.73l.37.37L43.852,9.816a2.919,2.919,0,1,0,1.375,1.375l2.249-2.249.37.37V22.286L38.582,31.55c-.38.38-6.607,7.492-6.227,7.872s7.223-6.117,7.6-6.5l9.549-9.549a.973.973,0,0,0,.285-.688V8.91a.973.973,0,0,0-.285-.688ZM17.464,17.449a.973.973,0,1,1,.973-.973A.974.974,0,0,1,17.464,17.449Zm14.89-12.2a.973.973,0,0,0-.688.285L20.358,16.846a2.924,2.924,0,1,0-2.524,2.524L13.92,23.284H3.5a1.559,1.559,0,0,1-1.557-1.557V3.5A1.559,1.559,0,0,1,3.5,1.945h35.5l3.307,3.307Zm10.24,8.169a.972.972,0,1,1,.59-1.744.876.876,0,0,0,.181.181.971.971,0,0,1-.771,1.563Z" transform="translate(0 0)"/>
    <path id="XMLID_1527_" d="M272.5,226.713a.973.973,0,0,0,.688-.285l2.2-2.2a.972.972,0,0,0-1.375-1.375l-1.513,1.513-4.814-4.813a.972.972,0,0,0-1.375,1.375l5.5,5.5A.973.973,0,0,0,272.5,226.713Z" transform="translate(-240.159 -197.944)"/>
    <path id="XMLID_1528_" d="M326.028,154.342a.973.973,0,0,0-1.375,0l-1.238,1.238-1.375-1.375,1.238-1.238a.973.973,0,0,0-1.375-1.375l-1.238,1.238-1.375-1.375,1.238-1.238a.972.972,0,0,0-1.375-1.375l-1.925,1.925a.972.972,0,0,0,0,1.375l5.5,5.5a.972.972,0,0,0,1.375,0l1.925-1.925A.972.972,0,0,0,326.028,154.342Z" transform="translate(-286.119 -134.11)"/>
    <path id="XMLID_1531_" d="M227.182,271.487a.972.972,0,1,0,.883-1.733l-7.289-3.713a.972.972,0,0,0-1.308,1.308l3.713,7.289a.972.972,0,0,0,1.733-.883l-.3-.585,1.981-1.981Zm-3.494-.14-1.128-2.215,2.215,1.129Z" transform="translate(-198.029 -240.074)"/>
    <path id="XMLID_1532_" d="M157.685,321.141a.972.972,0,1,0,1.375,1.375l1.375-1.375a2.917,2.917,0,0,0-3.951-4.286.966.966,0,0,0-.1.088l-.072.072a.972.972,0,1,1-1.375-1.375l1.375-1.375a.972.972,0,0,0-1.375-1.375l-1.375,1.375a2.917,2.917,0,0,0,4.124,4.128l0,0a.972.972,0,1,1,1.375,1.375Z" transform="translate(-137.855 -282.205)"/>
    <path id="XMLID_1533_" d="M99.644,63.389a.972.972,0,0,0-1.325.369L92.047,74.869a.972.972,0,1,0,1.694.956l6.272-11.111A.972.972,0,0,0,99.644,63.389Z" transform="translate(-82.981 -57.112)"/>
    <path id="XMLID_1536_" d="M71,62.912a2.918,2.918,0,1,0-2.918,2.918A2.921,2.921,0,0,0,71,62.912Zm-3.891,0a.973.973,0,1,1,.973.973A.974.974,0,0,1,67.114,62.912Z" transform="translate(-58.831 -54.16)"/>
    <path id="XMLID_1537_" d="M362.963,353.319a.973.973,0,1,0,.688.285A.978.978,0,0,0,362.963,353.319Z" transform="translate(-326.788 -318.96)"/>
  </g>
</svg>
