<svg id="employees" xmlns="http://www.w3.org/2000/svg" width="50.099" height="50.099" viewBox="0 0 50.099 50.099">
  <g id="Group_3081" data-name="Group 3081" transform="translate(0 17.579)">
    <path id="Path_12583" data-name="Path 12583" d="M351.008,385.129h-4.264a1.468,1.468,0,0,0-1.468,1.468v9.393a1.468,1.468,0,0,0,1.468,1.468h14.846v-1.746a10.582,10.582,0,0,0-10.582-10.582Z" transform="translate(-311.492 -365.023)" fill="#fd9171"/>
    <path id="Path_12584" data-name="Path 12584" d="M269.677,251.059a8.044,8.044,0,0,0-5.065,1.8,1.465,1.465,0,0,0-.541,1.138H258.1v13.115h11.576a8.026,8.026,0,0,0,0-16.052Z" transform="translate(-232.846 -244.072)" fill="#ffddce"/>
    <g id="Group_3080" data-name="Group 3080" transform="translate(36.829 6.987)">
      <path id="Path_12585" data-name="Path 12585" d="M376.389,251.059h0v16.052h0a8.026,8.026,0,1,0,0-16.052Z" transform="translate(-376.387 -251.059)" fill="#ffddce"/>
    </g>
    <path id="Path_12586" data-name="Path 12586" d="M16.314,386.6a1.468,1.468,0,0,0-1.468-1.468H10.582A10.582,10.582,0,0,0,0,395.711v1.746H14.846a1.468,1.468,0,0,0,1.468-1.468Z" transform="translate(0 -365.023)" fill="#3575ec"/>
    <path id="Path_12587" data-name="Path 12587" d="M73.413,254H67.2a1.465,1.465,0,0,0-.541-1.138A8.026,8.026,0,1,0,61.6,267.112H73.413Z" transform="translate(-48.328 -244.073)" fill="#ffece2"/>
    <path id="Path_12588" data-name="Path 12588" d="M115.927,358.285h-5.014a12.973,12.973,0,0,0-12.958,12.977v2.064h30.929v-2.082a12.973,12.973,0,0,0-12.958-12.959Z" transform="translate(-88.37 -340.806)" fill="#a21eb0"/>
    <path id="Path_12589" data-name="Path 12589" d="M271.465,371.165v2.161H256V358.285h2.507A12.906,12.906,0,0,1,271.465,371.165Z" transform="translate(-230.95 -340.806)" fill="#a21eb0"/>
    <ellipse id="Ellipse_110" data-name="Ellipse 110" cx="9.28" cy="9.28" rx="9.28" ry="9.28" transform="translate(12.931 17.15) rotate(-67.486)" fill="#e5ae8c"/>
    <path id="Path_12590" data-name="Path 12590" d="M256,208.7v18.561a9.28,9.28,0,0,0,0-18.561Z" transform="translate(-230.95 -205.859)" fill="#e5ae8c"/>
    <path id="Path_12591" data-name="Path 12591" d="M161.156,217.982a9.291,9.291,0,0,0,9.28,9.28V208.7A9.291,9.291,0,0,0,161.156,217.982Z" transform="translate(-145.387 -205.859)" fill="#e5ae8c"/>
  </g>
  <g id="Group_3083" data-name="Group 3083" transform="translate(9.571 0)">
    <path id="Path_12592" data-name="Path 12592" d="M127.264,0H118.37a1.468,1.468,0,0,0,0,2.935h5.385l-8.183,8.3L107.1,4.972a1.468,1.468,0,0,0-1.958.192l-6.947,7.63a1.468,1.468,0,0,0,2.171,1.976L106.42,8.12l8.432,6.23a1.467,1.467,0,0,0,1.917-.15L125.8,5.046v5.911a1.468,1.468,0,1,0,2.935,0V1.468A1.468,1.468,0,0,0,127.264,0Z" transform="translate(-97.812 0)" fill="#7da6f2"/>
    <g id="Group_3082" data-name="Group 3082" transform="translate(15.479)">
      <path id="Path_12593" data-name="Path 12593" d="M269.973,0H261.08a1.468,1.468,0,0,0,0,2.935h5.385l-8.183,8.3L256,9.547V13.2l1.561,1.154a1.467,1.467,0,0,0,1.917-.15l9.027-9.154v5.911a1.468,1.468,0,1,0,2.935,0V1.468A1.468,1.468,0,0,0,269.973,0Z" transform="translate(-256 0)" fill="#3575ec"/>
    </g>
  </g>
</svg>
