<svg id="graduated" xmlns="http://www.w3.org/2000/svg" width="36.317" height="45.887" viewBox="0 0 36.317 45.887">
  <path id="Path_12490" data-name="Path 12490" d="M84.792,29.978,82.1,29.188,76.24,25.361v-.877a7.8,7.8,0,0,0,3.078-5.477,1.791,1.791,0,0,0,1.5-1.765V14.83c0-.009,0-.018,0-.028V11.748a1.325,1.325,0,0,0,.554-1.081v-2.8l4.044-.689A1.433,1.433,0,0,0,85.61,4.4L71.979.068a1.426,1.426,0,0,0-.869,0L57.478,4.4a1.438,1.438,0,0,0-.446,2.5v3.655H57a1.394,1.394,0,0,0-1.392,1.392v1.814l-.9,5.274a1.5,1.5,0,0,0,1.475,1.747h3.043A1.5,1.5,0,0,0,60.7,19.042l-.9-5.274V11.953a1.394,1.394,0,0,0-1.392-1.392h-.033V7.3l3.342.569v2.795a1.326,1.326,0,0,0,.551,1.079v5.5a1.79,1.79,0,0,0,1.5,1.765,7.8,7.8,0,0,0,3.075,5.475v.881l-5.858,3.826-2.691.79a6.835,6.835,0,0,0-4.913,6.562v5.1c0,.371,1.346.71,1.345.041s0-2.771,0-3.142v-2a5.524,5.524,0,0,1,3.947-5.272l2.507-.736L71.2,36.485a.68.68,0,0,0,.687,0l10.017-5.952,2.507.736A5.524,5.524,0,0,1,88.36,36.54v6.492a1.512,1.512,0,0,1-1.51,1.51H83.887v-2.9a.672.672,0,0,0-1.344,0v2.9h-22v-2.9a.672.672,0,0,0-1.344,0v2.9h-2.96a1.512,1.512,0,0,1-1.51-1.51V41.686c0-.371-.542-.487-.913-.487s-.432.075-.432.446v1.387a2.858,2.858,0,0,0,2.854,2.854H86.85A2.858,2.858,0,0,0,89.7,43.032V36.54a6.835,6.835,0,0,0-4.912-6.562ZM59.225,19.445H56.183a.152.152,0,0,1-.15-.177l.813-4.771h1.716l.813,4.771A.151.151,0,0,1,59.225,19.445Zm-.768-7.492v1.2H56.95v-1.2A.048.048,0,0,1,57,11.905h1.411a.048.048,0,0,1,.048.048ZM69.142,33.444l.268.411-6.862-4.078L66.9,26.933A14.119,14.119,0,0,0,69.142,33.444Zm0-2.9a17.284,17.284,0,0,0,4.817,0,12.839,12.839,0,0,1-1.131,2.169l-1.277,1.963-1.277-1.963a12.838,12.838,0,0,1-1.131-2.168Zm4.813,2.9a14.118,14.118,0,0,0,2.239-6.511l4.356,2.845-6.862,4.078ZM77.881,12h1.593v2.16h-.791a.8.8,0,0,1-.8-.8V12Zm-20-6.314L71.517,1.348a.088.088,0,0,1,.054,0L85.2,5.684a.075.075,0,0,1,.062.091c0,.07-.045.077-.074.082l-4.507.768-4.816-.6c-.368-.046-.533,1.289-.165,1.334l4.326.535v2.756H63.063V7.9l6.955-.861a12.451,12.451,0,0,1,3.053,0l2.632.326c.368.046.533-1.289.165-1.334L73.236,5.7a13.789,13.789,0,0,0-3.383,0l-7.447.921L57.9,5.857c-.029-.005-.069-.012-.074-.082a.075.075,0,0,1,.062-.091Zm5.729,8.474V12h1.6v1.357a.8.8,0,0,1-.8.8h-.792Zm1.479,4.5a1.042,1.042,0,0,0-1.036-.976.444.444,0,0,1-.444-.443V15.5h.792a2.149,2.149,0,0,0,2.147-2.147V12h9.983v1.357A2.149,2.149,0,0,0,78.684,15.5h.792v1.739a.444.444,0,0,1-.444.443A1.042,1.042,0,0,0,78,18.661a6.464,6.464,0,0,1-12.9,0Zm6.451,7.4A7.758,7.758,0,0,0,74.9,25.3v.426a12.81,12.81,0,0,1-.454,3.376,15.872,15.872,0,0,1-5.793,0,12.81,12.81,0,0,1-.454-3.376c0-.014,0-.028,0-.042s0-.006,0-.008V25.3A7.759,7.759,0,0,0,71.546,26.058Z" transform="translate(-53.387 0)" fill="#fff"/>
</svg>
