<svg xmlns="http://www.w3.org/2000/svg" width="33.125" height="32.019" viewBox="0 0 33.125 32.019">
  <g id="home" transform="translate(0)">
    <path id="Path_12491" data-name="Path 12491" d="M47.45,43.672q0-.035,0-.07a2.211,2.211,0,0,0-2.208-2.208V31.181l1.987-1.491a.552.552,0,0,0-.006-.887l-4.742-3.465V19.312a.552.552,0,0,0,.552-.552V16.552A.552.552,0,0,0,42.483,16h-5.52a.552.552,0,0,0-.552.552V18.76a.552.552,0,0,0,.552.552V21.3l-4.091-2.989a.552.552,0,0,0-.651,0L17.868,28.8a.552.552,0,0,0-.006.887l1.987,1.491V41.394A2.211,2.211,0,0,0,17.641,43.6q0,.035,0,.07a2.208,2.208,0,0,0,.551,4.347H46.9a2.208,2.208,0,0,0,.551-4.347ZM37.515,17.1h4.416v1.1H37.515Zm.552,4.968v-2.76h3.312v5.219l-3.364-2.459Zm-5.52-2.629,13.425,9.811-1.285.964L32.871,21.626a.552.552,0,0,0-.649,0L20.407,30.219l-1.285-.964ZM17.089,45.81a1.105,1.105,0,0,1,1.088-1.1h0c.028,0,.056.007.085.009a.552.552,0,0,0,.554-.739,1.085,1.085,0,0,1-.072-.374,1.105,1.105,0,0,1,1.1-1.1v4.416H18.193A1.105,1.105,0,0,1,17.089,45.81Zm23.738,1.1H34.2V34.769h6.625Zm1.1,0v-12.7a.552.552,0,0,0-.552-.552H33.651a.552.552,0,0,0-.552.552v12.7H20.954V31.186l11.593-8.431,11.593,8.431V46.914Zm4.968,0H45.243V42.5a1.105,1.105,0,0,1,1.1,1.1,1.085,1.085,0,0,1-.072.374.552.552,0,0,0,.554.739c.029,0,.057-.005.085-.009h0a1.1,1.1,0,0,1-.017,2.208Z" transform="translate(-15.984 -16)" fill="#a21eb0"/>
    <path id="Path_12492" data-name="Path 12492" d="M127.177,272h-6.625a.552.552,0,0,0-.552.552v7.729a.552.552,0,0,0,.552.552h6.625a.552.552,0,0,0,.552-.552v-7.729A.552.552,0,0,0,127.177,272Zm-.552,3.864h-2.208V273.1h2.208Zm-3.312-2.76v2.76H121.1V273.1Zm-2.208,3.864h2.208v2.76H121.1Zm3.312,2.76v-2.76h2.208v2.76Z" transform="translate(-112.822 -254.335)" fill="#a21eb0"/>
    <ellipse id="Ellipse_104" data-name="Ellipse 104" cx="0.552" cy="0.552" rx="0.552" ry="0.552" transform="translate(19.153 24.589) rotate(-67.5)" fill="#a21eb0"/>
  </g>
</svg>
