<svg xmlns="http://www.w3.org/2000/svg" width="49.794" height="49.792" viewBox="0 0 49.794 49.792">
  <g id="location" transform="translate(0)">
    <path id="Path_12594" data-name="Path 12594" d="M49.943,84.289H36.93A78.939,78.939,0,0,1,31.2,92.217a78.938,78.938,0,0,1-5.727-7.928H12.463L6.306,100.431H56.1Z" transform="translate(-6.306 -50.638)" fill="#dfeef4"/>
    <path id="Path_12595" data-name="Path 12595" d="M46.542,6.31A13.253,13.253,0,0,0,33.29,19.562c-.078,12.644,13.252,28.326,13.252,28.326s13.33-15.682,13.252-28.326A13.253,13.253,0,0,0,46.542,6.31Zm0,18.875a5.623,5.623,0,1,1,5.623-5.623,5.623,5.623,0,0,1-5.623,5.623Z" transform="translate(-21.645 -6.31)" fill="#3575ec"/>
    <path id="Path_12596" data-name="Path 12596" d="M65.251,88.031,40.4,96.869,30.72,84.29h8.635a78.866,78.866,0,0,0,5.726,7.927,78.865,78.865,0,0,0,5.726-7.927H63.823Z" transform="translate(-20.185 -50.639)" fill="#f2da30"/>
    <path id="Path_12597" data-name="Path 12597" d="M29.96,110.169l24.6-8.749,6.734,8.749Z" transform="translate(-19.753 -60.377)" fill="#3ea2e5"/>
  </g>
</svg>
