<svg xmlns="http://www.w3.org/2000/svg" width="156" height="79" viewBox="0 0 156 79">
  <g id="Group_2950" data-name="Group 2950" transform="translate(-302 -44)">
    <text id="IVATT_St_rage" data-name="IVATT 
St  rage" transform="translate(330 80)" fill="#3575ec" font-size="37" font-family="Montserrat-Bold, Montserrat" font-weight="700" letter-spacing="0.032em"><tspan x="0" y="0">IVATT </tspan><tspan font-family="SourceSansPro-Semibold, Source Sans Pro" font-weight="600" letter-spacing="0.024em"><tspan x="0" y="28" xml:space="preserve">St  rage</tspan></tspan></text>
    <path id="Icon_ionic-ios-unlock" data-name="Icon ionic-ios-unlock" d="M20.064,10.222h-8.94V7.94a3.234,3.234,0,0,1,6.467,0h0a.666.666,0,0,0,1.331,0h0A4.565,4.565,0,1,0,9.793,8v2.221H8.652a1.908,1.908,0,0,0-1.9,1.9v9.13a1.908,1.908,0,0,0,1.9,1.9H20.064a1.908,1.908,0,0,0,1.9-1.9v-9.13A1.908,1.908,0,0,0,20.064,10.222Zm-5.04,5.934v3.272a.682.682,0,0,1-.632.685.667.667,0,0,1-.7-.666V16.157a1.522,1.522,0,1,1,1.331,0Z" transform="translate(359.25 85.284)" fill="#e2a656"/>
    <text id="SELF" transform="translate(322 110) rotate(-90)" fill="#e2a656" font-size="21" font-family="Montserrat-Bold, Montserrat" font-weight="700" letter-spacing="0.026em"><tspan x="0" y="0">SELF</tspan></text>
  </g>
</svg>
