<svg xmlns="http://www.w3.org/2000/svg" width="22" height="17.056" viewBox="0 0 22 17.056">
  <g id="Group_2776" data-name="Group 2776" transform="translate(381.064 -277)">
    <g id="Group_2743" data-name="Group 2743" transform="translate(-381.064 277)">
      <path id="Path_5691" data-name="Path 5691" d="M20.066,61H1.934A1.954,1.954,0,0,0,0,62.968v13.12a1.954,1.954,0,0,0,1.934,1.968H20.066A1.954,1.954,0,0,0,22,76.088V62.968A1.954,1.954,0,0,0,20.066,61ZM19.8,62.312l-8.758,8.914L2.207,62.312Zm-18.51,13.5V63.233L7.5,69.5Zm.911.928,6.212-6.322,2.177,2.2a.637.637,0,0,0,.91,0l2.122-2.16L19.8,76.744Zm18.51-.928-6.178-6.288,6.178-6.288Z" transform="translate(0 -61)" fill="#fff"/>
    </g>
  </g>
</svg>
