<svg xmlns="http://www.w3.org/2000/svg" width="201.292" height="219.163" viewBox="0 0 201.292 219.163">
  <g id="Group_3820" data-name="Group 3820" transform="translate(-751.598 -321.5)">
    <path id="Path_13678" data-name="Path 13678" d="M-6.111,0,118.843,14.888,101.874,211.406-25.51,175.191Z" transform="translate(797.558 329.257)" fill="#5cdb95"/>
    <path id="Path_13666" data-name="Path 13666" d="M24.333,1.275,25.5,14.659,0,0Z" transform="translate(777.83 348.371) rotate(177)" fill="#5cdb95"/>
    <path id="Path_13667" data-name="Path 13667" d="M14.849,16.854l-10.7,1.208L0,0Z" transform="translate(774.398 344.109) rotate(177)" fill="#5cdb95"/>
    <path id="Path_13668" data-name="Path 13668" d="M7.142,19.53,0,13.811,7.207,0Z" transform="translate(784.234 341.003) rotate(177)" fill="#5cdb95"/>
    <path id="Path_13671" data-name="Path 13671" d="M24.862,1.41,25.5,14.659,0,0Z" transform="translate(926.894 464.862) rotate(-2)" fill="#5cdb95"/>
    <path id="Path_13672" data-name="Path 13672" d="M14.849,16.854l-10.7,1.208L0,0Z" transform="translate(930.857 475.798) rotate(-18)" fill="#5cdb95"/>
    <path id="Path_13673" data-name="Path 13673" d="M7.142,19.53,0,13.811,7.207,0Z" transform="translate(910.867 472.557) rotate(-16)" fill="#5cdb95"/>
    <path id="Path_13674" data-name="Path 13674" d="M0,0V17.043l29.622,3.724" transform="translate(772.816 499.218)" fill="none" stroke="#064d7b" stroke-width="3"/>
    <path id="Path_13675" data-name="Path 13675" d="M0,0,.563,21.538,58.2,16.648" transform="translate(911.431 345.919) rotate(180)" fill="none" stroke="#064d7b" stroke-width="3"/>
    <path id="Path_13676" data-name="Path 13676" d="M7.3,12.634,0,13.618,8.22,0Z" transform="translate(768.267 370.337) rotate(69)" fill="#5cdb95"/>
    <path id="Path_13677" data-name="Path 13677" d="M0-3.4,128.965-14.211l5.809,198.248L0,167.522Z" transform="translate(778.52 343.307)" fill="#064d7b"/>
    <path id="Path_13669" data-name="Path 13669" d="M0-12.287,160.456-51.294V6.724L0,45.351Z" transform="translate(766.352 404.662)" fill="#5cdb95"/>
    <path id="Path_13670" data-name="Path 13670" d="M0-13.013l160.456-38.28v38.28L0,25.89Z" transform="translate(766.352 471.651)" fill="#5cdb95"/>
    <text id="_50_oFF_" data-name="50% oFF " transform="translate(797.054 480.329) rotate(-14)" fill="#fff" font-size="23" font-family="Helvetica-Bold, Helvetica" font-weight="700"><tspan x="0" y="0">50% OFF </tspan></text>
    <text id="Two_months" data-name="Two months" transform="translate(774.537 430.529) rotate(-14)" fill="#fff" font-size="22" font-family="Helvetica-Bold, Helvetica" font-weight="700" letter-spacing="-0.01em"><tspan x="0" y="0">TWO MONTHS</tspan></text>
  </g>
</svg>
