<svg xmlns="http://www.w3.org/2000/svg" width="22.01" height="22.01" viewBox="0 0 22.01 22.01">
  <g id="Group_3131" data-name="Group 3131" transform="translate(-3 7)">
    <g id="Group_2745" data-name="Group 2745" transform="translate(3 -7)">
      <path id="Path_5692" data-name="Path 5692" d="M15.819,22.01a6.132,6.132,0,0,1-2.1-.376,22.434,22.434,0,0,1-8.146-5.193A22.432,22.432,0,0,1,.376,8.3,6.088,6.088,0,0,1,.066,5.3,6.243,6.243,0,0,1,3.274.733,6.129,6.129,0,0,1,6.209,0a.688.688,0,0,1,.673.544l1.08,5.038a.688.688,0,0,1-.186.63L5.93,8.057a18.1,18.1,0,0,0,8.024,8.024L15.8,14.236a.688.688,0,0,1,.63-.186l5.038,1.08a.688.688,0,0,1,.544.673,6.128,6.128,0,0,1-.733,2.935,6.243,6.243,0,0,1-4.57,3.209,6.118,6.118,0,0,1-.888.065ZM5.659,1.406a4.819,4.819,0,0,0-3.99,6.42A20.862,20.862,0,0,0,14.185,20.341a4.819,4.819,0,0,0,6.42-3.99l-4.1-.878L14.58,17.4a.688.688,0,0,1-.779.136A19.475,19.475,0,0,1,4.475,8.209a.688.688,0,0,1,.136-.779L6.537,5.5Z" transform="translate(0 0)" fill="#fff"/>
    </g>
  </g>
</svg>
