<svg xmlns="http://www.w3.org/2000/svg" width="49.791" height="26.835" viewBox="0 0 49.791 26.835">
  <g id="roof" transform="translate(0 -117.877)">
    <path id="Path_12705" data-name="Path 12705" d="M416.965,123.041l6.224,23.339c-2.3,0-2.217-2.007-3.828-1.463l-1.4-6.138-1.228-5.345-1.051-4.6-.871-3.828-.7-3.057C415.308,121.54,415.253,123.041,416.965,123.041Z" transform="translate(-373.787 -3.614)" fill="#3575ec"/>
    <g id="Group_3118" data-name="Group 3118" transform="translate(40.323 118.268)" opacity="0.3">
      <path id="Path_12706" data-name="Path 12706" d="M418.739,138.787l-1.229-5.345-1.051-4.6-.871-3.828L414.9,122a.9.9,0,0,0-.786-.037l.7,3.057.871,3.828,1.051,4.6,1.228,5.345,1.4,6.138a1.366,1.366,0,0,1,.763-.065Z" transform="translate(-414.111 -121.888)"/>
      <path id="Path_12707" data-name="Path 12707" d="M477.068,357.632c.815.292,1.173,1.489,2.949,1.489l-.027-.1C478.531,358.635,478.364,357.267,477.068,357.632Z" transform="translate(-470.938 -334.622)"/>
    </g>
    <path id="Path_12708" data-name="Path 12708" d="M351.108,135.376l-1.556-11.67a24.1,24.1,0,0,0,6.286-1.089l.7,3.057.871,3.828,1.051,4.6,1.228,5.345,1.4,6.138a32,32,0,0,1-8.426,1.463Z" transform="translate(-315.516 -4.279)" fill="#5d90ef" opacity="0.8"/>
    <g id="Group_3119" data-name="Group 3119" transform="translate(37.145 118.339)" opacity="0.3">
      <path id="Path_12709" data-name="Path 12709" d="M388.508,139.446l-1.228-5.345-1.051-4.6-.871-3.828-.7-3.057c-.224.075-.47.149-.728.22l.65,2.837.871,3.828,1.051,4.6,1.228,5.345,1.4,6.138a33.192,33.192,0,0,1-7.651,1.437l0,.026a31.992,31.992,0,0,0,8.426-1.463Z" transform="translate(-381.48 -122.618)" fill="#fff"/>
    </g>
    <path id="Path_12710" data-name="Path 12710" d="M323.084,123.041l1.556,11.67,1.556,11.67c-2.3,0-2.217-2.007-3.828-1.463l-1.073-11.483-.42-4.59-.358-3.828-.288-3.065C321.427,121.54,321.373,123.041,323.084,123.041Z" transform="translate(-289.048 -3.614)" fill="#3575ec"/>
    <g id="Group_3120" data-name="Group 3120" transform="translate(31.181 118.268)" opacity="0.3">
      <path id="Path_12711" data-name="Path 12711" d="M322.074,133.443l-.42-4.59-.358-3.828-.285-3.031a.907.907,0,0,0-.781-.033l.288,3.065.358,3.828.42,4.59,1.073,11.483a1.354,1.354,0,0,1,.772-.062Z" transform="translate(-320.23 -121.89)"/>
      <path id="Path_12712" data-name="Path 12712" d="M351.229,357.631c.815.292,1.173,1.489,2.949,1.489l-.013-.1C352.692,358.645,352.529,357.265,351.229,357.631Z" transform="translate(-348.211 -334.621)"/>
    </g>
    <path id="Path_12713" data-name="Path 12713" d="M263.024,134.1l1.073,11.483a31.943,31.943,0,0,1-8.425,1.463V123.707a24.041,24.041,0,0,0,6.286-1.089l.288,3.065.358,3.828Z" transform="translate(-230.777 -4.279)" fill="#5d90ef" opacity="0.8"/>
    <g id="Group_3121" data-name="Group 3121" transform="translate(24.895 118.339)" opacity="0.3">
      <path id="Path_12714" data-name="Path 12714" d="M263.024,134.1l-.42-4.59-.358-3.828-.288-3.065c-.233.078-.488.154-.757.229l.267,2.836.358,3.828.42,4.59,1.074,11.483a33.113,33.113,0,0,1-7.648,1.437v.026a31.94,31.94,0,0,0,8.425-1.463Z" transform="translate(-255.672 -122.617)" fill="#fff"/>
    </g>
    <path id="Path_12715" data-name="Path 12715" d="M220.191,140.155v6.224c-2.3,0-2.217-2.007-3.828-1.463l.257-6.123.226-5.36.195-4.59.163-3.828.132-3.065c1.206-.413,1.143,1.089,2.855,1.089v17.116Z" transform="translate(-195.295 -3.612)" fill="#3575ec"/>
    <g id="Group_3122" data-name="Group 3122" transform="translate(21.068 118.268)" opacity="0.3">
      <path id="Path_12716" data-name="Path 12716" d="M217.4,138.8l.226-5.36.194-4.59.163-3.828.131-3.035a.915.915,0,0,0-.777-.03l-.132,3.065-.163,3.828-.195,4.59-.226,5.36-.257,6.123a1.345,1.345,0,0,1,.78-.059Z" transform="translate(-216.363 -121.891)"/>
      <path id="Path_12717" data-name="Path 12717" d="M225.391,357.632c.816.292,1.173,1.489,2.949,1.489v-.092C226.855,358.654,226.7,357.265,225.391,357.632Z" transform="translate(-224.512 -334.622)"/>
    </g>
    <path id="Path_12718" data-name="Path 12718" d="M139.1,125.684l-.163,3.828-.195,4.59-.226,5.36-.257,6.123a32,32,0,0,1-8.426,1.463l.832-6.224.724-5.446.622-4.668.522-3.89.412-3.112a24.1,24.1,0,0,0,6.286-1.089Z" transform="translate(-117.191 -4.28)" fill="#5d90ef" opacity="0.8"/>
    <g id="Group_3123" data-name="Group 3123" transform="translate(12.642 118.339)" opacity="0.3">
      <path id="Path_12719" data-name="Path 12719" d="M138.443,122.854l-.122,2.828-.163,3.828-.194,4.59-.226,5.36-.257,6.123a33.24,33.24,0,0,1-7.644,1.437l0,.026a31.994,31.994,0,0,0,8.426-1.463l.257-6.123.226-5.36.195-4.59.163-3.828.132-3.065C138.99,122.7,138.722,122.778,138.443,122.854Z" transform="translate(-129.833 -122.618)" fill="#fff"/>
    </g>
    <path id="Path_12720" data-name="Path 12720" d="M93.379,128.844l.685-3.828.545-3.065c1.206-.413,1.143,1.089,2.855,1.089l-.412,3.112-.522,3.89-.622,4.668-.724,5.446-.832,6.224c-2.3,0-2.217-2.007-3.828-1.463l1.089-6.123.949-5.36Z" transform="translate(-81.71 -3.613)" fill="#3575ec"/>
    <g id="Group_3124" data-name="Group 3124" transform="translate(8.815 118.268)" opacity="0.3">
      <path id="Path_12721" data-name="Path 12721" d="M92.392,138.8l.949-5.36.817-4.59.685-3.828.54-3.037a.915.915,0,0,0-.773-.027l-.545,3.065-.685,3.828-.817,4.59-.949,5.36-1.089,6.123a1.336,1.336,0,0,1,.788-.056Z" transform="translate(-90.525 -121.889)"/>
      <path id="Path_12722" data-name="Path 12722" d="M99.552,357.633c.816.292,1.173,1.489,2.949,1.489l.012-.088C101.016,358.663,100.86,357.265,99.552,357.633Z" transform="translate(-98.673 -334.623)"/>
    </g>
    <path id="Path_12723" data-name="Path 12723" d="M15.96,125.684l-.685,3.828-.817,4.59-.949,5.36-1.089,6.123A31.944,31.944,0,0,1,4,147.047l6.224-23.339a24.042,24.042,0,0,0,6.286-1.089Z" transform="translate(-3.606 -4.28)" fill="#5d90ef" opacity="0.8"/>
    <g id="Group_3125" data-name="Group 3125" transform="translate(0.389 118.339)" opacity="0.3">
      <path id="Path_12724" data-name="Path 12724" d="M15.682,122.863l-.5,2.819L14.5,129.51l-.817,4.59-.949,5.36-1.089,6.123A33.119,33.119,0,0,1,4,147.019l-.007.026a31.94,31.94,0,0,0,8.426-1.463l1.089-6.123.949-5.36.817-4.59.685-3.828.545-3.065C16.254,122.7,15.974,122.783,15.682,122.863Z" transform="translate(-3.994 -122.617)" fill="#fff"/>
    </g>
    <path id="Path_12725" data-name="Path 12725" d="M28.5,359.064a31.939,31.939,0,0,0,8.425-1.463c1.611-.545,1.532,1.463,3.828,1.463a31.992,31.992,0,0,0,8.425-1.463c1.611-.545,1.532,1.463,3.828,1.463v1.556c-2.3,0-2.217-2.007-3.828-1.463a32,32,0,0,1-8.425,1.463c-2.3,0-2.217-2.007-3.828-1.463A31.941,31.941,0,0,1,28.5,360.62c-2.3,0-2.217-2.007-3.828-1.463a32,32,0,0,1-8.426,1.463c-2.3,0-2.217-2.007-3.828-1.463a31.942,31.942,0,0,1-8.426,1.463v-1.556A31.94,31.94,0,0,0,12.42,357.6c1.61-.545,1.532,1.463,3.828,1.463a31.992,31.992,0,0,0,8.426-1.463C26.283,357.057,26.205,359.064,28.5,359.064Z" transform="translate(-3.605 -216.298)" fill="#ccd1d9"/>
    <g id="Group_3126" data-name="Group 3126" transform="translate(0 117.877)">
      <path id="Path_12726" data-name="Path 12726" d="M115.474,297.482a3.071,3.071,0,0,1-2.286-.982l-.084-.078a.389.389,0,0,1,.525-.574l.088.081a2.269,2.269,0,0,0,1.737.774.4.4,0,0,1,.4.391A.379.379,0,0,1,115.474,297.482Z" transform="translate(-101.976 -278.427)" fill="#3a3847"/>
      <path id="Path_12727" data-name="Path 12727" d="M33.628,293.665a.389.389,0,0,1-.036-.776,30.6,30.6,0,0,0,6.19-1.265.389.389,0,0,1,.248.737,31.462,31.462,0,0,1-6.366,1.3Z" transform="translate(-30.003 -274.688)" fill="#3a3847"/>
      <path id="Path_12728" data-name="Path 12728" d="M233.244,298.136a3.019,3.019,0,0,1-2.3-.993.389.389,0,1,1,.534-.565,2.263,2.263,0,0,0,1.763.78.389.389,0,1,1,0,.778Z" transform="translate(-208.349 -279.081)" fill="#3a3847"/>
      <path id="Path_12729" data-name="Path 12729" d="M150.837,293.659a.389.389,0,0,1-.037-.776,30.552,30.552,0,0,0,6.2-1.257.389.389,0,0,1,.249.737,31.454,31.454,0,0,1-6.374,1.295Z" transform="translate(-135.799 -274.69)" fill="#3a3847"/>
      <path id="Path_12730" data-name="Path 12730" d="M351.231,299.072a2.972,2.972,0,0,1-2.194-.889.389.389,0,1,1,.529-.571,2.209,2.209,0,0,0,1.665.682.389.389,0,1,1,0,.778Z" transform="translate(-314.938 -280.017)" fill="#3a3847"/>
      <path id="Path_12731" data-name="Path 12731" d="M268.044,293.659a.389.389,0,0,1-.036-.776,30.922,30.922,0,0,0,6.206-1.257.389.389,0,1,1,.249.737,31.291,31.291,0,0,1-6.382,1.295Z" transform="translate(-241.593 -274.69)" fill="#3a3847"/>
      <path id="Path_12732" data-name="Path 12732" d="M385.253,292.925a.389.389,0,0,1-.036-.776,30.309,30.309,0,0,0,6.174-1.257,1.727,1.727,0,0,1,1.917.565c.106.1.217.2.342.3a.389.389,0,0,1-.486.608c-.14-.112-.266-.229-.386-.34-.43-.4-.625-.558-1.1-.409a31.222,31.222,0,0,1-6.388,1.307Z" transform="translate(-347.389 -273.956)" fill="#3a3847"/>
      <path id="Path_12733" data-name="Path 12733" d="M124.611,242.858a2.88,2.88,0,0,1-2.162-.92.389.389,0,0,1,.528-.571,2.125,2.125,0,0,0,1.634.713.389.389,0,1,1,0,.778Z" transform="translate(-110.413 -229.249)" fill="#3a3847"/>
      <path id="Path_12734" data-name="Path 12734" d="M48.564,238.508a.389.389,0,0,1-.038-.776,28.432,28.432,0,0,0,5.686-1.164.389.389,0,0,1,.249.737,29.268,29.268,0,0,1-5.86,1.2Z" transform="translate(-43.485 -224.993)" fill="#3a3847"/>
      <path id="Path_12735" data-name="Path 12735" d="M235.336,243.575a2.815,2.815,0,0,1-2.068-.842.389.389,0,0,1,.527-.573,2.034,2.034,0,0,0,1.542.637.389.389,0,1,1,0,.778Z" transform="translate(-210.441 -229.966)" fill="#3a3847"/>
      <path id="Path_12736" data-name="Path 12736" d="M158.264,238.508a.389.389,0,0,1-.037-.776,28.5,28.5,0,0,0,5.7-1.164.389.389,0,0,1,.249.737,29.336,29.336,0,0,1-5.876,1.2Z" transform="translate(-142.502 -224.993)" fill="#3a3847"/>
      <path id="Path_12737" data-name="Path 12737" d="M345.911,244.23a2.759,2.759,0,0,1-1.987-.768.389.389,0,0,1,.519-.58,1.988,1.988,0,0,0,1.468.57.389.389,0,0,1,0,.778Z" transform="translate(-310.319 -230.621)" fill="#3a3847"/>
      <path id="Path_12738" data-name="Path 12738" d="M268.041,238.517a.389.389,0,0,1-.039-.776,29.111,29.111,0,0,0,5.711-1.171.389.389,0,1,1,.249.737,29.915,29.915,0,0,1-5.881,1.209Z" transform="translate(-241.59 -224.993)" fill="#3a3847"/>
      <path id="Path_12739" data-name="Path 12739" d="M377.823,237.729a.389.389,0,0,1-.039-.776,29.32,29.32,0,0,0,5.719-1.172,1.614,1.614,0,0,1,1.817.52l.172.156a.389.389,0,0,1-.511.586l-.187-.168c-.389-.356-.565-.52-1.042-.356a30.209,30.209,0,0,1-5.89,1.209Z" transform="translate(-340.682 -224.205)" fill="#3a3847"/>
      <path id="Path_12740" data-name="Path 12740" d="M133.054,195.93a2.692,2.692,0,0,1-1.974-.81.389.389,0,1,1,.526-.574,1.9,1.9,0,0,0,1.421.606.4.4,0,0,1,.4.391A.376.376,0,0,1,133.054,195.93Z" transform="translate(-118.202 -186.988)" fill="#3a3847"/>
      <path id="Path_12741" data-name="Path 12741" d="M61.35,191.3a.389.389,0,0,1-.04-.776,27.309,27.309,0,0,0,5.261-1.095.389.389,0,0,1,.248.737,28.153,28.153,0,0,1-5.428,1.131Z" transform="translate(-55.026 -182.443)" fill="#3a3847"/>
      <path id="Path_12742" data-name="Path 12742" d="M237.072,196.652a2.586,2.586,0,0,1-1.888-.732.389.389,0,0,1,.524-.575,1.813,1.813,0,0,0,1.356.529.392.392,0,0,1,.393.389A.385.385,0,0,1,237.072,196.652Z" transform="translate(-212.169 -187.711)" fill="#3a3847"/>
      <path id="Path_12743" data-name="Path 12743" d="M164.735,191.292a.389.389,0,0,1-.039-.776,26.81,26.81,0,0,0,5.268-1.086.389.389,0,0,1,.248.737,27.676,27.676,0,0,1-5.438,1.124Z" transform="translate(-148.344 -182.444)" fill="#3a3847"/>
      <path id="Path_12744" data-name="Path 12744" d="M341.31,197.587a2.6,2.6,0,0,1-1.763-.617.389.389,0,0,1,.493-.6,1.823,1.823,0,0,0,1.27.441.389.389,0,1,1,0,.778Z" transform="translate(-306.356 -188.646)" fill="#3a3847"/>
      <path id="Path_12745" data-name="Path 12745" d="M268.041,191.292a.389.389,0,0,1-.039-.776,26.915,26.915,0,0,0,5.29-1.086.389.389,0,0,1,.249.737,27.753,27.753,0,0,1-5.462,1.124Z" transform="translate(-241.59 -182.444)" fill="#3a3847"/>
      <path id="Path_12746" data-name="Path 12746" d="M371.358,190.58a.389.389,0,0,1-.04-.776,27.3,27.3,0,0,0,5.269-1.086l.043-.011,0,0a1.548,1.548,0,0,1,1.676.5l.106.1a.389.389,0,0,1-.517.581l-.113-.1c-.382-.347-.533-.46-.922-.332l-.042.011h0a28.209,28.209,0,0,1-5.422,1.118Z" transform="translate(-334.847 -181.732)" fill="#3a3847"/>
      <path id="Path_12747" data-name="Path 12747" d="M139.767,156.922a2.532,2.532,0,0,1-1.814-.7.389.389,0,1,1,.516-.583,1.756,1.756,0,0,0,1.279.509.4.4,0,0,1,.4.391A.378.378,0,0,1,139.767,156.922Z" transform="translate(-124.402 -151.871)" fill="#3a3847"/>
      <path id="Path_12748" data-name="Path 12748" d="M71.977,151.92a.389.389,0,0,1-.041-.776,25.466,25.466,0,0,0,4.912-1.024.389.389,0,1,1,.248.738,26.23,26.23,0,0,1-5.077,1.06Z" transform="translate(-64.617 -146.962)" fill="#3a3847"/>
      <path id="Path_12749" data-name="Path 12749" d="M238.579,157.711a2.49,2.49,0,0,1-1.7-.611.389.389,0,1,1,.5-.6,1.713,1.713,0,0,0,1.206.431.389.389,0,1,1,0,.778Z" transform="translate(-213.683 -152.66)" fill="#3a3847"/>
      <path id="Path_12750" data-name="Path 12750" d="M169.851,151.92a.389.389,0,0,1-.041-.776,25.763,25.763,0,0,0,4.935-1.024.389.389,0,0,1,.249.737,26.2,26.2,0,0,1-5.1,1.061Z" transform="translate(-152.961 -146.962)" fill="#3a3847"/>
      <path id="Path_12751" data-name="Path 12751" d="M337.535,158.576a2.474,2.474,0,0,1-1.571-.505.389.389,0,1,1,.466-.623,1.692,1.692,0,0,0,1.1.35.389.389,0,0,1,0,.778Z" transform="translate(-303.109 -153.525)" fill="#3a3847"/>
      <path id="Path_12752" data-name="Path 12752" d="M268.045,151.919a.389.389,0,0,1-.041-.776,25.653,25.653,0,0,0,4.934-1.024.389.389,0,0,1,.251.737,26.57,26.57,0,0,1-5.1,1.061Z" transform="translate(-241.594 -146.962)" fill="#3a3847"/>
      <path id="Path_12753" data-name="Path 12753" d="M366.083,151.267a.389.389,0,0,1-.041-.776,26.087,26.087,0,0,0,4.9-1.017.454.454,0,0,1,.079-.018,1.475,1.475,0,0,1,1.585.5.389.389,0,1,1-.53.569c-.356-.332-.486-.432-.846-.318a.4.4,0,0,1-.088.017,26.936,26.936,0,0,1-5.013,1.042Z" transform="translate(-330.086 -146.317)" fill="#3a3847"/>
      <path id="Path_12754" data-name="Path 12754" d="M12.642,355.854a3.273,3.273,0,0,1-2.45-1.053c-.45-.417-.675-.624-1.253-.43a32.042,32.042,0,0,1-8.55,1.483.389.389,0,0,1,0-.778,31.628,31.628,0,0,0,8.3-1.442,1.807,1.807,0,0,1,2.031.6,2.508,2.508,0,0,0,1.921.846.389.389,0,0,1,0,.778Z" transform="translate(0 -330.575)" fill="#3a3847"/>
      <path id="Path_12755" data-name="Path 12755" d="M138.48,355.854a3.273,3.273,0,0,1-2.45-1.053c-.45-.417-.675-.624-1.253-.43a32.153,32.153,0,0,1-8.55,1.483.389.389,0,0,1,0-.778,31.739,31.739,0,0,0,8.3-1.442,1.807,1.807,0,0,1,2.031.6,2.508,2.508,0,0,0,1.921.846.389.389,0,0,1,0,.778Z" transform="translate(-113.585 -330.575)" fill="#3a3847"/>
      <path id="Path_12756" data-name="Path 12756" d="M264.319,355.854a3.271,3.271,0,0,1-2.449-1.053c-.45-.417-.676-.624-1.254-.43a32.042,32.042,0,0,1-8.55,1.483.389.389,0,0,1,0-.778,31.635,31.635,0,0,0,8.3-1.442,1.808,1.808,0,0,1,2.031.6,2.507,2.507,0,0,0,1.921.846.389.389,0,0,1,0,.778Z" transform="translate(-227.171 -330.575)" fill="#3a3847"/>
      <path id="Path_12757" data-name="Path 12757" d="M390.158,355.854a3.271,3.271,0,0,1-2.449-1.053c-.451-.417-.676-.624-1.254-.43a32.151,32.151,0,0,1-8.55,1.483.389.389,0,0,1,0-.778,31.743,31.743,0,0,0,8.3-1.442,1.807,1.807,0,0,1,2.031.6,2.507,2.507,0,0,0,1.921.846.389.389,0,0,1,0,.778Z" transform="translate(-340.757 -330.575)" fill="#3a3847"/>
      <path id="Path_12758" data-name="Path 12758" d="M12.642,371.834a3.273,3.273,0,0,1-2.45-1.053c-.45-.416-.675-.624-1.253-.43a32.041,32.041,0,0,1-8.55,1.483.389.389,0,0,1,0-.778,31.63,31.63,0,0,0,8.3-1.442,1.807,1.807,0,0,1,2.031.6,2.507,2.507,0,0,0,1.921.846.389.389,0,1,1,0,.778Z" transform="translate(0 -345)" fill="#3a3847"/>
      <path id="Path_12759" data-name="Path 12759" d="M138.48,371.834a3.273,3.273,0,0,1-2.45-1.053c-.45-.416-.675-.624-1.253-.43a32.152,32.152,0,0,1-8.55,1.483.389.389,0,1,1,0-.778,31.742,31.742,0,0,0,8.3-1.442,1.807,1.807,0,0,1,2.031.6,2.507,2.507,0,0,0,1.921.846.389.389,0,1,1,0,.778Z" transform="translate(-113.585 -345)" fill="#3a3847"/>
      <path id="Path_12760" data-name="Path 12760" d="M264.319,371.834a3.271,3.271,0,0,1-2.449-1.053c-.45-.416-.676-.624-1.254-.43a32.041,32.041,0,0,1-8.55,1.483.389.389,0,1,1,0-.778,31.638,31.638,0,0,0,8.3-1.442,1.808,1.808,0,0,1,2.031.6,2.506,2.506,0,0,0,1.921.846.389.389,0,0,1,0,.778Z" transform="translate(-227.171 -345)" fill="#3a3847"/>
      <path id="Path_12761" data-name="Path 12761" d="M390.158,371.834a3.271,3.271,0,0,1-2.449-1.053c-.451-.416-.676-.624-1.254-.43a32.149,32.149,0,0,1-8.55,1.483.389.389,0,1,1,0-.778,31.746,31.746,0,0,0,8.3-1.442,1.808,1.808,0,0,1,2.031.6,2.507,2.507,0,0,0,1.921.846.389.389,0,0,1,0,.778Z" transform="translate(-340.757 -345)" fill="#3a3847"/>
      <path id="Path_12762" data-name="Path 12762" d="M73.448,119.825a2.52,2.52,0,0,1-1.891-.811c-.35-.325-.479-.422-.838-.3a24.21,24.21,0,0,1-6.412,1.11.389.389,0,0,1,0-.778,23.662,23.662,0,0,0,6.162-1.069,1.443,1.443,0,0,1,1.617.465,1.759,1.759,0,0,0,1.362.6.389.389,0,0,1,0,.778Z" transform="translate(-57.694 -117.886)" fill="#3a3847"/>
      <path id="Path_12763" data-name="Path 12763" d="M167.328,119.822a2.52,2.52,0,0,1-1.891-.811c-.35-.325-.479-.422-.838-.3a24.323,24.323,0,0,1-6.412,1.11.389.389,0,0,1,0-.778,23.776,23.776,0,0,0,6.163-1.069,1.442,1.442,0,0,1,1.616.465,1.759,1.759,0,0,0,1.362.6.389.389,0,1,1,0,.778Z" transform="translate(-142.433 -117.883)" fill="#3a3847"/>
      <path id="Path_12764" data-name="Path 12764" d="M261.207,119.816a2.532,2.532,0,0,1-1.895-.812c-.349-.324-.479-.42-.834-.3a24.216,24.216,0,0,1-6.412,1.11.389.389,0,0,1,0-.778,23.666,23.666,0,0,0,6.162-1.069,1.439,1.439,0,0,1,1.613.463,1.765,1.765,0,0,0,1.366.606.389.389,0,0,1,0,.778Z" transform="translate(-227.171 -117.877)" fill="#3a3847"/>
      <path id="Path_12765" data-name="Path 12765" d="M355.087,119.817a2.532,2.532,0,0,1-1.895-.812c-.35-.324-.477-.42-.834-.3a24.325,24.325,0,0,1-6.412,1.11.389.389,0,1,1,0-.778,23.786,23.786,0,0,0,6.163-1.069,1.438,1.438,0,0,1,1.612.463,1.765,1.765,0,0,0,1.366.606.389.389,0,0,1,0,.778Z" transform="translate(-311.909 -117.878)" fill="#3a3847"/>
      <path id="Path_12766" data-name="Path 12766" d="M.389,153.927a.381.381,0,0,1-.1-.013.389.389,0,0,1-.275-.476L6.237,130.1a.389.389,0,0,1,.751.2L.765,153.638A.389.389,0,0,1,.389,153.927Z" transform="translate(0 -128.648)" fill="#3a3847"/>
      <path id="Path_12767" data-name="Path 12767" d="M446.051,153.927a.388.388,0,0,1-.375-.289L439.451,130.3a.389.389,0,0,1,.751-.2l6.224,23.339a.388.388,0,0,1-.275.476A.407.407,0,0,1,446.051,153.927Z" transform="translate(-396.649 -128.648)" fill="#3a3847"/>
      <path id="Path_12768" data-name="Path 12768" d="M415.754,142.36a.389.389,0,0,1-.379-.3l-5.251-22.966a.389.389,0,0,1,.758-.174l5.251,22.966a.389.389,0,0,1-.293.466A.369.369,0,0,1,415.754,142.36Z" transform="translate(-370.18 -118.544)" fill="#3a3847"/>
      <path id="Path_12769" data-name="Path 12769" d="M318.761,142.368a.389.389,0,0,1-.387-.353l-2.139-22.966a.389.389,0,0,1,.775-.073l2.139,22.966a.389.389,0,0,1-.351.424Z" transform="translate(-285.441 -118.551)" fill="#3a3847"/>
      <path id="Path_12770" data-name="Path 12770" d="M212.758,142.367h-.017a.389.389,0,0,1-.372-.4L213.341,119a.4.4,0,0,1,.405-.372.389.389,0,0,1,.372.406l-.972,22.965A.388.388,0,0,1,212.758,142.367Z" transform="translate(-191.69 -118.551)" fill="#3a3847"/>
      <path id="Path_12771" data-name="Path 12771" d="M86.919,142.361a.418.418,0,0,1-.068-.006.389.389,0,0,1-.315-.451l4.084-22.966a.389.389,0,0,1,.766.136L87.3,142.04A.389.389,0,0,1,86.919,142.361Z" transform="translate(-78.104 -118.544)" fill="#3a3847"/>
      <path id="Path_12772" data-name="Path 12772" d="M126.227,153.929a.306.306,0,0,1-.052,0,.389.389,0,0,1-.334-.437l3.112-23.339a.393.393,0,0,1,.436-.334.389.389,0,0,1,.335.436l-3.112,23.34A.389.389,0,0,1,126.227,153.929Z" transform="translate(-113.584 -128.651)" fill="#3a3847"/>
      <path id="Path_12773" data-name="Path 12773" d="M252.066,153.921a.389.389,0,0,1-.389-.389V130.193a.389.389,0,1,1,.778,0v23.339A.389.389,0,0,1,252.066,153.921Z" transform="translate(-227.171 -128.643)" fill="#3a3847"/>
      <path id="Path_12774" data-name="Path 12774" d="M349.054,153.929a.39.39,0,0,1-.386-.337l-3.112-23.339a.389.389,0,0,1,.772-.1l3.112,23.339a.39.39,0,0,1-.334.438A.4.4,0,0,1,349.054,153.929Z" transform="translate(-311.906 -128.651)" fill="#3a3847"/>
      <path id="Path_12775" data-name="Path 12775" d="M503.744,371.831a.389.389,0,0,1-.389-.389v-1.556a.389.389,0,1,1,.778,0v1.556A.389.389,0,0,1,503.744,371.831Z" transform="translate(-454.342 -344.996)" fill="#3a3847"/>
      <path id="Path_12776" data-name="Path 12776" d="M.389,371.831A.389.389,0,0,1,0,371.442v-1.556a.389.389,0,1,1,.778,0v1.556A.389.389,0,0,1,.389,371.831Z" transform="translate(0 -344.996)" fill="#3a3847"/>
    </g>
  </g>
</svg>
