<svg id="shed" xmlns="http://www.w3.org/2000/svg" width="52.314" height="55.829" viewBox="0 0 52.314 55.829">
  <path id="Path_12531" data-name="Path 12531" d="M74.938,78.24,52.779,92.8v31.642H97.1V92.8Z" transform="translate(-48.781 -69.709)" fill="#ffad61"/>
  <path id="Path_12532" data-name="Path 12532" d="M88.139,270.725a1.1,1.1,0,0,1-.214-.022,1.154,1.154,0,0,1-.2-.062,1.105,1.105,0,0,1-.188-.1,1.041,1.041,0,0,1-.166-.136,1.093,1.093,0,0,1-.136-.165,1.163,1.163,0,0,1-.1-.189,1.1,1.1,0,0,1-.062-.2,1.107,1.107,0,0,1,0-.426,1.1,1.1,0,0,1,.062-.2,1.078,1.078,0,0,1,.237-.354,1.044,1.044,0,0,1,.166-.135,1.12,1.12,0,0,1,.188-.1,1.105,1.105,0,0,1,.2-.062,1.075,1.075,0,0,1,.426,0,1.105,1.105,0,0,1,.2.062,1.13,1.13,0,0,1,.189.1,1.1,1.1,0,0,1,.166.135,1.15,1.15,0,0,1,.135.166,1.165,1.165,0,0,1,.1.189,1.1,1.1,0,0,1,.062.2,1.052,1.052,0,0,1,0,.426,1.1,1.1,0,0,1-.062.2,1.154,1.154,0,0,1-.1.189,1.1,1.1,0,0,1-.3.3,1.158,1.158,0,0,1-.189.1,1.1,1.1,0,0,1-.2.062A1.075,1.075,0,0,1,88.139,270.725Z" transform="translate(-79.314 -239.262)"/>
  <path id="Path_12533" data-name="Path 12533" d="M406.041,391.787a1.073,1.073,0,0,1-.213-.022,1.1,1.1,0,0,1-.2-.062,1.158,1.158,0,0,1-.189-.1,1.045,1.045,0,0,1-.166-.135,1.1,1.1,0,0,1-.135-.166,1.162,1.162,0,0,1-.1-.189,1.1,1.1,0,0,1-.062-.2,1.073,1.073,0,0,1-.022-.213,1.084,1.084,0,0,1,.022-.214,1.123,1.123,0,0,1,.062-.2,1.071,1.071,0,0,1,.4-.49,1.117,1.117,0,0,1,.189-.1,1.1,1.1,0,0,1,.2-.062,1.079,1.079,0,0,1,.426,0,1.154,1.154,0,0,1,.2.062,1.092,1.092,0,0,1,.59.59,1.123,1.123,0,0,1,.062.2,1.093,1.093,0,0,1,.022.214,1.072,1.072,0,0,1-.022.213,1.1,1.1,0,0,1-.062.2,1.152,1.152,0,0,1-.1.189,1.1,1.1,0,0,1-.136.166,1.043,1.043,0,0,1-.166.135,1.106,1.106,0,0,1-.188.1,1.127,1.127,0,0,1-.2.062A1.1,1.1,0,0,1,406.041,391.787Z" transform="translate(-362.552 -347.123)"/>
  <path id="Path_12534" data-name="Path 12534" d="M26.114,33.916,51.181,17.44,76.248,33.916l0-6.8L51.181,10,26.114,27.132Z" transform="translate(-25.024 -8.909)" fill="#6d504a"/>
  <g id="Group_2915" data-name="Group 2915" transform="translate(13.501 26.067)">
    <path id="Path_12535" data-name="Path 12535" d="M165.244,239.06v4.773L148.557,260.52l-7.211,7.211h-1.414v-6.264l22.407-22.407Z" transform="translate(-139.932 -239.06)" fill="#87635c"/>
    <path id="Path_12536" data-name="Path 12536" d="M139.932,435.871v.946l.946-.946Z" transform="translate(-139.932 -414.411)" fill="#87635c"/>
    <path id="Path_12537" data-name="Path 12537" d="M152.9,443.082h23.9v-7.211H160.112Z" transform="translate(-151.487 -414.411)" fill="#87635c"/>
  </g>
  <g id="Group_2916" data-name="Group 2916" transform="translate(13.501 40.044)">
    <path id="Path_12538" data-name="Path 12538" d="M148.362,367.239h-8.43v7.484h.946Z" transform="translate(-139.932 -367.239)" fill="#6d504a"/>
    <path id="Path_12539" data-name="Path 12539" d="M219.03,374.723h16.687v-7.484h-9.2Z" transform="translate(-210.405 -367.239)" fill="#6d504a"/>
  </g>
  <g id="Group_2917" data-name="Group 2917" transform="translate(13.501 33.056)">
    <path id="Path_12540" data-name="Path 12540" d="M155.35,303.15H139.932v6.988h8.43Z" transform="translate(-139.932 -303.15)" fill="#87635c"/>
    <path id="Path_12541" data-name="Path 12541" d="M287.661,310.138h9.2V303.15H294.65Z" transform="translate(-271.553 -303.15)" fill="#87635c"/>
  </g>
  <path id="Path_12542" data-name="Path 12542" d="M162.339,239.06H139.932v6.988H155.35Z" transform="translate(-126.431 -212.993)" fill="#6d504a"/>
  <path id="Path_12543" data-name="Path 12543" d="M353.967,285.048v-2.215l-2.215,2.215Z" transform="translate(-315.154 -251.993)" fill="#87635c"/>
  <path id="Path_12544" data-name="Path 12544" d="M68.425,18.206a1.09,1.09,0,0,0-.475-.9L42.887.19a1.09,1.09,0,0,0-1.23,0L16.59,17.322a1.09,1.09,0,0,0-.475.9v6.784a1.091,1.091,0,0,0,1.689.911l1.218-.8V54.738a1.09,1.09,0,0,0,1.09,1.09H64.432a1.09,1.09,0,0,0,1.09-1.09V25.117l1.218.8a1.09,1.09,0,0,0,1.689-.912ZM42.4,34.146l-4.808,4.808H30.706V34.146Zm-11.7-2.181V27.157H49.39l-4.807,4.807H30.706Zm4.707,9.169-4.707,4.707V41.134ZM53.838,53.648H33.663l5.03-5.03H53.838v5.03Zm0-7.211H40.874l5.3-5.3h7.662v5.3Zm0-7.484H48.357l1.23-1.23,3.578-3.578h.673Zm0-8.565-1.9,1.9L30.706,53.52V48.926l.627-.627h0l7.484-7.484,3.835-3.835,9.822-9.822h1.363v3.231Zm9.5,23.259H56.019V26.067a1.09,1.09,0,0,0-1.09-1.09H29.616a1.09,1.09,0,0,0-1.09,1.09V53.648h-2.5V34.227a1.09,1.09,0,0,0-2.181,0v19.42H21.2V23.684L42.272,9.836,58.514,20.511V39.718a1.09,1.09,0,0,0,2.181,0V21.945l2.646,1.739V53.648h0Zm1.689-31.463h0L42.871,7.62a1.091,1.091,0,0,0-1.2,0L19.514,22.184h0l-1.217.8V18.8L42.272,2.411,66.244,18.783l0,4.2Z" transform="translate(-16.115 0)"/>
</svg>
