<svg xmlns="http://www.w3.org/2000/svg" width="30" height="30" viewBox="0 0 30 30">
  <g id="sign" transform="translate(0 9.995)">
    <g id="Group_2812" data-name="Group 2812" transform="translate(0 -9.995)">
      <path id="Path_12389" data-name="Path 12389" d="M29.884,5.185l-2.5-3A.5.5,0,0,0,27,2H17V.5a.5.5,0,0,0-.5-.5h-3a.5.5,0,0,0-.5.5V2H10.5a.5.5,0,0,0-.5.5v6a.5.5,0,0,0,.5.5H13v1H3a.5.5,0,0,0-.384.18l-2.5,3a.5.5,0,0,0,0,.64l2.5,3A.5.5,0,0,0,3,17H13V29.5a.5.5,0,0,0,.5.5h3a.5.5,0,0,0,.5-.5V17h2.5a.5.5,0,0,0,.5-.5v-6a.5.5,0,0,0-.5-.5H17V9H27a.5.5,0,0,0,.384-.18l2.5-3A.5.5,0,0,0,29.884,5.185ZM14,1h2V2H14Zm2,28H14V17h2Zm3-18v5H3.235L1.15,13.5,3.235,11Zm-5-1V9h2v1ZM26.766,8H11V3H26.765l2.084,2.5Z" transform="translate(0 -0.005)" fill="#fff"/>
    </g>
  </g>
</svg>
