<svg xmlns="http://www.w3.org/2000/svg" xmlns:xlink="http://www.w3.org/1999/xlink" width="66.765" height="56.708" viewBox="0 0 66.765 56.708">
  <defs>
    <linearGradient id="linear-gradient" x1="0.468" y1="0.119" x2="0.643" y2="1.253" gradientUnits="objectBoundingBox">
      <stop offset="0" stop-color="#ffd300"/>
      <stop offset="1" stop-color="#fff"/>
    </linearGradient>
  </defs>
  <g id="Group_3793" data-name="Group 3793" transform="translate(-353.98 -707.928)">
    <g id="Group_3792" data-name="Group 3792" transform="translate(353.98 707.928)">
      <path id="Path_13019" data-name="Path 13019" d="M61.48,52.913c-8.53-6.558-16.8-1.213-26.033-3.1-9.3-1.9-13-8.241-23.586-5.316C2.483,47.085-3.208,57.475,1.948,66.174,3.417,68.653,5.92,70.523,6.943,73.3c1.65,4.474-.862,7.909-.372,12.306,2.036,18.269,29.936,11.193,40.2,5.509C62.874,82.2,73.766,62.358,61.48,52.913Z" transform="translate(0 -43.663)" fill="url(#linear-gradient)"/>
      <g id="Group_3353" data-name="Group 3353" transform="translate(8.937)">
        <path id="Path_13020" data-name="Path 13020" d="M125.327,93.712l-4.412-3.905h0l-11.935-4.2,3.452-3.862a1.3,1.3,0,0,0-.972-2.173h-4.651V69.864a1.3,1.3,0,0,0-1.3-1.3H99.564a1.3,1.3,0,0,0-1.3,1.3v9.708H93.609a1.3,1.3,0,0,0-.972,2.173l3.452,3.862-11.935,4.2h0l-4.411,3.905a.652.652,0,0,0,.216,1.1l4.2,1.476v17.754a1.3,1.3,0,0,0,.871,1.23l17.077,6.008a1.3,1.3,0,0,0,.865,0l17.077-6.008a1.3,1.3,0,0,0,.871-1.23V96.291l4.2-1.476a.652.652,0,0,0,.216-1.1Z" transform="translate(-78.088 -64.648)" fill="#2626bc" opacity="0.1"/>
        <g id="Group_3351" data-name="Group 3351" transform="translate(0.782)">
          <g id="Group_3348" data-name="Group 3348" transform="translate(5.284 0.652)">
            <g id="Group_3341" data-name="Group 3341" transform="translate(0 14.779)">
              <path id="Path_13021" data-name="Path 13021" d="M151.8,206.49v24.238a1.3,1.3,0,0,1-.871,1.23l-17.51,6.16-17.51-6.16a1.3,1.3,0,0,1-.871-1.23V206.49Z" transform="translate(-115.04 -200.023)" fill="#fff"/>
              <path id="Path_13022" data-name="Path 13022" d="M274.381,206.49v24.238a1.3,1.3,0,0,1-.871,1.23L256,238.118V206.49Z" transform="translate(-237.619 -200.023)" fill="#fff"/>
              <g id="Group_3340" data-name="Group 3340" transform="translate(0.001)">
                <path id="Path_13023" data-name="Path 13023" d="M133.425,156.9l-18.38,6.467,18.38,6.467,18.38-6.467Z" transform="translate(-115.045 -156.898)" fill="#6583fe"/>
              </g>
            </g>
            <path id="Path_13024" data-name="Path 13024" d="M177.874,56.745l8.925,9.986a1.3,1.3,0,0,0,1.945,0l8.925-9.986a1.3,1.3,0,0,0-.972-2.173h-4.651V44.864a1.3,1.3,0,0,0-1.3-1.3H184.8a1.3,1.3,0,0,0-1.3,1.3v9.708h-4.651A1.3,1.3,0,0,0,177.874,56.745Z" transform="translate(-169.39 -43.56)" fill="#fff"/>
            <g id="Group_3342" data-name="Group 3342" transform="translate(27.888 36.129)">
              <path id="Path_13025" data-name="Path 13025" d="M328.9,323.046v1.9a.652.652,0,0,0,.866.616l5.068-1.765a.652.652,0,0,0,.438-.616v-1.9a.652.652,0,0,0-.867-.616l-5.068,1.766A.652.652,0,0,0,328.9,323.046Z" transform="translate(-328.902 -320.628)" fill="#6583fe"/>
              <path id="Path_13026" data-name="Path 13026" d="M328.9,357.285v1.9a.652.652,0,0,0,.866.616l5.068-1.765a.652.652,0,0,0,.438-.616v-1.9a.652.652,0,0,0-.867-.616l-5.068,1.766A.652.652,0,0,0,328.9,357.285Z" transform="translate(-328.902 -350.402)" fill="#6583fe"/>
            </g>
            <g id="Group_3345" data-name="Group 3345" transform="translate(2.328 36.127)">
              <g id="Group_3343" data-name="Group 3343">
                <path id="Path_13027" data-name="Path 13027" d="M136.531,322.931a.647.647,0,0,1-.211-.035l-2.987-1.02a.652.652,0,1,1,.421-1.234l2.987,1.02a.652.652,0,0,1-.211,1.269Z" transform="translate(-132.892 -320.607)" fill="#2626bc"/>
              </g>
              <g id="Group_3344" data-name="Group 3344" transform="translate(0 2.397)">
                <path id="Path_13028" data-name="Path 13028" d="M136.531,341.312a.648.648,0,0,1-.211-.035l-2.987-1.02a.652.652,0,1,1,.421-1.234l2.987,1.02a.652.652,0,0,1-.211,1.269Z" transform="translate(-132.892 -338.988)" fill="#2626bc"/>
              </g>
            </g>
            <g id="Group_3347" data-name="Group 3347" transform="translate(2.328 33.272)">
              <g id="Group_3346" data-name="Group 3346">
                <path id="Path_13029" data-name="Path 13029" d="M141.183,302.626a.647.647,0,0,1-.211-.035l-7.639-2.608a.652.652,0,1,1,.421-1.234l7.639,2.608a.652.652,0,0,1-.211,1.269Z" transform="translate(-132.892 -298.714)" fill="#2626bc"/>
              </g>
            </g>
          </g>
          <g id="Group_3349" data-name="Group 3349" transform="translate(23.665 21.898)">
            <path id="Path_13030" data-name="Path 13030" d="M274.38,206.488l4.412,3.906a.652.652,0,0,1-.216,1.1L261.6,217.468a.652.652,0,0,1-.649-.127L256,212.955Z" transform="translate(-256 -206.488)" fill="#fff"/>
          </g>
          <g id="Group_3350" data-name="Group 3350" transform="translate(0.652 21.898)">
            <path id="Path_13031" data-name="Path 13031" d="M84.155,206.488l-4.412,3.906a.652.652,0,0,0,.216,1.1l16.973,5.971a.652.652,0,0,0,.648-.127l4.956-4.387Z" transform="translate(-79.522 -206.488)" fill="#fff"/>
          </g>
          <path id="Path_13032" data-name="Path 13032" d="M121.409,63.875,117,59.97a.746.746,0,0,0-.216-.127l-11.016-3.876,2.8-3.136a1.956,1.956,0,0,0-1.458-3.259h-4V40.516a1.958,1.958,0,0,0-1.956-1.956H95.215a1.958,1.958,0,0,0-1.956,1.956v9.056h-4A1.956,1.956,0,0,0,87.8,52.831l8.925,9.986a1.956,1.956,0,0,0,2.917,0l5.182-5.8,9.775,3.439L98.184,66.233,81.769,60.458l6.206-2.183a.652.652,0,0,0-.433-1.23l-7.954,2.8a.743.743,0,0,0-.216.127L74.96,63.875a1.3,1.3,0,0,0,.432,2.206L79.152,67.4V84.7a1.958,1.958,0,0,0,1.307,1.845L97.968,92.7a.653.653,0,0,0,.433,0l17.509-6.16a1.959,1.959,0,0,0,1.307-1.845V70.608a.652.652,0,1,0-1.3,0V84.7a.653.653,0,0,1-.436.615L98.184,91.4,80.892,85.311a.653.653,0,0,1-.436-.615V67.864l11.908,4.189a1.3,1.3,0,0,0,1.3-.254l4.523-4,4.523,4a1.3,1.3,0,0,0,1.3.254l16.973-5.971a1.3,1.3,0,0,0,.432-2.207ZM98.671,61.948a.652.652,0,0,1-.972,0l-8.925-9.986h0a.652.652,0,0,1,.486-1.086h4.651a.652.652,0,0,0,.652-.652V40.516a.653.653,0,0,1,.652-.652h5.939a.653.653,0,0,1,.652.652v9.708a.652.652,0,0,0,.652.652h4.651a.652.652,0,0,1,.486,1.086ZM92.8,70.823,75.824,64.852,79.949,61.2l4.932,1.735,12.041,4.236Zm10.775,0-4.125-3.652L116.42,61.2l4.125,3.652Z" transform="translate(-74.52 -38.56)" fill="#2626bc"/>
        </g>
        <g id="Group_3352" data-name="Group 3352" transform="translate(0 0.571)">
          <path id="Path_13033" data-name="Path 13033" d="M171.441,45.478a.65.65,0,0,1-.461-.191l-.778-.778-.778.778a.652.652,0,0,1-.922-.922l1.239-1.239a.652.652,0,0,1,.922,0l1.239,1.239a.652.652,0,0,1-.461,1.113Z" transform="translate(-155.299 -42.935)" fill="#6583fe"/>
          <path id="Path_13034" data-name="Path 13034" d="M71.656,417.6a.649.649,0,0,1-.461-.191l-.778-.778-.778.778a.652.652,0,0,1-.922-.922l1.239-1.239a.652.652,0,0,1,.922,0l1.239,1.239a.652.652,0,0,1-.461,1.113Z" transform="translate(-68.526 -366.535)" fill="#6583fe"/>
          <path id="Path_13035" data-name="Path 13035" d="M410.376,165.594a1.89,1.89,0,1,1,1.337-.553A1.885,1.885,0,0,1,410.376,165.594Zm0-2.477a.586.586,0,1,0,.415.171A.586.586,0,0,0,410.376,163.118Z" transform="translate(-364.155 -146.313)" fill="#6583fe"/>
          <path id="Path_13036" data-name="Path 13036" d="M111.936,439.173a1.89,1.89,0,1,1,1.337-.553A1.885,1.885,0,0,1,111.936,439.173Zm0-2.477a.587.587,0,1,0,.415.172A.586.586,0,0,0,111.936,436.7Z" transform="translate(-104.632 -384.217)" fill="#6583fe"/>
          <path id="Path_13037" data-name="Path 13037" d="M306.8,80.57a1.89,1.89,0,1,1,1.337-.553A1.885,1.885,0,0,1,306.8,80.57Zm0-2.476a.586.586,0,1,0,.415.171A.586.586,0,0,0,306.8,78.094Z" transform="translate(-274.084 -72.376)" fill="#6583fe"/>
        </g>
      </g>
    </g>
    <path id="Path_13038" data-name="Path 13038" d="M251,257.973h1.3v24.915H251Z" transform="translate(135.712 478.567)" fill="#2626bc"/>
  </g>
</svg>
