<svg xmlns="http://www.w3.org/2000/svg" xmlns:xlink="http://www.w3.org/1999/xlink" width="85.276" height="79.915" viewBox="0 0 85.276 79.915">
  <defs>
    <linearGradient id="linear-gradient" x1="0.468" y1="0.119" x2="0.643" y2="1.253" gradientUnits="objectBoundingBox">
      <stop offset="0" stop-color="#ffd300"/>
      <stop offset="1" stop-color="#fff"/>
    </linearGradient>
  </defs>
  <g id="Group_3768" data-name="Group 3768" transform="translate(-910.914 -2638)">
    <path id="Path_13622" data-name="Path 13622" d="M56.209,52.126c-7.8-6-15.363-1.109-23.8-2.837-8.5-1.74-11.884-7.535-21.564-4.86C2.27,46.8-2.933,56.3,1.781,64.25c1.343,2.266,3.632,3.976,4.567,6.512,1.508,4.091-.788,7.231-.34,11.251,1.861,16.7,27.37,10.233,36.756,5.036C57.483,78.9,67.441,60.762,56.209,52.126Z" transform="translate(924.659 2612.301)" fill="url(#linear-gradient)"/>
    <g id="open-24-hours" transform="translate(910.914 2638)">
      <g id="Group_3483" data-name="Group 3483" transform="translate(0 0)">
        <path id="Path_13237" data-name="Path 13237" d="M80.549,272.76a1.665,1.665,0,0,0-1.951,1.32A36.631,36.631,0,0,1,6.9,275.16l.435.435a1.665,1.665,0,1,0,2.355-2.355l-3.425-3.425a1.665,1.665,0,0,0-2.355,0L.488,273.239a1.666,1.666,0,1,0,2.356,2.355l.617-.617a39.962,39.962,0,0,0,78.409-.267A1.666,1.666,0,0,0,80.549,272.76Z" transform="translate(0 -227.149)" fill="#2626bc"/>
        <path id="Path_13238" data-name="Path 13238" d="M101.687,47.563a1.665,1.665,0,0,0-2.355,0l-.617.617a39.962,39.962,0,0,0-78.409.267,1.666,1.666,0,0,0,3.271.63A36.631,36.631,0,0,1,95.271,48l-.435-.435a1.666,1.666,0,0,0-2.356,2.355l3.425,3.425a1.665,1.665,0,0,0,2.355,0l3.425-3.425a1.665,1.665,0,0,0,0-2.355Z" transform="translate(-16.899 -16.094)" fill="#2626bc"/>
        <path id="Path_13239" data-name="Path 13239" d="M261.486,228.7a1.966,1.966,0,0,0,2.557-1.1l5.448-13.7a1.969,1.969,0,1,0-3.659-1.455l-5.448,13.7a1.969,1.969,0,0,0,1.1,2.557Z" transform="translate(-216.241 -180.443)" fill="#6583fe"/>
        <path id="Path_13240" data-name="Path 13240" d="M315.032,215.149h4.52l-4.808,10.937a1.969,1.969,0,1,0,3.6,1.585l6.022-13.7a1.968,1.968,0,0,0-1.8-2.761h-7.536a1.968,1.968,0,1,0,0,3.937Z" transform="translate(-258.663 -180.446)" fill="#6583fe"/>
        <path id="Path_13241" data-name="Path 13241" d="M193.943,223.827a1.968,1.968,0,0,0,1.7.968h4.868c-.006.726-.011,1.421-.017,2.057a1.969,1.969,0,0,0,1.952,1.986h.017a1.969,1.969,0,0,0,1.968-1.952c0-.515.01-1.246.017-2.1a1.969,1.969,0,0,0,.026-3.914c.018-3.2.024-6.43-.016-6.913a2.939,2.939,0,0,0-1.97-2.64,2.837,2.837,0,0,0-3.066,1.088c-.78.956-4.109,6.941-5.5,9.47A1.968,1.968,0,0,0,193.943,223.827Zm6.6-5.718c0,.85-.007,1.786-.012,2.749h-1.545c.547-.975,1.079-1.914,1.558-2.749Z" transform="translate(-162.772 -180.438)" fill="#6583fe"/>
        <path id="Path_13242" data-name="Path 13242" d="M150.175,228.4a1.969,1.969,0,0,0-.024-3.937h-.025c-1.078.013-2.21.023-3.233.028.708-.959,1.618-2.215,2.766-3.857a10.813,10.813,0,0,0,1.761-3.658,4.127,4.127,0,0,0,.119-.974,5.474,5.474,0,0,0-10.845-1.059,1.969,1.969,0,1,0,3.863.759,1.537,1.537,0,0,1,3.041.2l-.034.27a7.161,7.161,0,0,1-1.13,2.205c-2.165,3.093-3.456,4.784-4.15,5.692-.89,1.165-1.38,1.806-1.052,2.872a2.055,2.055,0,0,0,1.317,1.337c.263.088.473.158,3.162.158C146.765,228.436,148.2,228.425,150.175,228.4Z" transform="translate(-120.196 -179.897)" fill="#6583fe"/>
      </g>
    </g>
  </g>
</svg>
