<svg xmlns="http://www.w3.org/2000/svg" xmlns:xlink="http://www.w3.org/1999/xlink" width="71.777" height="54.427" viewBox="0 0 71.777 54.427">
  <defs>
    <linearGradient id="linear-gradient" x1="0.468" y1="0.119" x2="0.643" y2="1.253" gradientUnits="objectBoundingBox">
      <stop offset="0" stop-color="#ffd300"/>
      <stop offset="1" stop-color="#fff"/>
    </linearGradient>
  </defs>
  <g id="Group_3445" data-name="Group 3445" transform="translate(-357.98 -1326.685)">
    <g id="_008-delivery-box-1" data-name="008-delivery-box-1" transform="translate(359.98 1287.44)">
      <path id="Path_13019" data-name="Path 13019" d="M62.413,53.052c-8.66-6.658-17.059-1.232-26.428-3.15-9.437-1.932-13.2-8.366-23.944-5.4C2.52,47.136-3.257,57.684,1.977,66.514c1.491,2.516,4.032,4.415,5.071,7.23,1.675,4.542-.875,8.029-.377,12.493C8.737,104.784,37.061,97.6,47.483,91.83,63.828,82.78,74.885,62.641,62.413,53.052Z" transform="translate(0 -4.489)" fill="url(#linear-gradient)"/>
    </g>
    <g id="Group_3444" data-name="Group 3444" transform="translate(17329.98 6756.733)">
      <g id="_001-location" data-name="001-location" transform="translate(-16961.23 -5423.913)">
        <g id="Group_3190" data-name="Group 3190" transform="translate(0 0)">
          <g id="Group_3189" data-name="Group 3189">
            <path id="Path_12813" data-name="Path 12813" d="M427.851,353.508a.7.7,0,0,1-.5-.205l-.836-.836-.836.836a.7.7,0,1,1-.991-.991l1.332-1.332a.7.7,0,0,1,.991,0l1.332,1.332a.7.7,0,0,1-.5,1.2Z" transform="translate(-375.748 -312.222)" fill="#6583fe"/>
            <path id="Path_12814" data-name="Path 12814" d="M362.107,329.93a2.032,2.032,0,1,1,1.437-.594A2.026,2.026,0,0,1,362.107,329.93Zm0-2.662a.63.63,0,1,0,.446.184A.629.629,0,0,0,362.107,327.267Z" transform="translate(-320.367 -290.806)" fill="#6583fe"/>
            <path id="Path_12815" data-name="Path 12815" d="M88.366,121.058a2.032,2.032,0,1,1,1.437-.594A2.026,2.026,0,0,1,88.366,121.058Zm0-2.662a.631.631,0,1,0,.446.184A.629.629,0,0,0,88.366,118.4Z" transform="translate(-85.002 -111.215)" fill="#6583fe"/>
            <path id="Path_12816" data-name="Path 12816" d="M80.192,167.145a.7.7,0,0,1-.5-.205l-.836-.836-.836.836a.7.7,0,0,1-.991-.991l1.332-1.332a.7.7,0,0,1,.991,0l1.332,1.332a.7.7,0,0,1-.5,1.2Z" transform="translate(-76.827 -151.985)" fill="#6583fe"/>
            <path id="Path_12817" data-name="Path 12817" d="M394.495,78.507a.7.7,0,0,1-.5-.205l-.836-.836-.836.836a.7.7,0,0,1-.991-.991l1.332-1.332a.7.7,0,0,1,.991,0l1.332,1.332a.7.7,0,0,1-.5,1.2Z" transform="translate(-347.068 -75.773)" fill="#6583fe"/>
          </g>
        </g>
      </g>
      <g id="sports-car" transform="translate(-16972 -5414.934)">
        <path id="Path_13158" data-name="Path 13158" d="M75.731,19.087c-1.9-1.329-5.876-3.22-13.166-3.22H61.441L47.07,9.16A12.362,12.362,0,0,0,41.843,8h-12.5a7.873,7.873,0,0,0-3.1.636L13.267,14.2a6.738,6.738,0,0,1-2.656.545H9.747A2.248,2.248,0,0,0,7.5,16.99V24.1a2.248,2.248,0,0,0,1.845,2.212l10.516,1.912v1.124H74.927A2.247,2.247,0,0,0,77.174,27.1V21.855A3.376,3.376,0,0,0,75.731,19.087Zm0,0" transform="translate(-6.449 -6.949)" fill="#fff" opacity="0.996"/>
        <path id="Path_13159" data-name="Path 13159" d="M127.852,28.391l-3.3,1.5a1.384,1.384,0,0,0,.572,2.643h12.931V28.039H129.48A3.909,3.909,0,0,0,127.852,28.391Zm0,0" transform="translate(-106.395 -24.178)" fill="#064d7b"/>
        <path id="Path_13160" data-name="Path 13160" d="M76.115,93.779a2.314,2.314,0,0,1-2.045-1.316,7.862,7.862,0,0,0-14.021,0,2.314,2.314,0,0,1-2.045,1.316H35.594v-4.5H24.842a3.567,3.567,0,0,1-1.569-.327,7.717,7.717,0,0,0-6.827,0,3.571,3.571,0,0,1-1.573.328H7.5v3.743a2.243,2.243,0,0,0,.131.75.006.006,0,0,0,0,0,2.248,2.248,0,0,0,1.714,1.459L19.861,97.15l2.248,1.124H74.927a2.247,2.247,0,0,0,2.247-2.247V93.779Zm0,0" transform="translate(-6.449 -75.871)" fill="#fff"/>
        <path id="Path_13161" data-name="Path 13161" d="M180.335,96.176H175.84l2.7,3.6a2.247,2.247,0,0,0,1.8.9h4.5l-2.7-3.6A2.248,2.248,0,0,0,180.335,96.176Zm0,0" transform="translate(-151.189 -82.763)" fill="#6583fe"/>
        <path id="Path_13162" data-name="Path 13162" d="M403.512,109.811a5.619,5.619,0,1,1-5.619-5.619A5.619,5.619,0,0,1,403.512,109.811Zm0,0" transform="translate(-337.281 -89.655)" fill="#6583fe"/>
        <path id="Path_13163" data-name="Path 13163" d="M66.835,109.811a5.619,5.619,0,1,1-5.619-5.619A5.619,5.619,0,0,1,66.835,109.811Zm0,0" transform="translate(-47.803 -89.655)" fill="#6583fe"/>
        <path id="Path_13164" data-name="Path 13164" d="M165.985,15.206a3.373,3.373,0,0,0,2.56,1.177h24.3L178.47,9.677A12.343,12.343,0,0,0,174.656,8.6H160.324Zm0,0" transform="translate(-137.848 -7.466)" fill="#a4ccff"/>
        <path id="Path_13165" data-name="Path 13165" d="M178.47,9.677A12.343,12.343,0,0,0,174.656,8.6H160.324l2.817,3.287h20.067Zm0,0" transform="translate(-137.848 -7.466)" fill="#c3ddff"/>
        <path id="Path_13166" data-name="Path 13166" d="M69.891,11.78C65.868,8.959,60.18,8.367,56.117,8.367h-.89L41.066,1.758A13.5,13.5,0,0,0,35.394.5h-12.5a8.876,8.876,0,0,0-3.513.721L6.4,6.782a5.655,5.655,0,0,1-2.242.461H3.3a3.3,3.3,0,0,0-3.3,3.3v7.138a3.3,3.3,0,0,0,2.669,3.238l4.161.809a6.667,6.667,0,0,0,12.377,2.228H54.818a6.664,6.664,0,0,0,11.588,0h2.073a3.3,3.3,0,0,0,3.3-3.3V15.407A4.434,4.434,0,0,0,69.891,11.78ZM40.177,3.664l10.077,4.7H35.249L30.308,2.6h5.086A11.381,11.381,0,0,1,40.177,3.664ZM27.539,2.6l4.941,5.764H30.7a2.317,2.317,0,0,1-1.762-.81L24.689,2.6ZM19.974,21.852a6.653,6.653,0,0,0-.024-2.529,1.051,1.051,0,1,0-2.061.418,4.568,4.568,0,1,1-4.476-3.653,4.534,4.534,0,0,1,1.832.382,1.051,1.051,0,0,0,.844-1.926,6.673,6.673,0,0,0-9.26,5.04L3.07,18.853A1.2,1.2,0,0,1,2.1,17.679V13.841H3.3a1.051,1.051,0,1,0,0-2.1H2.1v-1.2a1.2,1.2,0,0,1,1.2-1.2h.864a7.757,7.757,0,0,0,3.07-.63L20.209,3.154a6.79,6.79,0,0,1,1.765-.487l5.364,6.258A4.416,4.416,0,0,0,30.7,10.469h25.42c2.81,0,7.823.329,11.538,2.392h-.3a1.051,1.051,0,1,0,0,2.1h2.276a2.331,2.331,0,0,1,.043.442v1.95H66.406a6.664,6.664,0,0,0-11.588,0H52.746a1.051,1.051,0,1,0,0,2.1h1.3a6.585,6.585,0,0,0,0,2.392Zm40.638,3.371a4.567,4.567,0,1,1,4.568-4.567A4.573,4.573,0,0,1,60.612,25.223Zm7.867-3.371H67.173a6.585,6.585,0,0,0,0-2.392h2.5v1.2A1.2,1.2,0,0,1,68.479,21.852Zm0,0" transform="translate(0 -0.5)" fill="#2626bc"/>
        <path id="Path_13167" data-name="Path 13167" d="M192.99,93.171H178.906L176.524,90a3.316,3.316,0,0,0-2.64-1.32H169.39a1.052,1.052,0,0,0-.841,1.682l2.7,3.6a3.314,3.314,0,0,0,2.639,1.32h19.1a1.051,1.051,0,1,0,0-2.1Zm-19.1,0a1.2,1.2,0,0,1-.957-.479l-1.435-1.914h2.392a1.2,1.2,0,0,1,.957.479l1.435,1.914Zm0,0" transform="translate(-144.739 -76.314)" fill="#2626bc"/>
        <path id="Path_13168" data-name="Path 13168" d="M82.335,128.758a2.175,2.175,0,1,0,2.175,2.175A2.178,2.178,0,0,0,82.335,128.758Zm0,0" transform="translate(-68.922 -110.777)" fill="#2626bc"/>
        <path id="Path_13169" data-name="Path 13169" d="M419.015,128.758a2.175,2.175,0,1,0,2.175,2.175A2.178,2.178,0,0,0,419.015,128.758Zm0,0" transform="translate(-358.403 -110.777)" fill="#2626bc"/>
      </g>
    </g>
  </g>
</svg>
