<svg xmlns="http://www.w3.org/2000/svg" width="125.921" height="54.38" viewBox="0 0 125.921 54.38">
  <g id="Group_3155" data-name="Group 3155" transform="translate(-119.079 -69)">
    <text id="IVATT_ST_RAGE" data-name="IVATT
ST   RAGE" transform="translate(154 92)" fill="#ffd335" font-size="21" font-family="SegoeUI, Segoe UI"><tspan x="0" y="0">IVATT</tspan><tspan fill="#fff"><tspan x="0" y="26" xml:space="preserve">ST   RAGE</tspan></tspan></text>
    <path id="Icon_ionic-ios-lock" data-name="Icon ionic-ios-lock" d="M17.447,8.876H16.53V7.092a3.668,3.668,0,1,0-7.335-.05V8.876H8.278A1.533,1.533,0,0,0,6.75,10.4v7.335a1.533,1.533,0,0,0,1.528,1.528h9.168a1.533,1.533,0,0,0,1.528-1.528V10.4A1.533,1.533,0,0,0,17.447,8.876ZM13.4,13.643v2.628a.548.548,0,0,1-.508.55.535.535,0,0,1-.562-.535V13.643a1.222,1.222,0,1,1,1.07,0ZM15.46,8.876h-5.2V7.042a2.6,2.6,0,0,1,5.2,0Z" transform="translate(178.667 98.891)" fill="#fff"/>
    <text id="SELF" transform="matrix(0.588, -0.809, 0.809, 0.588, 130.405, 121.616)" fill="#fff" font-size="13" font-family="SegoeUI, Segoe UI"><tspan x="0" y="0">SELF</tspan></text>
  </g>
</svg>
