<svg xmlns="http://www.w3.org/2000/svg" width="73.453" height="71" viewBox="0 0 73.453 71">
  <g id="home" transform="translate(-15.984 -16)">
    <path id="Path_12491" data-name="Path 12491" d="M85.76,77.361q0-.078,0-.154a4.9,4.9,0,0,0-4.9-4.9V49.664l4.407-3.305a1.224,1.224,0,0,0-.012-1.968L74.745,36.707V23.345a1.224,1.224,0,0,0,1.224-1.224v-4.9A1.224,1.224,0,0,0,74.745,16H62.5a1.224,1.224,0,0,0-1.224,1.224v4.9A1.224,1.224,0,0,0,62.5,23.345v4.416l-9.071-6.629a1.224,1.224,0,0,0-1.444,0L20.161,44.391a1.224,1.224,0,0,0-.012,1.968l4.407,3.305V72.31a4.9,4.9,0,0,0-4.9,4.9q0,.077,0,.154A4.9,4.9,0,0,0,20.883,87H84.538a4.9,4.9,0,0,0,1.221-9.639ZM63.728,18.448h9.793V20.9H63.728Zm1.224,11.017V23.345H72.3V34.918l-7.461-5.452ZM52.711,23.637l29.77,21.755L79.63,47.53l-26.2-19.054a1.224,1.224,0,0,0-1.44,0L25.791,47.53l-2.85-2.138ZM18.435,82.1a2.451,2.451,0,0,1,2.412-2.448h0c.063.009.125.016.189.02a1.224,1.224,0,0,0,1.228-1.64,2.406,2.406,0,0,1-.159-.829,2.451,2.451,0,0,1,2.448-2.448v9.793H20.883A2.451,2.451,0,0,1,18.435,82.1Zm52.638,2.448H56.383V57.621h14.69Zm2.448,0V56.4A1.224,1.224,0,0,0,72.3,55.172H55.159A1.224,1.224,0,0,0,53.935,56.4V84.552H27V49.675l25.707-18.7,25.707,18.7V84.552Zm11.017,0H80.866V74.759a2.451,2.451,0,0,1,2.448,2.448,2.406,2.406,0,0,1-.159.83,1.224,1.224,0,0,0,1.228,1.64c.064,0,.126-.012.189-.02h0a2.448,2.448,0,0,1-.037,4.9Z" fill="#064d7b"/>
    <path id="Path_12492" data-name="Path 12492" d="M135.914,272h-14.69A1.224,1.224,0,0,0,120,273.224v17.138a1.224,1.224,0,0,0,1.224,1.224h14.69a1.224,1.224,0,0,0,1.224-1.224V273.224A1.224,1.224,0,0,0,135.914,272Zm-1.224,8.569h-4.9v-6.121h4.9Zm-7.345-6.121v6.121h-4.9v-6.121Zm-4.9,8.569h4.9v6.121h-4.9Zm7.345,6.121v-6.121h4.9v6.121Z" transform="translate(-88.1 -216.828)" fill="#064d7b"/>
    <circle id="Ellipse_104" data-name="Ellipse 104" cx="1.224" cy="1.224" r="1.224" transform="translate(58.456 70.524) rotate(-67.5)" fill="#064d7b"/>
  </g>
</svg>
