<svg xmlns="http://www.w3.org/2000/svg" width="154.811" height="56" viewBox="0 0 154.811 56">
  <g id="Group_3155" data-name="Group 3155" transform="translate(-122.189 -74)">
    <text id="IVATT_ST_RAGE" data-name="IVATT
ST   RAGE" transform="translate(158 96)" fill="#ffd335" font-size="23" font-family="ChunkFive-Regular, ChunkFive"><tspan x="0" y="0">IVATT</tspan><tspan fill="#fff"><tspan x="0" y="28" xml:space="preserve">ST   RAGE</tspan></tspan></text>
    <path id="Icon_ionic-ios-lock" data-name="Icon ionic-ios-lock" d="M18.046,9.184h-.968V7.3a3.873,3.873,0,1,0-7.746-.052V9.184H8.364A1.618,1.618,0,0,0,6.75,10.8v7.746a1.618,1.618,0,0,0,1.614,1.614h9.683a1.618,1.618,0,0,0,1.614-1.614V10.8A1.618,1.618,0,0,0,18.046,9.184ZM13.77,14.219v2.776a.579.579,0,0,1-.537.581.565.565,0,0,1-.593-.565V14.219a1.291,1.291,0,1,1,1.13,0Zm2.179-5.035H10.462V7.248a2.743,2.743,0,0,1,5.487,0Z" transform="translate(185.697 104.051)" fill="#fff"/>
    <text id="SELF" transform="translate(132 126.453) rotate(-49)" fill="#fff" font-size="14" font-family="ChunkFive-Regular, ChunkFive"><tspan x="0" y="0">SELF</tspan></text>
  </g>
</svg>
