<svg id="office-building" xmlns="http://www.w3.org/2000/svg" width="45.241" height="45.241" viewBox="0 0 45.241 45.241">
  <path id="Path_12493" data-name="Path 12493" d="M14.707,53.236H2.646A.646.646,0,0,1,2,52.59V19.6a.646.646,0,0,1,.646-.646h12.06a.646.646,0,0,1,.646.646V52.59A.646.646,0,0,1,14.707,53.236ZM3.293,51.943H14.06v-31.7H3.293Z" transform="translate(-2 -7.995)" fill="#3575ec"/>
  <path id="Path_12494" data-name="Path 12494" d="M64.046,58.408H51.985a.646.646,0,0,1-.646-.646V34.219a.646.646,0,0,1,.646-.646h12.06a.646.646,0,0,1,.646.646V57.762A.646.646,0,0,1,64.046,58.408ZM52.632,57.116H63.4V34.866H52.632Z" transform="translate(-19.452 -13.168)" fill="#3575ec"/>
  <path id="Path_12495" data-name="Path 12495" d="M41.134,47.241H21.307a.646.646,0,0,1-.646-.646V2.646A.646.646,0,0,1,21.307,2H41.134a.646.646,0,0,1,.646.646V46.594A.646.646,0,0,1,41.134,47.241ZM21.954,45.948H40.488V3.293H21.954Z" transform="translate(-8.601 -2)" fill="#3575ec"/>
  <path id="Path_12496" data-name="Path 12496" d="M38.913,62.93H28.9a.646.646,0,0,1-.646-.646V47a.646.646,0,0,1,.646-.646H38.913a.646.646,0,0,1,.646.646v15.28A.646.646,0,0,1,38.913,62.93Zm-9.371-1.293h8.725V47.65H29.542Z" transform="translate(-11.284 -17.689)" fill="#3575ec"/>
  <path id="Path_12497" data-name="Path 12497" d="M12.905,33.611H8.81a.646.646,0,0,1-.646-.646V28.871a.646.646,0,0,1,.646-.646h4.095a.646.646,0,0,1,.646.646v4.094A.646.646,0,0,1,12.905,33.611ZM9.459,32.319h2.8v-2.8h-2.8Z" transform="translate(-4.18 -11.276)" fill="#3575ec"/>
  <path id="Path_12498" data-name="Path 12498" d="M12.905,46.695H8.81a.646.646,0,0,1-.646-.646V41.955a.646.646,0,0,1,.646-.646h4.095a.646.646,0,0,1,.646.646v4.093A.646.646,0,0,1,12.905,46.695ZM9.459,45.4h2.8V42.6h-2.8Z" transform="translate(-4.18 -15.904)" fill="#3575ec"/>
  <path id="Path_12499" data-name="Path 12499" d="M12.905,59.778H8.81a.646.646,0,0,1-.646-.646V55.038a.646.646,0,0,1,.646-.646h4.095a.646.646,0,0,1,.646.646v4.093A.646.646,0,0,1,12.905,59.778ZM9.459,58.485h2.8v-2.8h-2.8Z" transform="translate(-4.18 -20.531)" fill="#3575ec"/>
  <path id="Path_12500" data-name="Path 12500" d="M62.241,46.695H58.146a.646.646,0,0,1-.646-.646V41.955a.646.646,0,0,1,.646-.646h4.093a.646.646,0,0,1,.646.646v4.093a.646.646,0,0,1-.644.646ZM58.795,45.4h2.8V42.6h-2.8Z" transform="translate(-21.631 -15.904)" fill="#3575ec"/>
  <path id="Path_12501" data-name="Path 12501" d="M62.241,59.778H58.146a.646.646,0,0,1-.646-.646V55.038a.646.646,0,0,1,.646-.646h4.093a.646.646,0,0,1,.646.646v4.093a.646.646,0,0,1-.644.646Zm-3.447-1.293h2.8v-2.8h-2.8Z" transform="translate(-21.631 -20.531)" fill="#3575ec"/>
  <path id="Path_12502" data-name="Path 12502" d="M31.006,13.024H26.911a.646.646,0,0,1-.646-.646V8.284a.646.646,0,0,1,.646-.646h4.094a.646.646,0,0,1,.646.646v4.093A.646.646,0,0,1,31.006,13.024Zm-3.447-1.293h2.8v-2.8h-2.8Z" transform="translate(-10.583 -3.994)" fill="#3575ec"/>
  <path id="Path_12503" data-name="Path 12503" d="M31.006,26.107H26.911a.646.646,0,0,1-.646-.646V21.367a.646.646,0,0,1,.646-.646h4.094a.646.646,0,0,1,.646.646v4.094A.646.646,0,0,1,31.006,26.107Zm-3.447-1.293h2.8v-2.8h-2.8Z" transform="translate(-10.583 -8.622)" fill="#3575ec"/>
  <path id="Path_12504" data-name="Path 12504" d="M31.006,39.191H26.911a.646.646,0,0,1-.646-.646V34.451a.646.646,0,0,1,.646-.646h4.094a.646.646,0,0,1,.646.646v4.093A.646.646,0,0,1,31.006,39.191ZM27.559,37.9h2.8V35.1h-2.8Z" transform="translate(-10.583 -13.25)" fill="#3575ec"/>
  <path id="Path_12505" data-name="Path 12505" d="M44.141,13.024H40.046a.646.646,0,0,1-.646-.646V8.284a.646.646,0,0,1,.646-.646h4.093a.646.646,0,0,1,.646.646v4.093A.646.646,0,0,1,44.141,13.024Zm-3.447-1.293h2.8v-2.8h-2.8Z" transform="translate(-15.229 -3.994)" fill="#3575ec"/>
  <path id="Path_12506" data-name="Path 12506" d="M44.141,26.107H40.046a.646.646,0,0,1-.646-.646V21.367a.646.646,0,0,1,.646-.646h4.093a.646.646,0,0,1,.646.646v4.094A.646.646,0,0,1,44.141,26.107Zm-3.447-1.293h2.8v-2.8h-2.8Z" transform="translate(-15.229 -8.622)" fill="#3575ec"/>
  <path id="Path_12507" data-name="Path 12507" d="M44.141,39.191H40.046a.646.646,0,0,1-.646-.646V34.451a.646.646,0,0,1,.646-.646h4.093a.646.646,0,0,1,.646.646v4.093A.646.646,0,0,1,44.141,39.191ZM40.694,37.9h2.8V35.1h-2.8Z" transform="translate(-15.229 -13.25)" fill="#3575ec"/>
</svg>
