<svg xmlns="http://www.w3.org/2000/svg" width="70" height="70" viewBox="0 0 70 70">
  <g id="office-building" transform="translate(-2 -2)">
    <path id="Path_12493" data-name="Path 12493" d="M21.661,72H3a1,1,0,0,1-1-1V19.95a1,1,0,0,1,1-1H21.661a1,1,0,0,1,1,1V71A1,1,0,0,1,21.661,72ZM4,70H20.661V20.95H4Z" fill="#064d7b"/>
    <path id="Path_12494" data-name="Path 12494" d="M71,72H52.339a1,1,0,0,1-1-1V34.573a1,1,0,0,1,1-1H71a1,1,0,0,1,1,1V71A1,1,0,0,1,71,72ZM53.339,70H70V35.573H53.339Z" fill="#064d7b"/>
    <path id="Path_12495" data-name="Path 12495" d="M52.339,72H21.661a1,1,0,0,1-1-1V3a1,1,0,0,1,1-1H52.339a1,1,0,0,1,1,1V71A1,1,0,0,1,52.339,72ZM22.661,70H51.339V4H22.661Z" fill="#064d7b"/>
    <path id="Path_12496" data-name="Path 12496" d="M44.749,72h-15.5a1,1,0,0,1-1-1V47.357a1,1,0,0,1,1-1h15.5a1,1,0,0,1,1,1V71A1,1,0,0,1,44.749,72Zm-14.5-2h13.5V48.357h-13.5Z" fill="#064d7b"/>
    <path id="Path_12497" data-name="Path 12497" d="M15.5,36.559H9.164a1,1,0,0,1-1-1V29.225a1,1,0,0,1,1-1H15.5a1,1,0,0,1,1,1v6.334A1,1,0,0,1,15.5,36.559Zm-5.333-2H14.5V30.225H10.164Z" fill="#064d7b"/>
    <path id="Path_12498" data-name="Path 12498" d="M15.5,49.642H9.164a1,1,0,0,1-1-1V42.309a1,1,0,0,1,1-1H15.5a1,1,0,0,1,1,1v6.333A1,1,0,0,1,15.5,49.642Zm-5.333-2H14.5V43.309H10.164Z" fill="#064d7b"/>
    <path id="Path_12499" data-name="Path 12499" d="M15.5,62.725H9.164a1,1,0,0,1-1-1V55.392a1,1,0,0,1,1-1H15.5a1,1,0,0,1,1,1v6.333A1,1,0,0,1,15.5,62.725Zm-5.333-2H14.5V56.392H10.164Z" fill="#064d7b"/>
    <path id="Path_12500" data-name="Path 12500" d="M64.836,49.642H58.5a1,1,0,0,1-1-1V42.309a1,1,0,0,1,1-1h6.333a1,1,0,0,1,1,1v6.333a1,1,0,0,1-1,1Zm-5.333-2h4.333V43.309H59.5Z" fill="#064d7b"/>
    <path id="Path_12501" data-name="Path 12501" d="M64.836,62.725H58.5a1,1,0,0,1-1-1V55.392a1,1,0,0,1,1-1h6.333a1,1,0,0,1,1,1v6.333a1,1,0,0,1-1,1Zm-5.333-2h4.333V56.392H59.5Z" fill="#064d7b"/>
    <path id="Path_12502" data-name="Path 12502" d="M33.6,15.971H27.265a1,1,0,0,1-1-1V8.638a1,1,0,0,1,1-1H33.6a1,1,0,0,1,1,1v6.333A1,1,0,0,1,33.6,15.971Zm-5.333-2H32.6V9.638H28.265Z" fill="#064d7b"/>
    <path id="Path_12503" data-name="Path 12503" d="M33.6,29.055H27.265a1,1,0,0,1-1-1V21.721a1,1,0,0,1,1-1H33.6a1,1,0,0,1,1,1v6.334A1,1,0,0,1,33.6,29.055Zm-5.333-2H32.6V22.721H28.265Z" fill="#064d7b"/>
    <path id="Path_12504" data-name="Path 12504" d="M33.6,42.138H27.265a1,1,0,0,1-1-1V34.805a1,1,0,0,1,1-1H33.6a1,1,0,0,1,1,1v6.333A1,1,0,0,1,33.6,42.138Zm-5.333-2H32.6V35.805H28.265Z" fill="#064d7b"/>
    <path id="Path_12505" data-name="Path 12505" d="M46.735,15.971H40.4a1,1,0,0,1-1-1V8.638a1,1,0,0,1,1-1h6.333a1,1,0,0,1,1,1v6.333a1,1,0,0,1-1,1Zm-5.333-2h4.333V9.638H41.4Z" fill="#064d7b"/>
    <path id="Path_12506" data-name="Path 12506" d="M46.735,29.055H40.4a1,1,0,0,1-1-1V21.721a1,1,0,0,1,1-1h6.333a1,1,0,0,1,1,1v6.334a1,1,0,0,1-1,1Zm-5.333-2h4.333V22.721H41.4Z" fill="#064d7b"/>
    <path id="Path_12507" data-name="Path 12507" d="M46.735,42.138H40.4a1,1,0,0,1-1-1V34.805a1,1,0,0,1,1-1h6.333a1,1,0,0,1,1,1v6.333a1,1,0,0,1-1,1Zm-5.333-2h4.333V35.805H41.4Z" fill="#064d7b"/>
  </g>
</svg>
