<svg xmlns="http://www.w3.org/2000/svg" xmlns:xlink="http://www.w3.org/1999/xlink" width="98.565" height="79.151" viewBox="0 0 98.565 79.151">
  <defs>
    <linearGradient id="linear-gradient" x1="0.468" y1="0.119" x2="0.643" y2="1.253" gradientUnits="objectBoundingBox">
      <stop offset="0" stop-color="#ffd300"/>
      <stop offset="1" stop-color="#fff"/>
    </linearGradient>
  </defs>
  <g id="Group_3770" data-name="Group 3770" transform="translate(-1260.702 -2639)">
    <path id="Path_13626" data-name="Path 13626" d="M90.764,57.285C78.171,47.6,65.956,55.493,52.331,52.7c-13.723-2.81-19.19-12.167-34.821-7.848C3.665,48.682-4.736,64.02,2.875,76.862c2.169,3.659,5.864,6.42,7.374,10.515,2.436,6.605-1.272,11.676-.549,18.168,3.005,26.971,44.2,16.524,59.352,8.133C92.822,100.517,108.9,71.229,90.764,57.285Z" transform="translate(1260.702 2595.266)" fill="url(#linear-gradient)"/>
    <g id="open" transform="translate(1253.984 2624.451)">
      <g id="Group_3499" data-name="Group 3499" transform="translate(14.337 14.549)">
        <path id="Path_13244" data-name="Path 13244" d="M147.833,99.378l19.46-25.755V66.348l-24.957,33.03Z" transform="translate(-125.462 -66.348)" fill="#6583fe"/>
        <path id="Path_13245" data-name="Path 13245" d="M248.042,72.039l1.777,1.583,19.46,25.755h5.5l-24.957-33.03Z" transform="translate(-207.988 -66.348)" fill="#6583fe"/>
        <g id="Group_3488" data-name="Group 3488" transform="translate(37.258 0)">
          <path id="Path_13246" data-name="Path 13246" d="M242.3,70.856l-2.5,4.508a4.508,4.508,0,1,1,0-9.015Z" transform="translate(-235.295 -66.348)" fill="#2626bc"/>
          <path id="Path_13247" data-name="Path 13247" d="M260.359,70.856a4.508,4.508,0,0,1-4.508,4.508V66.348A4.508,4.508,0,0,1,260.359,70.856Z" transform="translate(-251.343 -66.348)" fill="#2626bc"/>
        </g>
        <g id="Group_3489" data-name="Group 3489" transform="translate(0 30.49)">
          <g id="Path_13249" data-name="Path 13249" transform="translate(-256.183 -205.393)" fill="#6583fe" stroke-linecap="round" stroke-linejoin="round">
            <path d="M 341.2807312011719 244.4379730224609 L 339.7807312011719 244.4379730224609 L 255.8500061035156 244.4379730224609 L 254.3500061035156 244.4379730224609 L 254.3500061035156 242.9379730224609 L 254.3500061035156 205.3930053710938 L 254.3500061035156 203.8930053710938 L 255.8500061035156 203.8930053710938 L 339.7807312011719 203.8930053710938 L 341.2807312011719 203.8930053710938 L 341.2807312011719 205.3930053710938 L 341.2807312011719 242.9379730224609 L 341.2807312011719 244.4379730224609 Z" stroke="none"/>
            <path d="M 255.8500061035156 205.3930053710938 L 255.8500061035156 242.9379730224609 L 339.7807312011719 242.9379730224609 L 339.7807312011719 205.3930053710938 L 255.8500061035156 205.3930053710938 M 255.8500061035156 202.3930053710938 L 339.7807312011719 202.3930053710938 C 341.4375610351562 202.3930053710938 342.7807312011719 203.7361450195312 342.7807312011719 205.3930053710938 L 342.7807312011719 242.9379730224609 C 342.7807312011719 244.5948333740234 341.4375610351562 245.9379730224609 339.7807312011719 245.9379730224609 L 255.8500061035156 245.9379730224609 C 254.1931457519531 245.9379730224609 252.8500061035156 244.5948333740234 252.8500061035156 242.9379730224609 L 252.8500061035156 205.3930053710938 C 252.8500061035156 203.7361450195312 254.1931457519531 202.3930053710938 255.8500061035156 202.3930053710938 Z" stroke="none" fill="#2626bc"/>
          </g>
        </g>
        <g id="Group_3491" data-name="Group 3491" transform="translate(63.26 38.83)">
          <g id="Group_3490" data-name="Group 3490">
            <path id="Path_13250" data-name="Path 13250" d="M356.792,264.731h-2.921V243.462h3.074l9.889,15.739V243.428h2.921v21.02h-3.074l-9.889-15.739Z" transform="translate(-353.871 -243.428)" fill="#2626bc"/>
          </g>
        </g>
        <g id="Group_3494" data-name="Group 3494" transform="translate(46.471 38.998)">
          <g id="Group_3492" data-name="Group 3492">
            <path id="Path_13251" data-name="Path 13251" d="M287.906,265.328h-10.6V244.193h10.6v2.921h-7.675v15.293h7.675Z" transform="translate(-277.31 -244.193)" fill="#2626bc"/>
          </g>
          <g id="Group_3493" data-name="Group 3493" transform="translate(0 9.107)">
            <path id="Path_13252" data-name="Path 13252" d="M277.31,285.725h10.03v2.921H277.31Z" transform="translate(-277.31 -285.725)" fill="#2626bc"/>
          </g>
        </g>
        <g id="Group_3497" data-name="Group 3497" transform="translate(27.783 38.83)">
          <g id="Group_3495" data-name="Group 3495" transform="translate(0)">
            <path id="Path_13253" data-name="Path 13253" d="M192.085,243.428h2.921v21.3h-2.921Z" transform="translate(-192.085 -243.428)" fill="#2626bc"/>
          </g>
          <g id="Group_3496" data-name="Group 3496" transform="translate(0 0)">
            <path id="Path_13254" data-name="Path 13254" d="M193.581,256.748a1.461,1.461,0,0,1-1.461-1.452c0-.038-.023-3.787-.023-5.219,0-1.185-.013-5.183-.013-5.183a1.461,1.461,0,0,1,1.461-1.465h5.118a6.649,6.649,0,1,1,0,13.3c-1.4,0-5.037.023-5.074.023Zm1.429-10.4c0,1.269.008,3.011.008,3.727,0,.848.008,2.521.014,3.741,1.188-.007,2.8-.014,3.63-.014a3.728,3.728,0,1,0,0-7.454Z" transform="translate(-192.085 -243.429)" fill="#2626bc"/>
          </g>
        </g>
        <g id="Group_3498" data-name="Group 3498" transform="translate(2.698 38.83)">
          <path id="Path_13255" data-name="Path 13255" d="M88.339,264.73A10.652,10.652,0,1,1,98.99,254.079,10.664,10.664,0,0,1,88.339,264.73Zm0-18.382a7.73,7.73,0,1,0,7.73,7.73A7.739,7.739,0,0,0,88.339,246.348Z" transform="translate(-77.687 -243.427)" fill="#2626bc"/>
        </g>
      </g>
    </g>
  </g>
</svg>
