<svg xmlns="http://www.w3.org/2000/svg" width="20.667" height="20.144" viewBox="0 0 20.667 20.144">
  <path id="Icon_awesome-arrow-right" data-name="Icon awesome-arrow-right" d="M8.787,1.349,9.811.325a1.1,1.1,0,0,1,1.564,0l8.967,8.963a1.1,1.1,0,0,1,0,1.564l-8.967,8.967a1.1,1.1,0,0,1-1.564,0L8.787,18.795a1.108,1.108,0,0,1,.018-1.582l5.558-5.3H1.107A1.1,1.1,0,0,1,0,10.81V9.334A1.1,1.1,0,0,1,1.107,8.227H14.364l-5.558-5.3A1.1,1.1,0,0,1,8.787,1.349Z" transform="translate(20.667 20.144) rotate(180)" fill="#064d7b"/>
</svg>
