<svg xmlns="http://www.w3.org/2000/svg" xmlns:xlink="http://www.w3.org/1999/xlink" width="98.566" height="79.151" viewBox="0 0 98.566 79.151">
  <defs>
    <linearGradient id="linear-gradient" x1="0.468" y1="0.119" x2="0.437" y2="1.054" gradientUnits="objectBoundingBox">
      <stop offset="0" stop-color="#ffd300"/>
      <stop offset="0.685" stop-color="#f9edbd"/>
      <stop offset="0.906" stop-color="#f9efc9"/>
      <stop offset="0.995" stop-color="#f8f2dd"/>
      <stop offset="1" stop-color="#fff"/>
    </linearGradient>
  </defs>
  <g id="Group_3765" data-name="Group 3765" transform="translate(-341.968 -2639)">
    <g id="Group_3763" data-name="Group 3763" transform="translate(-579.354 -338)">
      <path id="Path_13625" data-name="Path 13625" d="M90.764,57.285C78.171,47.6,65.956,55.493,52.331,52.7c-13.723-2.81-19.19-12.167-34.821-7.848C3.665,48.682-4.736,64.02,2.875,76.862c2.169,3.659,5.864,6.42,7.374,10.515,2.436,6.605-1.272,11.676-.549,18.168,3.005,26.971,44.2,16.524,59.352,8.133C92.822,100.517,108.9,71.229,90.764,57.285Z" transform="translate(1019.888 3099.886) rotate(180)" fill="url(#linear-gradient)"/>
      <g id="location-3" transform="translate(936.443 2976.885)">
        <path id="Path_13183" data-name="Path 13183" d="M56.867,84.289H41.789a91.465,91.465,0,0,1-6.636,9.186,91.462,91.462,0,0,1-6.636-9.186H13.44l-7.134,18.7H64Z" transform="translate(-0.875 -39.866)" fill="#dfeef4"/>
        <path id="Path_13184" data-name="Path 13184" d="M48.645,6.31A15.355,15.355,0,0,0,33.29,21.665C33.2,36.315,48.645,54.485,48.645,54.485S64.09,36.315,64,21.665A15.355,15.355,0,0,0,48.645,6.31Zm0,21.87a6.515,6.515,0,1,1,6.515-6.515,6.515,6.515,0,0,1-6.515,6.515Z" transform="translate(-14.366 -0.876)" fill="#f45858"/>
        <path id="Path_13185" data-name="Path 13185" d="M70.73,88.625,41.94,98.865,30.72,84.29H40.725a91.376,91.376,0,0,0,6.635,9.185A91.377,91.377,0,0,0,54,84.29h15.08Z" transform="translate(-13.082 -39.866)" fill="#f2da30"/>
        <path id="Path_13186" data-name="Path 13186" d="M29.96,111.557l28.5-10.137,7.8,10.137Z" transform="translate(-12.702 -48.431)" fill="#3ea2e5"/>
        <g id="Group_3453" data-name="Group 3453" transform="translate(4.556 4.557)">
          <path id="Path_13187" data-name="Path 13187" d="M87.142,18.6a.875.875,0,1,0,1.494-.912,16.331,16.331,0,0,0-1.55-2.128A.875.875,0,1,0,85.758,16.7a14.632,14.632,0,0,1,1.384,1.9Z" transform="translate(-45.052 -9.907)" fill="#2626bc"/>
          <path id="Path_13188" data-name="Path 13188" d="M49.223,29.632a7.389,7.389,0,1,0,7.389-7.39,7.388,7.388,0,0,0-7.389,7.39Zm13.027,0a5.639,5.639,0,1,1-5.639-5.64,5.638,5.638,0,0,1,5.639,5.64Z" transform="translate(-26.89 -13.4)" fill="#2626bc"/>
          <path id="Path_13189" data-name="Path 13189" d="M10.574,105.253a.873.873,0,0,0,1.13-.505l.8-2.1a.875.875,0,0,0-1.635-.624l-.8,2.1a.874.874,0,0,0,.505,1.129Z" transform="translate(-7.284 -53.018)" fill="#2626bc"/>
          <path id="Path_13190" data-name="Path 13190" d="M63.942,62.813l-7.133-18.7a.876.876,0,0,0-.818-.563h-13.5c.083-.134.165-.265.247-.4,5.195-8.6,7.809-16.123,7.771-22.357a16.232,16.232,0,0,0-.686-4.681.875.875,0,1,0-1.676.5A14.487,14.487,0,0,1,48.76,20.8c.076,12.425-11.545,27.755-14.482,31.431-2.937-3.675-14.558-19-14.482-31.44A14.484,14.484,0,0,1,42.6,8.935.875.875,0,0,0,43.606,7.5a16.235,16.235,0,0,0-25.56,13.281c-.038,6.24,2.577,13.764,7.771,22.363.083.136.164.267.247.4h-13.5a.875.875,0,0,0-.818.563L9.7,49.49a.875.875,0,1,0,1.635.624L13.169,45.3h4.04l10.22,13.283L17.107,62.25H6.7l.809-2.123A.875.875,0,1,0,5.876,59.5l-1.261,3.31A.874.874,0,0,0,5.432,64H63.125a.874.874,0,0,0,.818-1.187ZM19.416,45.3h7.745a92.862,92.862,0,0,0,6.45,8.88.875.875,0,0,0,1.333,0,92.86,92.86,0,0,0,6.45-8.88H55.387l1.12,2.938L29.163,57.962Zm9.717,14.531h0l16.314-5.8,6.328,8.222H22.328Zm24.857,2.42-6.8-8.84,9.95-3.539,4.722,12.38Z" transform="translate(-4.556 -4.557)" fill="#2626bc"/>
        </g>
      </g>
    </g>
    <path id="Path_13625-2" data-name="Path 13625" d="M90.764,57.285C78.171,47.6,65.956,55.493,52.331,52.7c-13.723-2.81-19.19-12.167-34.821-7.848C3.665,48.682-4.736,64.02,2.875,76.862c2.169,3.659,5.864,6.42,7.374,10.515,2.436,6.605-1.272,11.676-.549,18.168,3.005,26.971,44.2,16.524,59.352,8.133C92.822,100.517,108.9,71.229,90.764,57.285Z" transform="translate(440.533 2761.886) rotate(180)" fill="url(#linear-gradient)"/>
    <g id="location-3-2" data-name="location-3" transform="translate(357.089 2638.885)">
      <path id="Path_13183-2" data-name="Path 13183" d="M56.867,84.289H41.789a91.465,91.465,0,0,1-6.636,9.186,91.462,91.462,0,0,1-6.636-9.186H13.44l-7.134,18.7H64Z" transform="translate(-0.875 -39.866)" fill="#dfeef4"/>
      <path id="Path_13184-2" data-name="Path 13184" d="M48.645,6.31A15.355,15.355,0,0,0,33.29,21.665C33.2,36.315,48.645,54.485,48.645,54.485S64.09,36.315,64,21.665A15.355,15.355,0,0,0,48.645,6.31Zm0,21.87a6.515,6.515,0,1,1,6.515-6.515,6.515,6.515,0,0,1-6.515,6.515Z" transform="translate(-14.366 -0.876)" fill="#6583fe"/>
      <path id="Path_13185-2" data-name="Path 13185" d="M70.73,88.625,41.94,98.865,30.72,84.29H40.725a91.376,91.376,0,0,0,6.635,9.185A91.377,91.377,0,0,0,54,84.29h15.08Z" transform="translate(-13.082 -39.866)" fill="#f2da30"/>
      <path id="Path_13186-2" data-name="Path 13186" d="M29.96,111.557l28.5-10.137,7.8,10.137Z" transform="translate(-12.702 -48.431)" fill="#6583fe"/>
      <g id="Group_3453-2" data-name="Group 3453" transform="translate(4.556 4.557)">
        <path id="Path_13187-2" data-name="Path 13187" d="M87.142,18.6a.875.875,0,1,0,1.494-.912,16.331,16.331,0,0,0-1.55-2.128A.875.875,0,1,0,85.758,16.7a14.632,14.632,0,0,1,1.384,1.9Z" transform="translate(-45.052 -9.907)" fill="#2626bc"/>
        <path id="Path_13188-2" data-name="Path 13188" d="M49.223,29.632a7.389,7.389,0,1,0,7.389-7.39,7.388,7.388,0,0,0-7.389,7.39Zm13.027,0a5.639,5.639,0,1,1-5.639-5.64,5.638,5.638,0,0,1,5.639,5.64Z" transform="translate(-26.89 -13.4)" fill="#2626bc"/>
        <path id="Path_13189-2" data-name="Path 13189" d="M10.574,105.253a.873.873,0,0,0,1.13-.505l.8-2.1a.875.875,0,0,0-1.635-.624l-.8,2.1a.874.874,0,0,0,.505,1.129Z" transform="translate(-7.284 -53.018)" fill="#2626bc"/>
        <path id="Path_13190-2" data-name="Path 13190" d="M63.942,62.813l-7.133-18.7a.876.876,0,0,0-.818-.563h-13.5c.083-.134.165-.265.247-.4,5.195-8.6,7.809-16.123,7.771-22.357a16.232,16.232,0,0,0-.686-4.681.875.875,0,1,0-1.676.5A14.487,14.487,0,0,1,48.76,20.8c.076,12.425-11.545,27.755-14.482,31.431-2.937-3.675-14.558-19-14.482-31.44A14.484,14.484,0,0,1,42.6,8.935.875.875,0,0,0,43.606,7.5a16.235,16.235,0,0,0-25.56,13.281c-.038,6.24,2.577,13.764,7.771,22.363.083.136.164.267.247.4h-13.5a.875.875,0,0,0-.818.563L9.7,49.49a.875.875,0,1,0,1.635.624L13.169,45.3h4.04l10.22,13.283L17.107,62.25H6.7l.809-2.123A.875.875,0,1,0,5.876,59.5l-1.261,3.31A.874.874,0,0,0,5.432,64H63.125a.874.874,0,0,0,.818-1.187ZM19.416,45.3h7.745a92.862,92.862,0,0,0,6.45,8.88.875.875,0,0,0,1.333,0,92.86,92.86,0,0,0,6.45-8.88H55.387l1.12,2.938L29.163,57.962Zm9.717,14.531h0l16.314-5.8,6.328,8.222H22.328Zm24.857,2.42-6.8-8.84,9.95-3.539,4.722,12.38Z" transform="translate(-4.556 -4.557)" fill="#2626bc"/>
      </g>
    </g>
  </g>
</svg>
