<svg xmlns="http://www.w3.org/2000/svg" xmlns:xlink="http://www.w3.org/1999/xlink" width="71.853" height="79.765" viewBox="0 0 71.853 79.765">
  <defs>
    <linearGradient id="linear-gradient" x1="0.5" x2="0.5" y2="1" gradientUnits="objectBoundingBox">
      <stop offset="0" stop-color="#ffd300"/>
      <stop offset="1" stop-color="#fff"/>
    </linearGradient>
  </defs>
  <g id="Group_3764" data-name="Group 3764" transform="translate(-182.074 -2638)">
    <path id="Path_13223" data-name="Path 13223" d="M59.86,8.186C44,8.482,32.953.469,25.311.613S1.7,5.45,2.355,40.612,24.7,80.528,33.111,80.372C72.475,79.636,87.951,7.661,59.86,8.186Z" transform="translate(179.738 2637.389)" fill="url(#linear-gradient)"/>
    <path id="Path_13224" data-name="Path 13224" d="M45.139,6.75h-25.8a4.586,4.586,0,0,0-4.587,4.587V46.886a4.586,4.586,0,0,0,4.587,4.587h25.8Z" transform="translate(195.797 2645.33)" fill="#f3f3f1"/>
    <path id="Path_13225" data-name="Path 13225" d="M19.91,46.886V11.337A4.586,4.586,0,0,1,24.5,6.75h-5.16a4.586,4.586,0,0,0-4.587,4.587V46.886a4.586,4.586,0,0,0,4.587,4.587H24.5A4.586,4.586,0,0,1,19.91,46.886Z" transform="translate(195.797 2645.33)" fill="#d5dbe1"/>
    <path id="Path_13226" data-name="Path 13226" d="M20.75,14.2V55.487a2.868,2.868,0,0,0,2.867,2.867,3.065,3.065,0,0,0,.917-.138L38.3,53.629A2.9,2.9,0,0,0,40.245,50.9V9.617A2.868,2.868,0,0,0,37.378,6.75a3.065,3.065,0,0,0-.917.138L22.7,11.475A2.9,2.9,0,0,0,20.75,14.2Z" transform="translate(203.558 2645.33)" fill="#6583fe"/>
    <path id="Path_13227" data-name="Path 13227" d="M25.91,54.914V13.631A2.9,2.9,0,0,1,27.86,10.9l11.011-3.67a2.765,2.765,0,0,0-1.493-.482,3.065,3.065,0,0,0-.917.138L22.7,11.475A2.9,2.9,0,0,0,20.75,14.2V55.487a2.868,2.868,0,0,0,2.867,2.867,3.065,3.065,0,0,0,.917-.138l2.75-.917A2.818,2.818,0,0,1,25.91,54.914Z" transform="translate(203.558 2645.33)" fill="#6583fe"/>
    <g id="Group_3481" data-name="Group 3481" transform="translate(200.579 2643.266)">
      <path id="Path_13228" data-name="Path 13228" d="M0,0H2.294V4.587H0Z" transform="translate(0.407 1.622) rotate(-45)" fill="#064d7b"/>
      <path id="Path_13229" data-name="Path 13229" d="M0,0H4.587V2.294H0Z" transform="translate(0 12.568) rotate(-45)" fill="#064d7b"/>
      <path id="Path_13230" data-name="Path 13230" d="M0,0H4.587V2.294H0Z" transform="translate(9.328 3.246) rotate(-45)" fill="#064d7b"/>
    </g>
    <path id="Path_13232" data-name="Path 13232" d="M6.75,15.75H28.538v3.44H6.75Z" transform="translate(185.448 2656.972)" fill="#2626bc"/>
    <path id="Path_13233" data-name="Path 13233" d="M14.4,31.854,11.97,29.423l7.385-7.385L11.97,14.652,14.4,12.219l8.6,8.6a1.721,1.721,0,0,1,0,2.433Z" transform="translate(192.2 2652.404)" fill="#2626bc"/>
    <path id="Path_13234" data-name="Path 13234" d="M24.587,61.04A4.592,4.592,0,0,1,20,56.453V15.17a4.613,4.613,0,0,1,3.105-4.353l13.782-4.6a4.623,4.623,0,0,1,6.048,4.362V51.866a4.617,4.617,0,0,1-3.1,4.353l-13.784,4.6A4.816,4.816,0,0,1,24.587,61.04Zm13.761-51.6a1.409,1.409,0,0,0-.415.06l-13.72,4.576a1.187,1.187,0,0,0-.773,1.1V56.453A1.2,1.2,0,0,0,25,57.54l13.72-4.576a1.187,1.187,0,0,0,.773-1.1V10.583A1.15,1.15,0,0,0,38.348,9.436Z" transform="translate(202.588 2644.364)" fill="#2626bc"/>
    <path id="Path_13235" data-name="Path 13235" d="M17.44,15.747H14v-3.44A6.312,6.312,0,0,1,20.307,6h25.8V9.44h-25.8a2.871,2.871,0,0,0-2.867,2.867Z" transform="translate(194.826 2644.359)" fill="#2626bc"/>
    <path id="Path_13236" data-name="Path 13236" d="M29.481,32.5H20.307A6.312,6.312,0,0,1,14,26.19V22.75h3.44v3.44a2.871,2.871,0,0,0,2.867,2.867h9.174Z" transform="translate(194.826 2666.026)" fill="#2626bc"/>
  </g>
</svg>
