<svg xmlns="http://www.w3.org/2000/svg" width="49.794" height="52.849" viewBox="0 0 49.794 52.849">
  <g id="box" transform="translate(0 0)">
    <path id="Path_12677" data-name="Path 12677" d="M38.948.171,15.283,11.6a.858.858,0,0,0-.485.773V40.48a.859.859,0,0,0,.485.773L38.948,52.678a1.717,1.717,0,0,0,1.493,0L64.107,41.254a.858.858,0,0,0,.485-.773V12.369a.859.859,0,0,0-.485-.773L40.441.171A1.718,1.718,0,0,0,38.948.171Z" transform="translate(-14.798 -0.001)" fill="#ffe17d"/>
    <path id="Path_12678" data-name="Path 12678" d="M14.941,115.273a.855.855,0,0,0-.143.47v28.112a.859.859,0,0,0,.485.773l23.665,11.424a1.716,1.716,0,0,0,.746.171v-29Z" transform="translate(-14.798 -103.375)" fill="#ffc350"/>
    <path id="Path_12679" data-name="Path 12679" d="M280.754,115.273a.855.855,0,0,1,.143.47v28.112a.859.859,0,0,1-.485.773l-23.665,11.424a1.716,1.716,0,0,1-.746.171v-29Z" transform="translate(-231.103 -103.375)" fill="#ffd164"/>
    <path id="Path_12680" data-name="Path 12680" d="M44.211,347.421a.857.857,0,0,1-.372-.085l-3.654-1.764a.858.858,0,0,1,.746-1.546l3.654,1.764a.858.858,0,0,1-.374,1.631Z" transform="translate(-37.129 -308.44)" fill="#ffe17d"/>
    <path id="Path_12681" data-name="Path 12681" d="M47.618,312.135a.856.856,0,0,1-.372-.085l-7.012-3.385a.858.858,0,1,1,.746-1.546l7.011,3.385a.858.858,0,0,1-.374,1.631Z" transform="translate(-37.174 -275.342)" fill="#fff6d8"/>
    <path id="Path_12682" data-name="Path 12682" d="M141.836,50.111,117,38.11l-6.548,3.174,24.9,12.019Z" transform="translate(-100.574 -34.177)" fill="#3575ec"/>
    <path id="Path_12683" data-name="Path 12683" d="M351.649,157.566v9.311a.429.429,0,0,0,.616.387l5.391-2.6a.858.858,0,0,0,.485-.773v-9.514Z" transform="translate(-316.879 -138.44)" fill="#3575ec"/>
  </g>
</svg>
