<svg xmlns="http://www.w3.org/2000/svg" xmlns:xlink="http://www.w3.org/1999/xlink" width="98.909" height="79.427" viewBox="0 0 98.909 79.427">
  <defs>
    <linearGradient id="linear-gradient" x1="0.468" y1="0.119" x2="0.643" y2="1.253" gradientUnits="objectBoundingBox">
      <stop offset="0" stop-color="#ffd300"/>
      <stop offset="1" stop-color="#fff"/>
    </linearGradient>
  </defs>
  <g id="Group_3767" data-name="Group 3767" transform="translate(-736.532 -2639)">
    <g id="_008-delivery-box-1" data-name="008-delivery-box-1" transform="translate(736.532 2599.755)">
      <path id="Path_13019" data-name="Path 13019" d="M91.081,57.332c-12.637-9.716-24.895-1.8-38.567-4.6-13.771-2.82-19.257-12.209-34.942-7.875C3.678,48.7-4.753,64.091,2.885,76.978c2.177,3.672,5.885,6.443,7.4,10.551,2.444,6.628-1.276,11.717-.551,18.231,3.016,27.065,44.35,16.582,59.559,8.161C93.145,100.715,109.282,71.325,91.081,57.332Z" transform="translate(0 -4.489)" fill="url(#linear-gradient)"/>
    </g>
    <g id="Group_3444" data-name="Group 3444" transform="translate(17716.531 8082.28)">
      <g id="sports-car" transform="translate(-16972 -5413.027)">
        <path id="Path_13158" data-name="Path 13158" d="M90.219,21.441c-2.3-1.611-7.124-3.9-15.961-3.9H72.9L55.473,9.406A14.987,14.987,0,0,0,49.135,8H33.981a9.545,9.545,0,0,0-3.757.771L14.492,15.513a8.169,8.169,0,0,1-3.22.661H10.225A2.725,2.725,0,0,0,7.5,18.9v8.625a2.726,2.726,0,0,0,2.237,2.681l12.749,2.318v1.362H89.244a2.725,2.725,0,0,0,2.725-2.725V24.8A4.093,4.093,0,0,0,90.219,21.441Zm0,0" transform="translate(-6.225 -6.725)" fill="#fff" opacity="0.996"/>
        <path id="Path_13159" data-name="Path 13159" d="M128.725,28.466l-4,1.818a1.677,1.677,0,0,0,.693,3.2H141.1V28.039H130.7A4.739,4.739,0,0,0,128.725,28.466Zm0,0" transform="translate(-102.711 -23.359)" fill="#064d7b"/>
        <path id="Path_13160" data-name="Path 13160" d="M90.685,94.972a2.806,2.806,0,0,1-2.479-1.6,9.532,9.532,0,0,0-17,0,2.8,2.8,0,0,1-2.479,1.6H41.56v-5.45H28.524a4.325,4.325,0,0,1-1.9-.4,9.355,9.355,0,0,0-8.276,0,4.329,4.329,0,0,1-1.907.4H7.5V94.06a2.719,2.719,0,0,0,.159.909.007.007,0,0,0,0,0,2.725,2.725,0,0,0,2.078,1.769l12.749,2.318,2.725,1.362H89.244A2.725,2.725,0,0,0,91.969,97.7V94.972Zm0,0" transform="translate(-6.225 -73.262)" fill="#fff"/>
        <path id="Path_13161" data-name="Path 13161" d="M181.289,96.176H175.84l3.27,4.36a2.724,2.724,0,0,0,2.18,1.09h5.45l-3.27-4.36A2.725,2.725,0,0,0,181.289,96.176Zm0,0" transform="translate(-145.954 -79.915)" fill="#6583fe"/>
        <path id="Path_13162" data-name="Path 13162" d="M405.9,111a6.812,6.812,0,1,1-6.812-6.812A6.812,6.812,0,0,1,405.9,111Zm0,0" transform="translate(-325.604 -86.568)" fill="#6583fe"/>
        <path id="Path_13163" data-name="Path 13163" d="M69.221,111a6.812,6.812,0,1,1-6.812-6.812A6.812,6.812,0,0,1,69.221,111Zm0,0" transform="translate(-46.148 -86.568)" fill="#6583fe"/>
        <path id="Path_13164" data-name="Path 13164" d="M167.187,16.609a4.089,4.089,0,0,0,3.1,1.427h29.455L182.322,9.905A14.964,14.964,0,0,0,177.7,8.6H160.324Zm0,0" transform="translate(-133.076 -7.225)" fill="#a4ccff"/>
        <path id="Path_13165" data-name="Path 13165" d="M182.322,9.905A14.964,14.964,0,0,0,177.7,8.6H160.324l3.415,3.985h24.329Zm0,0" transform="translate(-133.076 -7.225)" fill="#c3ddff"/>
        <path id="Path_13166" data-name="Path 13166" d="M84.731,14.176c-4.877-3.421-11.773-4.139-16.7-4.139H66.953L49.786,2.026A16.361,16.361,0,0,0,42.91.5H27.756a10.76,10.76,0,0,0-4.259.874L7.764,8.116a6.856,6.856,0,0,1-2.718.558H4a4,4,0,0,0-4,4v8.653a4.006,4.006,0,0,0,3.236,3.926l5.044.981a8.083,8.083,0,0,0,15,2.7H66.458a8.079,8.079,0,0,0,14.048,0h2.513a4,4,0,0,0,4-4V18.572A5.376,5.376,0,0,0,84.731,14.176ZM48.708,4.336l12.217,5.7H42.733l-5.99-6.988h6.166A13.8,13.8,0,0,1,48.708,4.336ZM33.386,3.049l5.99,6.988H37.215a2.809,2.809,0,0,1-2.136-.983l-5.147-6ZM24.215,26.385a8.066,8.066,0,0,0-.029-3.066,1.275,1.275,0,1,0-2.5.507A5.538,5.538,0,1,1,16.261,19.4a5.5,5.5,0,0,1,2.221.463,1.275,1.275,0,0,0,1.024-2.335A8.09,8.09,0,0,0,8.28,23.637l-4.558-.886a1.453,1.453,0,0,1-1.174-1.423V16.673H4a1.275,1.275,0,1,0,0-2.549H2.549v-1.45A1.451,1.451,0,0,1,4,11.224H5.046a9.4,9.4,0,0,0,3.722-.764L24.5,3.717a8.232,8.232,0,0,1,2.14-.591l6.5,7.587a5.354,5.354,0,0,0,4.071,1.873H68.032c3.406,0,9.484.4,13.988,2.9h-.363a1.275,1.275,0,1,0,0,2.549h2.76a2.827,2.827,0,0,1,.052.536v2.364H80.506a8.079,8.079,0,0,0-14.048,0H63.946a1.275,1.275,0,1,0,0,2.549h1.582a7.983,7.983,0,0,0,0,2.9Zm49.267,4.087a5.537,5.537,0,1,1,5.538-5.537A5.543,5.543,0,0,1,73.482,30.472Zm9.537-4.087H81.436a7.983,7.983,0,0,0,0-2.9h3.033v1.45A1.452,1.452,0,0,1,83.019,26.385Zm0,0" transform="translate(0 -0.5)" fill="#2626bc"/>
        <path id="Path_13167" data-name="Path 13167" d="M198.224,94.126H181.15l-2.887-3.85a4.02,4.02,0,0,0-3.2-1.6h-5.449a1.275,1.275,0,0,0-1.02,2.039l3.27,4.36a4.017,4.017,0,0,0,3.2,1.6h23.161a1.275,1.275,0,0,0,0-2.549Zm-23.161,0a1.456,1.456,0,0,1-1.16-.58l-1.74-2.32h2.9a1.459,1.459,0,0,1,1.161.58l1.74,2.32Zm0,0" transform="translate(-139.728 -73.69)" fill="#2626bc"/>
        <path id="Path_13168" data-name="Path 13168" d="M82.8,128.758a2.637,2.637,0,1,0,2.637,2.637A2.64,2.64,0,0,0,82.8,128.758Zm0,0" transform="translate(-66.536 -106.959)" fill="#2626bc"/>
        <path id="Path_13169" data-name="Path 13169" d="M419.477,128.758a2.637,2.637,0,1,0,2.637,2.637A2.64,2.64,0,0,0,419.477,128.758Zm0,0" transform="translate(-345.995 -106.959)" fill="#2626bc"/>
      </g>
    </g>
    <g id="right-arrow-3" transform="translate(722.951 2642.597)">
      <path id="Path_13628" data-name="Path 13628" d="M92.187,82.169l-8.335,8.336a.691.691,0,0,1-.488.2H74.437a.69.69,0,0,1-.488-1.178L82.3,81.17s-5.807-5.807-8.355-8.358a.69.69,0,0,1,.488-1.178h8.927a.691.691,0,0,1,.488.2l3.783,3.783,4.552,4.551A1.415,1.415,0,0,1,92.187,82.169Z" transform="translate(-55.279 -62.514)" fill="#6583fe"/>
      <path id="Path_13629" data-name="Path 13629" d="M86.967,82.169l-8.335,8.336a.691.691,0,0,1-.488.2H74.437a.69.69,0,0,1-.488-1.178L82.3,81.17s-5.807-5.807-8.355-8.358a.69.69,0,0,1,.488-1.178h3.707a.691.691,0,0,1,.488.2l8.335,8.334A1.415,1.415,0,0,1,86.967,82.169Z" transform="translate(-55.279 -62.514)" fill="#2626bc"/>
      <path id="Path_13637" data-name="Path 13637" d="M85.325,72.784l-4.552-4.551L76.99,64.45a1.086,1.086,0,0,0-.763-.316H67.3a1.078,1.078,0,0,0-.763,1.84c2.2,2.206,6.9,6.9,8.081,8.084l-8.08,8.085a1.078,1.078,0,0,0,.762,1.841h8.927a1.086,1.086,0,0,0,.763-.316l8.335-8.336h0A1.806,1.806,0,0,0,85.325,72.784Zm-.549,2h0L76.441,83.12a.3.3,0,0,1-.214.089H72.248c2.517-2.428,5.057-5,7.947-8.051a1.715,1.715,0,0,0,.012-2.287l-.016-.017c-1.57-1.57-3.053-3.053-4.556-4.539a.388.388,0,1,0-.546.552c1.5,1.481,2.978,2.961,4.543,4.527a.96.96,0,0,1,.009,1.219l-.007.008c-3.067,3.237-5.739,5.936-8.408,8.494a.388.388,0,0,0-.072.095H67.3a.3.3,0,0,1-.214-.516l8.355-8.36a.388.388,0,0,0,0-.549c-.058-.058-5.836-5.836-8.355-8.359a.3.3,0,0,1,.214-.516h3.854a.386.386,0,0,0,.078.1c.409.377.808.794,1.193,1.2.421.441.857.9,1.312,1.307a.388.388,0,1,0,.519-.577c-.433-.389-.84-.815-1.27-1.266-.241-.252-.487-.509-.739-.761h3.98a.3.3,0,0,1,.214.089l3.783,3.783,4.552,4.551A1.029,1.029,0,0,1,84.776,74.784Z" transform="translate(-48.142 -55.403)"/>
    </g>
  </g>
</svg>
