<svg xmlns="http://www.w3.org/2000/svg" width="54.79" height="40.839" viewBox="0 0 54.79 40.839">
  <g id="Group_3114" data-name="Group 3114" transform="translate(-498.249 -1134.306)">
    <g id="road" transform="translate(502.228 1135.888)">
      <path id="Path_12604" data-name="Path 12604" d="M.756,261.08a.756.756,0,0,1-.32-1.44l1.3-.605a.755.755,0,1,1,.638,1.369l-1.3.605a.752.752,0,0,1-.319.071Z" transform="translate(0 -239.041)" fill="#eec06b"/>
      <path id="Path_12605" data-name="Path 12605" d="M57.664,162.347v3.907L7.609,185.476v-4.09a.5.5,0,0,1,.291-.456L48.83,161.843h8.33A.5.5,0,0,1,57.664,162.347Z" transform="translate(-6.854 -151.558)" fill="#3575ec"/>
      <path id="Path_12606" data-name="Path 12606" d="M481.789,161.844H479.02a.5.5,0,0,1,.5.5v3.907h2.769v-3.907A.5.5,0,0,0,481.789,161.844Z" transform="translate(-431.482 -151.559)" fill="#3575ec"/>
      <path id="Path_12607" data-name="Path 12607" d="M57.665,206.291v24.058a.5.5,0,0,1-.5.5H8.114a.5.5,0,0,1-.5-.5v-4.836l41.221-19.222h8.834Z" transform="translate(-6.855 -191.595)" fill="#e3e0e4"/>
      <path id="Path_12608" data-name="Path 12608" d="M479.525,206.291v24.058a.5.5,0,0,1-.5.5h2.769a.5.5,0,0,0,.5-.5V206.291Z" transform="translate(-431.483 -191.595)" fill="#c5bec6"/>
      <path id="Path_12609" data-name="Path 12609" d="M342.711,61.56a.755.755,0,0,0-.4-.667l-2.038-2.416a.755.755,0,0,0-1.155.974l1.142,1.353h-4.83a3.259,3.259,0,0,0-1.368.3l-5.385,2.511a.755.755,0,1,0,.638,1.369l5.384-2.511a1.739,1.739,0,0,1,.73-.162h4.906l-1.2,1.335a.755.755,0,0,0,1.123,1.011l2.262-2.511a.754.754,0,0,0,.192-.555C342.71,61.584,342.711,61.572,342.711,61.56Z" transform="translate(-295.665 -58.209)" fill="#3575ec"/>
    </g>
    <g id="Group_3113" data-name="Group 3113" transform="translate(498.249 1149.065) rotate(-25)">
      <path id="Path_12700" data-name="Path 12700" d="M0,6.051v4.96a.987.987,0,0,0,.586.9l2.275,1.011a1.511,1.511,0,0,0,.614.13H33.537a1.387,1.387,0,0,0,1.387-1.387V9.01a2.566,2.566,0,0,0-.368-1.324l-.162-.268A3.694,3.694,0,0,0,31.951,5.7l-4.674-.93a7.54,7.54,0,0,1-2.646-1.24L21.244,1.243A7.254,7.254,0,0,0,17.183,0H10.966A7.253,7.253,0,0,0,5.847,2.115h0A7.253,7.253,0,0,1,2.215,4.076l-.735.154A1.861,1.861,0,0,0,0,6.051Z" transform="translate(0 0)" fill="#61aff7"/>
      <path id="Path_12701" data-name="Path 12701" d="M33.941,2.257l-.162-.268A3.694,3.694,0,0,0,31.336.272L29.967,0a3.693,3.693,0,0,1,.717.86l.162.268a2.566,2.566,0,0,1,.368,1.324V5.109A1.387,1.387,0,0,1,29.827,6.5H0l2.246,1a1.51,1.51,0,0,0,.614.13H32.923A1.387,1.387,0,0,0,34.31,6.238V3.582A2.567,2.567,0,0,0,33.941,2.257Z" transform="translate(0.615 5.429)" fill="#55a2f0"/>
      <path id="Path_12702" data-name="Path 12702" d="M0,3.965a.82.82,0,0,1,.442-.728A8.816,8.816,0,0,0,2.6,1.657,5.647,5.647,0,0,1,6.614,0h6.217a5.683,5.683,0,0,1,3.181.974L19.4,3.262q.337.227.69.421a.972.972,0,0,1,.508.851h0a.251.251,0,0,1-.251.251H.821A.82.82,0,0,1,0,3.965Z" transform="translate(4.352 1.775)" fill="#21d8de"/>
      <g id="Group_3112" data-name="Group 3112" transform="translate(2.867 9.759)">
        <circle id="Ellipse_117" data-name="Ellipse 117" cx="2.885" cy="2.885" r="2.885" transform="translate(23.545 0)" fill="#2c5871"/>
        <circle id="Ellipse_118" data-name="Ellipse 118" cx="2.885" cy="2.885" r="2.885" fill="#2c5871"/>
      </g>
      <path id="Path_12703" data-name="Path 12703" d="M4.08,4.08A2.885,2.885,0,0,0,4.08,0L0,4.08A2.885,2.885,0,0,0,4.08,4.08Z" transform="translate(3.712 10.604)" fill="#1d4859"/>
      <circle id="Ellipse_119" data-name="Ellipse 119" cx="1.043" cy="1.043" r="1.043" transform="translate(4.71 11.601)" fill="#e1effb"/>
      <path id="Path_12704" data-name="Path 12704" d="M4.08,4.08A2.885,2.885,0,0,0,4.08,0L0,4.08A2.885,2.885,0,0,0,4.08,4.08Z" transform="translate(27.257 10.604)" fill="#1d4859"/>
      <circle id="Ellipse_120" data-name="Ellipse 120" cx="1.043" cy="1.043" r="1.043" transform="translate(28.255 11.601)" fill="#e1effb"/>
      <rect id="Rectangle_2388" data-name="Rectangle 2388" width="1.025" height="5.267" transform="translate(12.284 1.535)" fill="#61aff7"/>
    </g>
  </g>
</svg>
