<svg id="december" xmlns="http://www.w3.org/2000/svg" width="50.099" height="50.099" viewBox="0 0 50.099 50.099">
  <g id="Group_3109" data-name="Group 3109">
    <g id="Group_3105" data-name="Group 3105" transform="translate(7.556)">
      <g id="Group_3101" data-name="Group 3101">
        <path id="Path_12684" data-name="Path 12684" d="M77.223,0h2.935V6.611H77.223Z" transform="translate(-77.223)" fill="#a21eb0"/>
      </g>
      <g id="Group_3102" data-name="Group 3102" transform="translate(10.684)">
        <path id="Path_12685" data-name="Path 12685" d="M186.408,0h2.936V6.611h-2.936Z" transform="translate(-186.408)" fill="#a21eb0"/>
      </g>
      <g id="Group_3103" data-name="Group 3103" transform="translate(21.367)">
        <path id="Path_12686" data-name="Path 12686" d="M295.593,0h2.936V6.611h-2.936Z" transform="translate(-295.593)" fill="#a21eb0"/>
      </g>
      <g id="Group_3104" data-name="Group 3104" transform="translate(32.051)">
        <path id="Path_12687" data-name="Path 12687" d="M404.777,0h2.936V6.611h-2.936Z" transform="translate(-404.777)" fill="#a21eb0"/>
      </g>
    </g>
    <g id="Group_3106" data-name="Group 3106" transform="translate(0 9.771)">
      <path id="Path_12688" data-name="Path 12688" d="M0,105.807v34.376H25.05l6.81-40.328Z" transform="translate(0 -99.855)" fill="#5d90ef"/>
      <path id="Path_12689" data-name="Path 12689" d="M281.05,105.807,256,99.855v40.328h25.05Z" transform="translate(-230.95 -99.855)" fill="#5d90ef"/>
    </g>
    <g id="Group_3107" data-name="Group 3107" transform="translate(6.236 10.593)">
      <path id="Path_12690" data-name="Path 12690" d="M63.734,113.39v28.14H82.547L88.8,117.1l-6.254-8.843Z" transform="translate(-63.734 -108.26)" fill="#f2f2fc"/>
      <path id="Path_12691" data-name="Path 12691" d="M274.813,113.39,256,108.26v33.27h18.813Z" transform="translate(-237.187 -108.26)" fill="#f2f2fc"/>
    </g>
    <g id="Group_3108" data-name="Group 3108" transform="translate(0 5.464)">
      <path id="Path_12692" data-name="Path 12692" d="M0,55.839V66.1H25.05L29.7,60.968,25.05,55.839Z" transform="translate(0 -55.839)" fill="#3575ec"/>
      <path id="Path_12693" data-name="Path 12693" d="M256,55.839h25.05V66.1H256Z" transform="translate(-230.95 -55.839)" fill="#3575ec"/>
    </g>
  </g>
  <g id="Group_3110" data-name="Group 3110" transform="translate(19.771 21.541)">
    <path id="Path_12694" data-name="Path 12694" d="M226.086,306.142l2.774.96.153-.442,1.108-6.808-1.108-2.168Z" transform="translate(-223.734 -290.097)" fill="#3575ec"/>
    <path id="Path_12695" data-name="Path 12695" d="M202.05,220.146v2.936h5.279l1.463-1.468-1.463-1.468Z" transform="translate(-202.05 -220.146)" fill="#3575ec"/>
    <path id="Path_12696" data-name="Path 12696" d="M260.7,220.146H256v2.936h1.61L256,227.733v8.976l4.7-13.582Z" transform="translate(-250.721 -220.146)" fill="#3575ec"/>
  </g>
</svg>
