<svg xmlns="http://www.w3.org/2000/svg" xmlns:xlink="http://www.w3.org/1999/xlink" width="98.565" height="79.151" viewBox="0 0 98.565 79.151">
  <defs>
    <linearGradient id="linear-gradient" x1="0.468" y1="0.119" x2="0.643" y2="1.253" gradientUnits="objectBoundingBox">
      <stop offset="0" stop-color="#ffd300"/>
      <stop offset="1" stop-color="#fff"/>
    </linearGradient>
  </defs>
  <g id="Group_3766" data-name="Group 3766" transform="translate(-547.435 -2639)">
    <g id="Group_3761" data-name="Group 3761" transform="translate(106.901 -338)">
      <path id="Path_13624" data-name="Path 13624" d="M90.764,57.285C78.171,47.6,65.956,55.493,52.331,52.7c-13.723-2.81-19.19-12.167-34.821-7.848C3.665,48.682-4.736,64.02,2.875,76.862c2.169,3.659,5.864,6.42,7.374,10.515,2.436,6.605-1.272,11.676-.549,18.168,3.005,26.971,44.2,16.524,59.352,8.133C92.822,100.517,108.9,71.229,90.764,57.285Z" transform="translate(440.533 2933.266)" fill="url(#linear-gradient)"/>
      <g id="asbestos" transform="translate(437 2955.986)">
        <g id="Group_3452" data-name="Group 3452" transform="translate(21.013 21.013)">
          <path id="Path_13174" data-name="Path 13174" d="M248.529,95.829h-1.911v7.647h3.824V95.829Z" transform="translate(-215.9 -95.829)" fill="#2626bc"/>
          <path id="Path_13175" data-name="Path 13175" d="M284.158,95.829h3.824v7.647h-3.824Z" transform="translate(-245.793 -95.829)" fill="#2626bc"/>
          <path id="Path_13176" data-name="Path 13176" d="M202.12,197.5l-7.647-37.795c-5.438,0-5.438-4.062-10.876-4.062s-5.438,4.062-10.876,4.062l-7.647,37.922,7.351-6.937-2.211,6.937Z" transform="translate(-150.968 -143.459)" fill="#2626bc"/>
          <path id="Path_13177" data-name="Path 13177" d="M209.415,280c-5.438,0-5.439-4.061-10.876-4.062S193.1,280,187.663,280c0,0-3.824,12.253-3.824,12.253l3.824,12.253c5.438,0,5.438-4.062,10.876-4.062s5.438,4.062,10.876,4.062l3.824-12.253S209.415,280,209.415,280Z" transform="translate(-165.91 -239.248)" fill="#6583fe"/>
          <path id="Path_13178" data-name="Path 13178" d="M106.7,155.644c-5.438,0-5.438,4.062-10.876,4.062v24.506l10.877,5.736,10.876-5.736V159.706C112.143,159.706,112.142,155.644,106.7,155.644Z" transform="translate(-95.828 -143.459)" fill="#6583fe"/>
          <path id="Path_13179" data-name="Path 13179" d="M106.706,275.938c-5.438,0-5.438,4.062-10.877,4.062v24.506c5.438,0,5.438-4.062,10.876-4.062s5.438,4.062,10.876,4.062V280C112.144,280,112.144,275.938,106.706,275.938Z" transform="translate(-95.829 -239.248)" fill="#2626bc"/>
          <path id="Path_13180" data-name="Path 13180" d="M209.078,95.829H212.9v7.647h-3.824Z" transform="translate(-186.008 -95.829)" fill="#2626bc"/>
          <path id="Path_13181" data-name="Path 13181" d="M320.266,155.644c5.438,0,5.438,4.062,10.876,4.062v24.506l-10.877,5.736-10.876-5.736V159.706C314.828,159.706,314.828,155.644,320.266,155.644Z" transform="translate(-265.885 -143.459)" fill="#6583fe"/>
          <path id="Path_13182" data-name="Path 13182" d="M320.267,275.938c5.438,0,5.438,4.062,10.877,4.062v24.506c-5.438,0-5.438-4.062-10.876-4.062s-5.438,4.062-10.876,4.062V280C314.829,280,314.829,275.938,320.267,275.938Z" transform="translate(-265.886 -239.248)" fill="#2626bc"/>
        </g>
      </g>
    </g>
  </g>
</svg>
