<svg id="garage" xmlns="http://www.w3.org/2000/svg" width="54.099" height="54.098" viewBox="0 0 54.099 54.098">
  <path id="Path_12508" data-name="Path 12508" d="M40,152H85.082v36.967H40Z" transform="translate(-35.492 -134.868)" fill="#737373"/>
  <path id="Path_12509" data-name="Path 12509" d="M122.262,346.819H88V337.8l3.607-1.8h27.049l3.607,1.8Z" transform="translate(-78.082 -298.13)" fill="#de4c3c"/>
  <path id="Path_12510" data-name="Path 12510" d="M175.287,336a66.669,66.669,0,0,1-19.991,10.82h26.678V337.8l-3.607-1.8Z" transform="translate(-137.793 -298.13)" fill="#d64333"/>
  <path id="Path_12511" data-name="Path 12511" d="M8,152h3.607v36.967H8Z" transform="translate(-7.098 -134.868)" fill="#4398d1"/>
  <path id="Path_12512" data-name="Path 12512" d="M440,152h3.607v36.967H440Z" transform="translate(-390.41 -134.868)" fill="#3e8cc7"/>
  <path id="Path_12513" data-name="Path 12513" d="M60.3,24.229H8V17.015L34.148,8,60.3,17.015Z" transform="translate(-7.098 -7.098)" fill="#4398d1"/>
  <path id="Path_12514" data-name="Path 12514" d="M147.049,279.212H120L123.108,273a1.8,1.8,0,0,1,1.613-1h17.607a1.8,1.8,0,0,1,1.613,1Z" transform="translate(-106.475 -241.343)" fill="#87ced9"/>
  <g id="Group_2912" data-name="Group 2912" transform="translate(9.918 48.688)">
    <path id="Path_12515" data-name="Path 12515" d="M88,432h5.41v3.607a.9.9,0,0,1-.9.9H88.9a.9.9,0,0,1-.9-.9V432Z" transform="translate(-88 -431.999)" fill="#5e5e5f"/>
    <path id="Path_12516" data-name="Path 12516" d="M344,432h5.41v3.607a.9.9,0,0,1-.9.9H344.9a.9.9,0,0,1-.9-.9V432Z" transform="translate(-315.147 -431.999)" fill="#5e5e5f"/>
  </g>
  <g id="Group_2913" data-name="Group 2913" transform="translate(4.508 17.131)">
    <path id="Path_12517" data-name="Path 12517" d="M120.9,368h2.7a.9.9,0,0,1,.9.9v1.8a.9.9,0,0,1-.9.9h-2.7a.9.9,0,0,1-.9-.9v-1.8A.9.9,0,0,1,120.9,368Z" transform="translate(-110.984 -343.655)" fill="#dedede"/>
    <path id="Path_12518" data-name="Path 12518" d="M320.9,368h2.7a.9.9,0,0,1,.9.9v1.8a.9.9,0,0,1-.9.9h-2.7a.9.9,0,0,1-.9-.9v-1.8A.9.9,0,0,1,320.9,368Z" transform="translate(-288.442 -343.655)" fill="#dedede"/>
    <path id="Path_12519" data-name="Path 12519" d="M40,152H85.082v7.213H40Z" transform="translate(-40 -151.999)" fill="#dedede"/>
  </g>
  <path id="Path_12520" data-name="Path 12520" d="M192.9,368h9.016a.9.9,0,0,1,.9.9v1.8a.9.9,0,0,1-.9.9H192.9a.9.9,0,0,1-.9-.9v-1.8A.9.9,0,0,1,192.9,368Z" transform="translate(-170.361 -326.524)" fill="#bf362c"/>
  <path id="Path_12521" data-name="Path 12521" d="M40,176H85.082v1.8H40Z" transform="translate(-35.492 -156.163)" fill="#c7c7c7"/>
  <path id="Path_12522" data-name="Path 12522" d="M236.22,273a1.8,1.8,0,0,0-1.613-1h-3.394L224,279.212h15.328Z" transform="translate(-198.754 -241.343)" fill="#71c4d1"/>
  <g id="Group_2914" data-name="Group 2914" transform="translate(9.918 48.688)">
    <path id="Path_12523" data-name="Path 12523" d="M88,432h5.41v1.8H88Z" transform="translate(-88 -431.999)" fill="#565657"/>
    <path id="Path_12524" data-name="Path 12524" d="M344,432h5.41v1.8H344Z" transform="translate(-315.147 -431.999)" fill="#565657"/>
  </g>
  <path id="Path_12525" data-name="Path 12525" d="M223.224,51.741l-13.356-4.606a76.189,76.189,0,0,1-18.244,11.819h31.6Z" transform="translate(-170.027 -41.823)" fill="#3e8cc7"/>
  <path id="Path_12526" data-name="Path 12526" d="M53.491,9.067,27.343.051a.9.9,0,0,0-.588,0L.608,9.067A.9.9,0,0,0,0,9.92V53.2a.9.9,0,0,0,.9.9H5.41a.9.9,0,0,0,.9-.9V25.247H47.787V53.2a.9.9,0,0,0,.9.9H53.2a.9.9,0,0,0,.9-.9V9.92A.9.9,0,0,0,53.491,9.067ZM4.508,24.346V52.3H1.8V18.034h2.7Zm43.279-.9H6.312v-1.8H47.787Zm0-3.607H6.312v-1.8H47.787ZM52.3,52.3h-2.7V18.034h2.7Zm0-36.066H1.8V10.562L27.049,1.857,52.3,10.562Z" transform="translate(0 -0.002)"/>
  <path id="Path_12527" data-name="Path 12527" d="M110.656,288.343h3.607a1.8,1.8,0,0,0,1.8-1.8V273.917a.9.9,0,0,0-.5-.811l-3.336-1.668-2.975-5.951A2.691,2.691,0,0,0,106.837,264H89.229a2.691,2.691,0,0,0-2.419,1.495l-2.975,5.951L80.5,273.113a.9.9,0,0,0-.5.8V286.54a1.8,1.8,0,0,0,1.8,1.8H85.41a1.8,1.8,0,0,0,1.8-1.8v-2.7h21.639v2.7a1.8,1.8,0,0,0,1.8,1.8Zm3.607-1.8h-3.607v-2.7h3.607ZM88.423,266.3a.9.9,0,0,1,.806-.5h17.607a.9.9,0,0,1,.806.5l2.456,4.911H85.967ZM85.41,286.54H81.8v-2.7H85.41Zm.9-4.508H81.8v-7.558l2.918-1.459h26.624l2.918,1.459v7.558Z" transform="translate(-70.984 -234.245)"/>
  <path id="Path_12528" data-name="Path 12528" d="M116.508,360h-2.7a1.8,1.8,0,0,0-1.8,1.8v1.8a1.8,1.8,0,0,0,1.8,1.8h2.7a1.8,1.8,0,0,0,1.8-1.8v-1.8A1.8,1.8,0,0,0,116.508,360Zm-2.7,3.607v-1.8h2.7v1.8Z" transform="translate(-99.377 -319.425)"/>
  <path id="Path_12529" data-name="Path 12529" d="M318.312,363.606v-1.8a1.8,1.8,0,0,0-1.8-1.8h-2.7a1.8,1.8,0,0,0-1.8,1.8v1.8a1.8,1.8,0,0,0,1.8,1.8h2.7A1.8,1.8,0,0,0,318.312,363.606Zm-4.508-1.8h2.7v1.8h-2.7Z" transform="translate(-276.836 -319.425)"/>
  <path id="Path_12530" data-name="Path 12530" d="M194.82,360H185.8a1.8,1.8,0,0,0-1.8,1.8v1.8a1.8,1.8,0,0,0,1.8,1.8h9.016a1.8,1.8,0,0,0,1.8-1.8v-1.8A1.8,1.8,0,0,0,194.82,360Zm-9.016,3.607v-1.8h9.016v1.8Z" transform="translate(-163.262 -319.425)"/>
</svg>
