<svg xmlns="http://www.w3.org/2000/svg" width="25.321" height="31.993" viewBox="0 0 25.321 31.993">
  <g id="graduated" transform="translate(0)">
    <path id="Path_12490" data-name="Path 12490" d="M75.283,20.9l-1.878-.551-4.085-2.668v-.611a5.437,5.437,0,0,0,2.146-3.819,1.248,1.248,0,0,0,1.048-1.231V10.34c0-.006,0-.013,0-.019V8.191a.924.924,0,0,0,.386-.754V5.488l2.819-.48a1,1,0,0,0,.135-1.938L66.35.047a.994.994,0,0,0-.606,0L56.24,3.07a1,1,0,0,0-.311,1.745V7.363H55.9a.972.972,0,0,0-.971.971V9.6l-.627,3.677a1.043,1.043,0,0,0,1.028,1.218h2.121a1.043,1.043,0,0,0,1.028-1.218L57.859,9.6V8.334a.972.972,0,0,0-.971-.971h-.023V5.091l2.33.4V7.437a.925.925,0,0,0,.384.753v3.832a1.248,1.248,0,0,0,1.048,1.231,5.438,5.438,0,0,0,2.144,3.817v.614l-4.084,2.668-1.876.551a4.765,4.765,0,0,0-3.425,4.575v3.559c0,.259.938.495.937.028s0-1.932,0-2.191v-1.4A3.852,3.852,0,0,1,57.076,21.8l1.748-.513,6.984,4.15a.474.474,0,0,0,.479,0l6.984-4.15,1.748.513a3.852,3.852,0,0,1,2.752,3.676V30a1.054,1.054,0,0,1-1.053,1.053H74.653v-2.02a.469.469,0,0,0-.937,0v2.02H58.378v-2.02a.469.469,0,0,0-.937,0v2.02H55.377A1.054,1.054,0,0,1,54.324,30v-.939c0-.259-.378-.339-.636-.339s-.3.052-.3.311V30a1.992,1.992,0,0,0,1.99,1.99H76.718A1.992,1.992,0,0,0,78.708,30V25.476A4.766,4.766,0,0,0,75.283,20.9ZM57.457,13.558H55.336a.106.106,0,0,1-.1-.124l.567-3.327H57l.567,3.326A.106.106,0,0,1,57.457,13.558Zm-.535-5.224V9.17h-1.05V8.334A.033.033,0,0,1,55.9,8.3h.984a.033.033,0,0,1,.033.033Zm7.45,14.984.187.287-4.785-2.843,3.037-1.984A9.844,9.844,0,0,0,64.372,23.318Zm0-2.023a12.051,12.051,0,0,0,3.359,0,8.952,8.952,0,0,1-.789,1.512l-.891,1.369-.89-1.369a8.951,8.951,0,0,1-.789-1.512Zm3.355,2.023a9.843,9.843,0,0,0,1.561-4.54l3.037,1.984L67.537,23.6ZM70.465,8.365h1.111V9.871h-.551a.56.56,0,0,1-.56-.559V8.365Zm-13.941-4.4L66.028.94a.062.062,0,0,1,.038,0l9.5,3.023a.052.052,0,0,1,.043.064c0,.049-.031.053-.052.057l-3.142.535L69.061,4.2c-.257-.032-.372.9-.115.93l3.016.373V7.428H60.133V5.507l4.849-.6a8.681,8.681,0,0,1,2.128,0l1.835.227c.257.032.372-.9.115-.93l-1.835-.227a9.614,9.614,0,0,0-2.358,0l-5.192.642-3.143-.535c-.02,0-.048-.008-.052-.057a.052.052,0,0,1,.043-.064Zm3.995,5.908V8.365H61.63v.946a.56.56,0,0,1-.56.559h-.552Zm1.031,3.14a.726.726,0,0,0-.722-.681.31.31,0,0,1-.309-.309V10.809h.552a1.5,1.5,0,0,0,1.5-1.5V8.365h6.96v.946a1.5,1.5,0,0,0,1.5,1.5h.552v1.213a.31.31,0,0,1-.309.309.726.726,0,0,0-.722.681,4.507,4.507,0,0,1-9,0Zm4.5,5.157a5.409,5.409,0,0,0,2.336-.529v.3a8.932,8.932,0,0,1-.316,2.354,11.066,11.066,0,0,1-4.039,0,8.931,8.931,0,0,1-.316-2.354c0-.01,0-.02,0-.029s0,0,0-.006v-.263A5.41,5.41,0,0,0,66.048,18.168Z" transform="translate(-53.387 0)" fill="#a21eb0"/>
  </g>
</svg>
