<svg id="home" xmlns="http://www.w3.org/2000/svg" width="47.472" height="45.887" viewBox="0 0 47.472 45.887">
  <path id="Path_12491" data-name="Path 12491" d="M61.08,55.657q0-.05,0-.1a3.168,3.168,0,0,0-3.165-3.165V37.757l2.848-2.136a.791.791,0,0,0-.008-1.272l-6.8-4.966V20.747a.791.791,0,0,0,.791-.791V16.791A.791.791,0,0,0,53.961,16H46.049a.791.791,0,0,0-.791.791v3.165a.791.791,0,0,0,.791.791V23.6l-5.862-4.284a.791.791,0,0,0-.934,0L18.683,34.349a.791.791,0,0,0-.008,1.272l2.848,2.136V52.393a3.168,3.168,0,0,0-3.165,3.165q0,.049,0,.1a3.165,3.165,0,0,0,.789,6.23H60.29a3.165,3.165,0,0,0,.789-6.23ZM46.841,17.582H53.17v1.582H46.841Zm.791,7.12V20.747h4.747v7.479L47.557,24.7ZM39.72,20.936,58.961,35l-1.842,1.382L40.186,24.063a.791.791,0,0,0-.931,0L22.322,36.378,20.48,35ZM17.568,58.722a1.584,1.584,0,0,1,1.559-1.582h0c.04.006.081.01.122.013a.791.791,0,0,0,.793-1.06,1.555,1.555,0,0,1-.1-.536,1.584,1.584,0,0,1,1.582-1.582V60.3H19.15A1.584,1.584,0,0,1,17.568,58.722ZM51.587,60.3H42.094V42.9h9.494Zm1.582,0v-18.2a.791.791,0,0,0-.791-.791H41.3a.791.791,0,0,0-.791.791V60.3H23.106V37.764L39.72,25.681,56.334,37.764V60.3Zm7.12,0H57.917V53.975A1.584,1.584,0,0,1,59.5,55.558a1.555,1.555,0,0,1-.1.536.791.791,0,0,0,.793,1.06c.041,0,.082-.008.122-.013h0A1.582,1.582,0,0,1,60.29,60.3Z" transform="translate(-15.984 -16)" fill="#3575ec"/>
  <path id="Path_12492" data-name="Path 12492" d="M130.285,272h-9.494a.791.791,0,0,0-.791.791v11.076a.791.791,0,0,0,.791.791h9.494a.791.791,0,0,0,.791-.791V272.791A.791.791,0,0,0,130.285,272Zm-.791,5.538h-3.165v-3.956h3.165Zm-4.747-3.956v3.956h-3.165v-3.956Zm-3.165,5.538h3.165v3.956h-3.165Zm4.747,3.956V279.12h3.165v3.956Z" transform="translate(-109.713 -246.683)" fill="#3575ec"/>
  <circle id="Ellipse_104" data-name="Ellipse 104" cx="0.791" cy="0.791" r="0.791" transform="translate(27.449 35.239) rotate(-67.5)" fill="#3575ec"/>
</svg>
