<svg xmlns="http://www.w3.org/2000/svg" width="33.38" height="33.38" viewBox="0 0 33.38 33.38">
  <g id="Group_3801" data-name="Group 3801" transform="translate(-439.14 -486)">
    <g id="location-2" transform="translate(444.771 492)">
      <path id="Path_12796" data-name="Path 12796" d="M54.749,25.008a2.763,2.763,0,1,0-2.763,2.763,2.763,2.763,0,0,0,2.763-2.763Zm-4.871,0a2.108,2.108,0,1,1,2.109,2.109A2.108,2.108,0,0,1,49.877,25.008Z" transform="translate(-40.986 -18.939)" fill="#ffd300"/>
      <path id="Path_12797" data-name="Path 12797" d="M26.535,26.12,23.895,19.2a.324.324,0,0,0-.3-.208h-5l.091-.148c1.922-3.183,2.89-5.967,2.876-8.275a6.007,6.007,0,1,0-12.015,0c-.014,2.308.954,5.093,2.876,8.276.031.051.061.1.091.148h-5a.324.324,0,0,0-.3.208L4.578,26.12a.323.323,0,0,0,.3.439H26.232a.323.323,0,0,0,.3-.439ZM10.2,10.567a5.36,5.36,0,0,1,10.719,0c.028,4.6-4.273,10.275-5.36,11.635-1.087-1.36-5.388-7.032-5.36-11.636Zm5.113,12.358a.324.324,0,0,0,.493,0,34.368,34.368,0,0,0,2.387-3.286h5.179l.415,1.087-10.12,3.6-3.607-4.687h2.866a34.368,34.368,0,0,0,2.387,3.287Zm-1.658,2.091h0l6.038-2.147,2.342,3.043h-10.9ZM7.743,19.638h1.5l3.783,4.915L9.2,25.912H5.35Zm15.108,6.274L20.333,22.64l3.682-1.31,1.747,4.582Z" transform="translate(-4.556 -4.56)" fill="#ffd300"/>
    </g>
    <path id="Path_13645" data-name="Path 13645" d="M31.823,7.886H17.329a9.454,9.454,0,0,0-9.443,9.443V31.823a9.454,9.454,0,0,0,9.443,9.443H31.823a9.454,9.454,0,0,0,9.443-9.443V17.329A9.454,9.454,0,0,0,31.823,7.886Zm8.4,23.937a8.412,8.412,0,0,1-8.4,8.4H17.329a8.412,8.412,0,0,1-8.4-8.4V17.329a8.412,8.412,0,0,1,8.4-8.4H31.823a8.412,8.412,0,0,1,8.4,8.4Z" transform="translate(431.254 478.114)" fill="#ffd300"/>
  </g>
</svg>
