<svg id="office-building" xmlns="http://www.w3.org/2000/svg" width="32" height="32" viewBox="0 0 32 32">
  <path id="Path_12493" data-name="Path 12493" d="M10.99,43.208H2.457A.457.457,0,0,1,2,42.751V19.407a.457.457,0,0,1,.457-.457H10.99a.457.457,0,0,1,.457.457V42.751A.457.457,0,0,1,10.99,43.208Zm-8.076-.915h7.618V19.865H2.915Z" transform="translate(-2 -11.208)" fill="#064d7b"/>
  <path id="Path_12494" data-name="Path 12494" d="M60.329,51.144H51.8a.457.457,0,0,1-.457-.457V34.03a.457.457,0,0,1,.457-.457h8.533a.457.457,0,0,1,.457.457V50.687A.457.457,0,0,1,60.329,51.144Zm-8.076-.915h7.618V34.488H52.254Z" transform="translate(-28.786 -19.144)" fill="#064d7b"/>
  <path id="Path_12495" data-name="Path 12495" d="M35.146,34H21.118a.457.457,0,0,1-.457-.457V2.457A.457.457,0,0,1,21.118,2H35.146a.457.457,0,0,1,.457.457V33.543A.457.457,0,0,1,35.146,34Zm-13.571-.914H34.689V2.914H21.576Z" transform="translate(-12.132 -2)" fill="#064d7b"/>
  <path id="Path_12496" data-name="Path 12496" d="M35.794,58.083H28.706a.457.457,0,0,1-.457-.457V46.814a.457.457,0,0,1,.457-.457h7.088a.457.457,0,0,1,.457.457V57.625A.457.457,0,0,1,35.794,58.083Zm-6.63-.915h6.173v-9.9H29.164Z" transform="translate(-16.25 -26.083)" fill="#064d7b"/>
  <path id="Path_12497" data-name="Path 12497" d="M11.518,32.036h-2.9a.457.457,0,0,1-.457-.457v-2.9a.457.457,0,0,1,.457-.457h2.9a.457.457,0,0,1,.457.457v2.9A.457.457,0,0,1,11.518,32.036ZM9.08,31.121h1.981V29.14H9.079Z" transform="translate(-5.345 -16.237)" fill="#064d7b"/>
  <path id="Path_12498" data-name="Path 12498" d="M11.518,45.119h-2.9a.457.457,0,0,1-.457-.457v-2.9a.457.457,0,0,1,.457-.457h2.9a.457.457,0,0,1,.457.457v2.9A.457.457,0,0,1,11.518,45.119ZM9.08,44.2h1.981V42.224H9.079Z" transform="translate(-5.345 -23.34)" fill="#064d7b"/>
  <path id="Path_12499" data-name="Path 12499" d="M11.518,58.2h-2.9a.457.457,0,0,1-.457-.457v-2.9a.457.457,0,0,1,.457-.457h2.9a.457.457,0,0,1,.457.457v2.9A.457.457,0,0,1,11.518,58.2ZM9.08,57.288h1.981V55.307H9.079Z" transform="translate(-5.345 -30.443)" fill="#064d7b"/>
  <path id="Path_12500" data-name="Path 12500" d="M60.854,45.119h-2.9a.457.457,0,0,1-.457-.457v-2.9a.457.457,0,0,1,.457-.457h2.9a.457.457,0,0,1,.457.457v2.9a.457.457,0,0,1-.456.457ZM58.416,44.2H60.4V42.224H58.415Z" transform="translate(-32.13 -23.34)" fill="#064d7b"/>
  <path id="Path_12501" data-name="Path 12501" d="M60.854,58.2h-2.9a.457.457,0,0,1-.457-.457v-2.9a.457.457,0,0,1,.457-.457h2.9a.457.457,0,0,1,.457.457v2.9a.457.457,0,0,1-.456.457Zm-2.439-.915H60.4V55.307H58.415Z" transform="translate(-32.13 -30.443)" fill="#064d7b"/>
  <path id="Path_12502" data-name="Path 12502" d="M29.619,11.448h-2.9a.457.457,0,0,1-.457-.457V8.1a.457.457,0,0,1,.457-.457h2.9a.457.457,0,0,1,.457.457v2.9A.457.457,0,0,1,29.619,11.448Zm-2.439-.915h1.981V8.553H27.18Z" transform="translate(-15.173 -5.06)" fill="#064d7b"/>
  <path id="Path_12503" data-name="Path 12503" d="M29.619,24.532h-2.9a.457.457,0,0,1-.457-.457v-2.9a.457.457,0,0,1,.457-.457h2.9a.457.457,0,0,1,.457.457v2.9A.457.457,0,0,1,29.619,24.532Zm-2.439-.915h1.981V21.636H27.18Z" transform="translate(-15.173 -12.163)" fill="#064d7b"/>
  <path id="Path_12504" data-name="Path 12504" d="M29.619,37.615h-2.9a.457.457,0,0,1-.457-.457v-2.9a.457.457,0,0,1,.457-.457h2.9a.457.457,0,0,1,.457.457v2.9A.457.457,0,0,1,29.619,37.615ZM27.18,36.7h1.981V34.72H27.18Z" transform="translate(-15.173 -19.266)" fill="#064d7b"/>
  <path id="Path_12505" data-name="Path 12505" d="M42.754,11.448h-2.9a.457.457,0,0,1-.457-.457V8.1a.457.457,0,0,1,.457-.457h2.9a.457.457,0,0,1,.457.457v2.9a.457.457,0,0,1-.456.457Zm-2.439-.915H42.3V8.553H40.315Z" transform="translate(-22.303 -5.06)" fill="#064d7b"/>
  <path id="Path_12506" data-name="Path 12506" d="M42.754,24.532h-2.9a.457.457,0,0,1-.457-.457v-2.9a.457.457,0,0,1,.457-.457h2.9a.457.457,0,0,1,.457.457v2.9a.457.457,0,0,1-.456.457Zm-2.439-.915H42.3V21.636H40.315Z" transform="translate(-22.303 -12.163)" fill="#064d7b"/>
  <path id="Path_12507" data-name="Path 12507" d="M42.754,37.615h-2.9a.457.457,0,0,1-.457-.457v-2.9a.457.457,0,0,1,.457-.457h2.9a.457.457,0,0,1,.457.457v2.9a.457.457,0,0,1-.456.457ZM40.315,36.7H42.3V34.72H40.315Z" transform="translate(-22.303 -19.266)" fill="#064d7b"/>
</svg>
