<svg xmlns="http://www.w3.org/2000/svg" width="33.38" height="33.38" viewBox="0 0 33.38 33.38">
  <g id="phone-contact" transform="translate(0 0)">
    <path id="Path_12798" data-name="Path 12798" d="M31.823,7.886H17.329a9.454,9.454,0,0,0-9.443,9.443V31.823a9.454,9.454,0,0,0,9.443,9.443H31.823a9.454,9.454,0,0,0,9.443-9.443V17.329A9.454,9.454,0,0,0,31.823,7.886Zm8.4,23.937a8.412,8.412,0,0,1-8.4,8.4H17.329a8.412,8.412,0,0,1-8.4-8.4V17.329a8.412,8.412,0,0,1,8.4-8.4H31.823a8.412,8.412,0,0,1,8.4,8.4Z" transform="translate(-7.886 -7.886)" fill="#ffd300"/>
    <path id="Path_12799" data-name="Path 12799" d="M45.415,40.279a2.009,2.009,0,0,0-2.839,0l-1.157,1.157c-1.18,1.179-3.759-.733-4.945-1.92-2.032-2.032-3.006-4.364-2.171-5.2l1.157-1.157a2.009,2.009,0,0,0,0-2.839L32.535,27.4a2.007,2.007,0,0,0-2.839,0l-1.157,1.156c-1.761,1.762-2.194,4.267-1.252,7.245a19.865,19.865,0,0,0,4.976,7.674c3.064,3.064,7.1,5.469,10.576,5.469A5.931,5.931,0,0,0,47.182,47.2l1.156-1.157a2.008,2.008,0,0,0,0-2.839ZM30.432,28.135a.99.99,0,0,1,1.368,0l2.923,2.923a.968.968,0,0,1,0,1.368l-.788.788-4.291-4.291ZM33,42.739c-4.1-4.1-6.7-9.789-4.073-13.059L33.244,34c-.956,1.623.542,4.3,2.494,6.255,1.515,1.515,4.187,3.376,6.008,2.246l4.313,4.313c-3.271,2.632-8.96.026-13.059-4.072Zm14.6,2.568-.789.788L42.523,41.8l.788-.788a.968.968,0,0,1,1.368,0L47.6,43.94a.967.967,0,0,1,0,1.368Z" transform="translate(-21.175 -21.182)" fill="#ffd300"/>
  </g>
</svg>
