<svg id="telephone-box" xmlns="http://www.w3.org/2000/svg" width="37.787" height="63.518" viewBox="0 0 37.787 63.518">
  <rect id="Rectangle_2218" data-name="Rectangle 2218" width="31.323" height="4.31" transform="translate(3.232 58.198)" fill="#ffb352"/>
  <rect id="Rectangle_2219" data-name="Rectangle 2219" width="3.232" height="4.31" transform="translate(3.232 58.198)" fill="#bf863d"/>
  <rect id="Rectangle_2220" data-name="Rectangle 2220" width="27.013" height="51.717" transform="translate(5.387 6.481)" fill="#f90c81"/>
  <rect id="Rectangle_2221" data-name="Rectangle 2221" width="3.232" height="51.717" transform="translate(5.387 6.481)" fill="#bb1365"/>
  <path id="Path_12347" data-name="Path 12347" d="M156.223,13.98a16.028,16.028,0,0,0-25.724,0H127.75v4.31h31.323V13.98Z" transform="translate(-124.518 -6.505)" fill="#ffb352"/>
  <path id="Path_12348" data-name="Path 12348" d="M128.729,16.134h2.749a16.028,16.028,0,0,1,25.724,0h1.871V13.98h-2.85a16.028,16.028,0,0,0-25.724,0H127.75v4.31h.979V16.134Z" transform="translate(-124.518 -6.505)" fill="#ff9a2c"/>
  <rect id="Rectangle_2222" data-name="Rectangle 2222" width="6.465" height="8.619" transform="translate(9.788 42.187)" fill="#abd3cd"/>
  <rect id="Rectangle_2223" data-name="Rectangle 2223" width="6.465" height="8.619" transform="translate(15.661 42.187)" fill="#e1f3f1"/>
  <rect id="Rectangle_2224" data-name="Rectangle 2224" width="6.465" height="8.619" transform="translate(21.534 42.187)" fill="#abd3cd"/>
  <g id="Group_2791" data-name="Group 2791" transform="translate(9.561 26.039)">
    <rect id="Rectangle_2225" data-name="Rectangle 2225" width="6.465" height="8.619" transform="translate(0 8.619)" fill="#e1f3f1"/>
    <rect id="Rectangle_2226" data-name="Rectangle 2226" width="6.465" height="8.619" transform="translate(6.465)" fill="#e1f3f1"/>
  </g>
  <rect id="Rectangle_2227" data-name="Rectangle 2227" width="6.465" height="8.619" transform="translate(15.661 34.327)" fill="#abd3cd"/>
  <rect id="Rectangle_2228" data-name="Rectangle 2228" width="6.465" height="8.619" transform="translate(21.534 34.327)" fill="#e1f3f1"/>
  <g id="Group_2792" data-name="Group 2792" transform="translate(9.197 26.467)">
    <rect id="Rectangle_2229" data-name="Rectangle 2229" width="6.465" height="8.619" fill="#abd3cd"/>
    <rect id="Rectangle_2230" data-name="Rectangle 2230" width="6.465" height="8.619" transform="translate(12.929)" fill="#abd3cd"/>
  </g>
  <g id="Group_2793" data-name="Group 2793" transform="translate(9.197 18.606)">
    <rect id="Rectangle_2231" data-name="Rectangle 2231" width="6.465" height="8.619" fill="#e1f3f1"/>
    <rect id="Rectangle_2232" data-name="Rectangle 2232" width="6.465" height="8.619" transform="translate(12.929)" fill="#e1f3f1"/>
  </g>
  <rect id="Rectangle_2233" data-name="Rectangle 2233" width="6.465" height="8.619" transform="translate(15.661 18.606)" fill="#abd3cd"/>
  <circle id="Ellipse_91" data-name="Ellipse 91" cx="2.155" cy="2.155" r="2.155" transform="translate(16.739 4.242)" fill="#f90c81"/>
  <path id="Path_12349" data-name="Path 12349" d="M139.439,61.653V57.675h-1.989V11.809h1.989V5.966h-3.372a18.306,18.306,0,0,0-27.044,0h-3.27v5.842h1.989V57.675h-1.989v3.978H103.7v1.864H141.49V61.653ZM107.618,9.944V7.831h2.326l.28-.373c2.63-3.5,7.236-5.594,12.321-5.594s9.691,2.091,12.321,5.594l.28.373h2.428V9.944H107.618Zm1.989,1.864h25.979V57.675H109.607Zm-1.989,49.845V59.54h29.956v2.113Z" transform="translate(-103.703)"/>
  <path id="Path_12350" data-name="Path 12350" d="M176.344,180.78H194.6v-36.5H176.344ZM189.091,146.3h3.79v6.6h-3.79Zm0,8.619h3.79v6.6h-3.79Zm0,8.62h3.79v6.6h-3.79Zm0,8.619h3.79v6.6h-3.79ZM183.579,146.3h3.79v6.6h-3.79Zm0,8.619h3.79v6.6h-3.79Zm0,8.62h3.79v6.6h-3.79Zm0,8.619h3.79v6.6h-3.79ZM178.067,146.3h3.79v6.6h-3.79Zm0,8.619h3.79v6.6h-3.79Zm0,8.62h3.79v6.6h-3.79Zm0,8.619h3.79v6.6h-3.79Z" transform="translate(-166.58 -128.07)"/>
  <g id="Group_2794" data-name="Group 2794" transform="translate(8.119 52.878)">
    <rect id="Rectangle_2234" data-name="Rectangle 2234" width="7.542" height="2.02" fill="#fff"/>
    <rect id="Rectangle_2235" data-name="Rectangle 2235" width="7.542" height="2.02" transform="translate(14.007)" fill="#fff"/>
  </g>
  <rect id="Rectangle_2236" data-name="Rectangle 2236" width="2.155" height="2.02" transform="translate(17.816 52.878)"/>
  <g id="Group_2795" data-name="Group 2795" transform="translate(8.119 13.886)">
    <rect id="Rectangle_2237" data-name="Rectangle 2237" width="2.155" height="2.02" fill="#fff"/>
    <rect id="Rectangle_2238" data-name="Rectangle 2238" width="2.155" height="2.02" transform="translate(19.394)" fill="#fff"/>
  </g>
  <rect id="Rectangle_2239" data-name="Rectangle 2239" width="12.929" height="2.02" transform="translate(12.429 13.886)"/>
  <path id="Path_12351" data-name="Path 12351" d="M235.619,30.377a3.165,3.165,0,1,1,3.165-3.165A3.169,3.169,0,0,1,235.619,30.377Zm0-4.31a1.145,1.145,0,1,0,1.145,1.145A1.146,1.146,0,0,0,235.619,26.067Z" transform="translate(-216.725 -20.815)"/>
  <g id="Group_2796" data-name="Group 2796" transform="translate(10.274 6.465)">
    <rect id="Rectangle_2240" data-name="Rectangle 2240" width="3.232" height="2.02" transform="translate(14.007)" fill="#fff"/>
    <rect id="Rectangle_2241" data-name="Rectangle 2241" width="3.232" height="2.02" fill="#fff"/>
  </g>
</svg>
