<svg xmlns="http://www.w3.org/2000/svg" xmlns:xlink="http://www.w3.org/1999/xlink" width="98.565" height="79.151" viewBox="0 0 98.565 79.151">
  <defs>
    <linearGradient id="linear-gradient" x1="0.468" y1="0.119" x2="0.643" y2="1.253" gradientUnits="objectBoundingBox">
      <stop offset="0" stop-color="#ffd300"/>
      <stop offset="1" stop-color="#fff"/>
    </linearGradient>
  </defs>
  <g id="Group_3802" data-name="Group 3802" transform="translate(7638 8137)">
    <path id="Path_13626" data-name="Path 13626" d="M90.764,57.285C78.171,47.6,65.956,55.493,52.331,52.7c-13.723-2.81-19.19-12.167-34.821-7.848C3.665,48.682-4.736,64.02,2.875,76.862c2.169,3.659,5.864,6.42,7.374,10.515,2.436,6.605-1.272,11.676-.549,18.168,3.005,26.971,44.2,16.524,59.352,8.133C92.822,100.517,108.9,71.229,90.764,57.285Z" transform="translate(-7638 -8180.734)" fill="url(#linear-gradient)"/>
    <g id="forklift-svgrepo-com" transform="translate(-7634 -8195.281)">
      <path id="Path_13646" data-name="Path 13646" d="M345.16,235.684a2.7,2.7,0,0,0-2.695-2.695h-8.983a2.693,2.693,0,0,0-.9,5.233v1.953h10.78v-1.953A2.694,2.694,0,0,0,345.16,235.684Z" transform="translate(-279.134 -143.208)" fill="#5170fc"/>
      <rect id="Rectangle_2431" data-name="Rectangle 2431" width="10.78" height="8.983" transform="translate(53.45 95.171)" fill="#5170fc"/>
      <path id="Path_13647" data-name="Path 13647" d="M399.82,166.65a2.7,2.7,0,0,1,2.695-2.695h0a2.7,2.7,0,0,1,2.695,2.695v5.39a2.7,2.7,0,0,1-2.695,2.695h0a2.7,2.7,0,0,1-2.695-2.695Z" transform="translate(-337.387 -84.953)" fill="#5170fc"/>
      <path id="Path_13648" data-name="Path 13648" d="M209.615,71.91h30.543V77.3H204.225A5.39,5.39,0,0,1,209.615,71.91Z" transform="translate(-172.335 -7.282)" fill="#f8e99b"/>
      <rect id="Rectangle_2432" data-name="Rectangle 2432" width="28.746" height="5.39" transform="translate(39.077 64.628)" fill="#f6e27d"/>
      <rect id="Rectangle_2433" data-name="Rectangle 2433" width="5.39" height="21.56" transform="translate(13.924 96.968)" fill="#ededed"/>
      <rect id="Rectangle_2434" data-name="Rectangle 2434" width="7.186" height="46.713" transform="translate(17.517 71.815)" fill="#5170fc"/>
      <path id="Path_13649" data-name="Path 13649" d="M399.095,330.061h-10.78v-10.78l10.78.9Z" transform="translate(-327.678 -216.025)" fill="#58575d"/>
      <path id="Path_13654" data-name="Path 13654" d="M0,0H16.17V25.153H0Z" transform="translate(30.094 91.578)" fill="#6583fe" opacity="0.798"/>
      <rect id="Rectangle_2436" data-name="Rectangle 2436" width="7.186" height="25.153" transform="translate(39.077 91.578)" fill="#6583fe"/>
      <circle id="Ellipse_171" data-name="Ellipse 171" cx="8.085" cy="8.085" r="8.085" transform="translate(62.433 105.951)" fill="#797781"/>
      <path id="Path_13650" data-name="Path 13650" d="M439.46,378.425a2.246,2.246,0,1,1,2.246-2.246A2.248,2.248,0,0,1,439.46,378.425Z" transform="translate(-368.942 -262.143)" fill="#dbdbdb"/>
      <circle id="Ellipse_172" data-name="Ellipse 172" cx="8.085" cy="8.085" r="8.085" transform="translate(22.907 105.951)" fill="#88888f"/>
      <path id="Path_13651" data-name="Path 13651" d="M186.336,378.425a2.246,2.246,0,1,1,2.246-2.246A2.248,2.248,0,0,1,186.336,378.425Z" transform="translate(-155.344 -262.143)" fill="#ededed"/>
      <path id="Path_13652" data-name="Path 13652" d="M282.586,287.994H273.6v10.78H250.247V286.2l32.339-7.187Z" transform="translate(-211.17 -182.043)" fill="#6583fe"/>
      <path id="Path_13653" data-name="Path 13653" d="M78.6,120.774H77.11a9.424,9.424,0,0,0-4.346-15.9V96.968c0-8.2-.936-15.2-2.707-20.247a18.176,18.176,0,0,0-2.77-5.355h.537a1.347,1.347,0,0,0,1.347-1.347v-5.39a1.347,1.347,0,0,0-1.347-1.347H37.28a6.745,6.745,0,0,0-6.737,6.737,1.347,1.347,0,0,0,1.347,1.347h1.047a16.591,16.591,0,0,0-2.013,4.156,51.018,51.018,0,0,0-2.178,16.056h0v13.3a9.368,9.368,0,0,0-2.695,1.13V71.815A1.347,1.347,0,0,0,24.7,70.468H17.517a1.347,1.347,0,0,0-1.347,1.347V95.621H13.924a1.347,1.347,0,0,0-1.347,1.347V117.18H1.347a1.347,1.347,0,1,0,0,2.695h22.1a1.39,1.39,0,0,0,.141-.007,9.512,9.512,0,0,0,.813.906H22.907a1.347,1.347,0,1,0,0,2.695H78.6a1.347,1.347,0,0,0,0-2.695Zm-1.347-6.737a6.737,6.737,0,1,1-6.737-6.737A6.745,6.745,0,0,1,77.256,114.036Zm-36.831-8.8,29.645-6.588V104.6H62.433a1.347,1.347,0,0,0-1.347,1.347v9.432H40.424Zm-8.983-12.31H44.916v8.551l-6.131,1.363a1.347,1.347,0,0,0-1.055,1.315v3.289a9.4,9.4,0,0,0-6.288-2.829Zm35.035-5.839a1.347,1.347,0,1,1-2.695,0V81.7a1.347,1.347,0,0,1,2.695,0Zm-3.144,4.043a1.347,1.347,0,0,1,0,2.695H54.348a1.347,1.347,0,1,1,0-2.695h8.983ZM54.8,96.519h8.085v.965l-8.085,1.8Zm15.265-.63-4.485,1V95.836a4.037,4.037,0,0,0,1.379-5.146,4.046,4.046,0,0,0,2.214-3.6V84.425A77.7,77.7,0,0,1,70.063,95.888ZM37.28,65.976h29.2v2.695H33.469A4.05,4.05,0,0,1,37.28,65.976Zm25.153,5.39c1.834,0,3.686,2.277,5.081,6.248.128.364.251.741.369,1.128a4.039,4.039,0,0,0-6.8,2.954v5.39a4.023,4.023,0,0,0,.232,1.347H54.348a4.041,4.041,0,0,0-2.246,7.4V99.88l-4.492,1v-9.3a1.347,1.347,0,0,0-1.347-1.347H44.127l5.73-5.73L52.5,87.141A1.347,1.347,0,0,0,54.4,85.236l-7.186-7.186a1.347,1.347,0,0,0-1.906,1.906L47.951,82.6l-7.636,7.636H31.454c.222-12.318,3.464-18.865,5.827-18.865H62.433ZM15.271,98.315h.9V117.18h-.9Zm3.593,18.865V73.163h4.492v35.345A9.406,9.406,0,0,0,22.1,117.18Zm5.39-3.144a6.737,6.737,0,1,1,6.737,6.737A6.745,6.745,0,0,1,24.255,114.036Zm13.33,6.737a9.479,9.479,0,0,0,1.928-2.695H62a9.476,9.476,0,0,0,1.928,2.695Z" fill="#2626bc"/>
    </g>
  </g>
</svg>
