<svg xmlns="http://www.w3.org/2000/svg" xmlns:xlink="http://www.w3.org/1999/xlink" width="67.777" height="54.427" viewBox="0 0 67.777 54.427">
  <defs>
    <linearGradient id="linear-gradient" x1="0.468" y1="0.119" x2="0.643" y2="1.253" gradientUnits="objectBoundingBox">
      <stop offset="0" stop-color="#ffd300"/>
      <stop offset="1" stop-color="#fff"/>
    </linearGradient>
  </defs>
  <g id="Group_3804" data-name="Group 3804" transform="translate(10369 7496)">
    <g id="_008-delivery-box-1" data-name="008-delivery-box-1" transform="translate(-10369 -7535.245)">
      <path id="Path_13019" data-name="Path 13019" d="M62.413,53.052c-8.66-6.658-17.059-1.232-26.428-3.15-9.437-1.932-13.2-8.366-23.944-5.4C2.52,47.136-3.257,57.684,1.977,66.514c1.491,2.516,4.032,4.415,5.071,7.23,1.675,4.542-.875,8.029-.377,12.493C8.737,104.784,37.061,97.6,47.483,91.83,63.828,82.78,74.885,62.641,62.413,53.052Z" transform="translate(0 -4.489)" fill="url(#linear-gradient)"/>
    </g>
    <g id="_005-delivery-truck" data-name="005-delivery-truck" transform="translate(-10377.635 -7528.329)">
      <g id="Group_3305" data-name="Group 3305" transform="translate(12.635 33.329)">
        <g id="Group_3303" data-name="Group 3303" transform="translate(0 0)">
          <g id="Group_3288" data-name="Group 3288" transform="translate(25.733)">
            <g id="Group_3284" data-name="Group 3284" transform="translate(0 16.721)">
              <g id="Group_3281" data-name="Group 3281">
                <g id="Group_3280" data-name="Group 3280">
                  <path id="Path_12938" data-name="Path 12938" d="M262.186,195.7H251.45a.679.679,0,0,1-.679-.679V184.288a.679.679,0,0,1,.679-.679h10.736a.679.679,0,0,1,.679.679v10.736A.679.679,0,0,1,262.186,195.7Z" transform="translate(-250.771 -183.609)" fill="#fff"/>
                  <path id="Path_12939" data-name="Path 12939" d="M0,0H8.7V8.7H0Z" transform="translate(10.397 1.697) rotate(90)" fill="#6583fe"/>
                </g>
                <path id="Path_12940" data-name="Path 12940" d="M0,0H1.7V13.217H0Z" transform="translate(10.223 0.669) rotate(45)" fill="#fff"/>
              </g>
              <g id="Group_3283" data-name="Group 3283" transform="translate(9.255)">
                <g id="Group_3282" data-name="Group 3282">
                  <path id="Path_12941" data-name="Path 12941" d="M344.649,195.7H333.913a.679.679,0,0,1-.679-.679V184.288a.679.679,0,0,1,.679-.679h10.736a.679.679,0,0,1,.679.679v10.736A.679.679,0,0,1,344.649,195.7Z" transform="translate(-333.234 -183.609)" fill="#fff"/>
                  <path id="Path_12942" data-name="Path 12942" d="M0,0H8.7V8.7H0Z" transform="translate(10.397 1.697) rotate(90)" fill="#6583fe"/>
                </g>
                <path id="Path_12943" data-name="Path 12943" d="M0,0H1.7V13.217H0Z" transform="translate(10.222 0.668) rotate(45)" fill="#fff"/>
              </g>
            </g>
            <g id="Group_3287" data-name="Group 3287" transform="matrix(0.966, -0.259, 0.259, 0.966, 7.091, 4.027)">
              <g id="Group_3285" data-name="Group 3285" transform="translate(0.561 0.561)">
                <path id="Path_12944" data-name="Path 12944" d="M10.905,14.414.509,11.732a.679.679,0,0,1-.488-.827L2.7.509A.679.679,0,0,1,3.53.022L13.926,2.7a.679.679,0,0,1,.488.827l-2.682,10.4A.679.679,0,0,1,10.905,14.414Z" transform="translate(0 0)" fill="#fff"/>
                <path id="Path_12945" data-name="Path 12945" d="M0,0H8.7V8.7H0Z" transform="matrix(-0.25, 0.968, -0.968, -0.25, 12.509, 4.079)" fill="#6583fe"/>
              </g>
              <g id="Group_3286" data-name="Group 3286" transform="translate(0 0)">
                <path id="Path_12946" data-name="Path 12946" d="M11.636,15.557a1.236,1.236,0,0,1-.309-.039L.93,12.836a1.242,1.242,0,0,1-.891-1.51L2.721.93A1.242,1.242,0,0,1,4.232.039l10.4,2.682a1.242,1.242,0,0,1,.891,1.51l-2.682,10.4a1.242,1.242,0,0,1-1.2.93Zm-.029-1.126a.118.118,0,0,0,.143-.085l2.682-10.4a.118.118,0,0,0-.085-.143L3.951,1.126a.118.118,0,0,0-.143.085l-2.682,10.4a.118.118,0,0,0,.085.143Z" fill="#2626bc"/>
              </g>
              <path id="Path_12947" data-name="Path 12947" d="M0,0H1.7V13.217H0Z" transform="translate(13.164 3.607) rotate(59.459)" fill="#fff"/>
            </g>
          </g>
          <path id="Path_12948" data-name="Path 12948" d="M85.762,161.119V172.3H36.49l5.178-22.415a5.61,5.61,0,0,1,5.466-4.348H56.59a1.123,1.123,0,0,1,1.122,1.122V160H84.64A1.122,1.122,0,0,1,85.762,161.119Z" transform="translate(-34.807 -133.087)" fill="#fff"/>
          <path id="Path_12949" data-name="Path 12949" d="M156.476,250.045h1.283v13.911h-1.283Z" transform="translate(-141.326 -225.867)" fill="#2626bc"/>
          <path id="Path_12950" data-name="Path 12950" d="M187.72,250.045H189v13.911H187.72Z" transform="translate(-169.064 -225.867)" fill="#2626bc"/>
          <path id="Path_12951" data-name="Path 12951" d="M67.391,176.118a5.552,5.552,0,0,0-.3.915l-1.964,8.5H75.543a1.122,1.122,0,0,0,1.122-1.122V177.24a1.122,1.122,0,0,0-1.122-1.122Z" transform="translate(-60.232 -160.237)" fill="#6583fe"/>
          <path id="Path_12952" data-name="Path 12952" d="M191.969,176.115v9.42h-3.127a1.122,1.122,0,0,1-1.122-1.122v-7.175a1.122,1.122,0,0,1,1.122-1.122Z" transform="translate(-169.064 -160.235)" fill="#6583fe"/>
          <path id="Path_12953" data-name="Path 12953" d="M85.762,333.4v5.678H36.49L37.8,333.4Z" transform="translate(-34.807 -299.872)" fill="#fff"/>
          <path id="Path_12954" data-name="Path 12954" d="M445.253,295.988h1.7v-3.823h-1.7a1.912,1.912,0,1,0,0,3.823Z" transform="translate(-395.996 -263.26)" fill="#6583fe"/>
          <g id="Group_3298" data-name="Group 3298" transform="translate(0.561 36.713)">
            <g id="Group_3289" data-name="Group 3289" transform="translate(0 1.376)">
              <path id="Path_12955" data-name="Path 12955" d="M76.883,378.39H27.611a1.122,1.122,0,0,1-1.122-1.122v-2.148A1.122,1.122,0,0,1,27.611,374H76.883a1.122,1.122,0,0,1,1.122,1.122v2.148A1.122,1.122,0,0,1,76.883,378.39Z" transform="translate(-26.489 -373.997)" fill="#fff"/>
            </g>
            <g id="Group_3297" data-name="Group 3297" transform="translate(4.567)">
              <g id="Group_3295" data-name="Group 3295">
                <g id="Group_3294" data-name="Group 3294">
                  <g id="Group_3293" data-name="Group 3293">
                    <g id="Group_3292" data-name="Group 3292">
                      <g id="Group_3291" data-name="Group 3291">
                        <g id="Group_3290" data-name="Group 3290">
                          <circle id="Ellipse_126" data-name="Ellipse 126" cx="4.477" cy="4.477" r="4.477" fill="#6583fe"/>
                          <circle id="Ellipse_127" data-name="Ellipse 127" cx="2.028" cy="2.028" r="2.028" transform="translate(2.45 2.45)" fill="#fff"/>
                        </g>
                      </g>
                    </g>
                  </g>
                </g>
              </g>
              <g id="Group_3296" data-name="Group 3296" transform="translate(35.054)">
                <circle id="Ellipse_128" data-name="Ellipse 128" cx="4.477" cy="4.477" r="4.477" fill="#6583fe"/>
                <circle id="Ellipse_129" data-name="Ellipse 129" cx="2.028" cy="2.028" r="2.028" transform="translate(2.45 2.45)" fill="#fff"/>
              </g>
            </g>
          </g>
          <g id="Group_3299" data-name="Group 3299" transform="translate(48.115 34.382)">
            <path id="Path_12956" data-name="Path 12956" d="M450.89,342.356a.686.686,0,0,1-.686-.686v-.016a.686.686,0,1,1,1.371,0v.016A.686.686,0,0,1,450.89,342.356Z" transform="translate(-450.204 -340.969)" fill="#2626bc"/>
          </g>
          <g id="Group_3301" data-name="Group 3301" transform="translate(7.447 32.944)">
            <path id="Path_12959" data-name="Path 12959" d="M87.846,328.151h43.508v1.122H87.846Z" transform="translate(-87.846 -328.151)" fill="#2626bc"/>
          </g>
          <g id="Group_3302" data-name="Group 3302" transform="translate(0 11.887)">
            <path id="Path_12960" data-name="Path 12960" d="M46.113,305.138H48.56a2.367,2.367,0,1,1,0,4.735H46.113Z" transform="translate(-43.35 -286.664)" fill="#fff"/>
            <ellipse id="Ellipse_130" data-name="Ellipse 130" cx="1.763" cy="2.367" rx="1.763" ry="2.367" transform="translate(1.001 18.474)" fill="#fff"/>
            <path id="Path_12961" data-name="Path 12961" d="M72.446,166.175H69.6a5.025,5.025,0,0,0-6.909,0H34.55a5.025,5.025,0,0,0-6.909,0h-3.5l.432-1.871H26.7a2.929,2.929,0,0,0,0-5.857h-.777L28.9,145.569a5.026,5.026,0,0,1,4.92-3.913h9.455a.562.562,0,0,1,.561.561v13.339a.561.561,0,0,0,.561.561H71.323a.562.562,0,0,1,.561.561v6.853a.561.561,0,0,0,1.122,0v-6.853A1.685,1.685,0,0,0,71.323,155H69.132v-8.948a1.241,1.241,0,0,0-1.24-1.24H57.156a1.241,1.241,0,0,0-1.24,1.24V155H47.784v-8.948a.118.118,0,0,1,.118-.118h5.454a.561.561,0,0,0,0-1.122H47.9a1.241,1.241,0,0,0-1.24,1.24V155H44.956V142.218a1.685,1.685,0,0,0-1.683-1.683H33.818a6.144,6.144,0,0,0-6.013,4.782l-3.033,13.13h-.518c-1.282,0-2.324,1.314-2.324,2.929a2.979,2.979,0,0,0,1.53,2.752l-.476,2.059a1.685,1.685,0,0,0-1.494,1.672v2.148a1.685,1.685,0,0,0,1.683,1.683h3.238a5.036,5.036,0,0,0,9.368,0H61.466a5.036,5.036,0,0,0,9.368,0h1.611a1.685,1.685,0,0,0,1.683-1.683v-2.148A1.685,1.685,0,0,0,72.446,166.175ZM57.039,146.047a.118.118,0,0,1,.118-.118H67.892a.118.118,0,0,1,.118.118V155H57.039v-8.948ZM26.081,159.569h.62a1.806,1.806,0,0,1,0,3.613h-.62a3.533,3.533,0,0,0,0-3.613Zm-1.827,0c.651,0,1.2.827,1.2,1.806s-.55,1.806-1.2,1.806-1.2-.827-1.2-1.806S23.6,159.569,24.253,159.569Zm1.8,10.269a5.054,5.054,0,0,0,.054.73H23.173a.562.562,0,0,1-.561-.561v-2.148a.562.562,0,0,1,.561-.561h3.574a5.006,5.006,0,0,0-.69,2.54Zm5.038,3.916a3.916,3.916,0,1,1,3.916-3.916A3.921,3.921,0,0,1,31.1,173.754Zm30.016-3.916a5.055,5.055,0,0,0,.054.73H36.081a5.018,5.018,0,0,0-.636-3.271H61.8A5.007,5.007,0,0,0,61.112,169.838Zm5.038,3.916a3.916,3.916,0,1,1,3.916-3.916A3.921,3.921,0,0,1,66.15,173.754Zm6.857-3.747a.562.562,0,0,1-.561.561H71.135A5.018,5.018,0,0,0,70.5,167.3h1.947a.562.562,0,0,1,.561.561Z" transform="translate(-21.49 -140.534)" fill="#2626bc"/>
          </g>
          <path id="Path_12962" data-name="Path 12962" d="M116.52,271.026a.66.66,0,0,1,.66-.66h1.683a.66.66,0,1,1,0,1.32H117.18A.66.66,0,0,1,116.52,271.026Z" transform="translate(-105.855 -243.908)" fill="#2626bc"/>
          <path id="Path_12963" data-name="Path 12963" d="M381.837,322.293h-4.662a.561.561,0,0,1-.561-.561v-2.02a.561.561,0,0,1,.561-.561h4.662a.561.561,0,0,1,.561.561v2.02A.561.561,0,0,1,381.837,322.293Z" transform="translate(-336.758 -287.218)" fill="#6583fe"/>
        </g>
        <g id="Group_3304" data-name="Group 3304" transform="translate(7.803 2.245)">
          <path id="Path_12964" data-name="Path 12964" d="M462.644,119.341a1.627,1.627,0,1,1,1.151-.476A1.622,1.622,0,0,1,462.644,119.341Zm0-2.131a.5.5,0,1,0,.357.148A.5.5,0,0,0,462.644,117.21Z" transform="translate(-419.491 -109.189)" fill="#6583fe"/>
          <path id="Path_12965" data-name="Path 12965" d="M217.213,449.283a1.627,1.627,0,1,1,1.151-.476A1.622,1.622,0,0,1,217.213,449.283Zm0-2.131a.5.5,0,1,0,.357.148A.5.5,0,0,0,217.213,447.152Z" transform="translate(-201.605 -402.101)" fill="#6583fe"/>
          <path id="Path_12966" data-name="Path 12966" d="M92.64,102.781a1.627,1.627,0,1,1,1.151-.477A1.617,1.617,0,0,1,92.64,102.781Zm0-2.132A.5.5,0,1,0,93,100.8.5.5,0,0,0,92.64,100.649Z" transform="translate(-91.013 -94.487)" fill="#6583fe"/>
          <path id="Path_12967" data-name="Path 12967" d="M175.918,438.713a.559.559,0,0,1-.4-.164l-.669-.669-.669.669a.561.561,0,0,1-.794-.793l1.066-1.066a.561.561,0,0,1,.794,0l1.066,1.066a.561.561,0,0,1-.4.958Z" transform="translate(-163.998 -393.662)" fill="#6583fe"/>
          <path id="Path_12968" data-name="Path 12968" d="M296.275,56.808a.559.559,0,0,1-.4-.164l-.669-.669-.669.669a.561.561,0,1,1-.794-.793l1.066-1.066a.561.561,0,0,1,.794,0l1.066,1.066a.561.561,0,0,1-.4.958Z" transform="translate(-270.847 -54.619)" fill="#6583fe"/>
        </g>
      </g>
    </g>
  </g>
</svg>
