<svg xmlns="http://www.w3.org/2000/svg" xmlns:xlink="http://www.w3.org/1999/xlink" width="98.566" height="79.151" viewBox="0 0 98.566 79.151">
  <defs>
    <linearGradient id="linear-gradient" x1="0.468" y1="0.119" x2="0.437" y2="1.054" gradientUnits="objectBoundingBox">
      <stop offset="0" stop-color="#ffd300"/>
      <stop offset="0.685" stop-color="#f9edbd"/>
      <stop offset="0.906" stop-color="#f9efc9"/>
      <stop offset="0.995" stop-color="#f8f2dd"/>
      <stop offset="1" stop-color="#fff"/>
    </linearGradient>
  </defs>
  <g id="Group_3769" data-name="Group 3769" transform="translate(-1063.467 -2639)">
    <path id="Path_13627" data-name="Path 13627" d="M90.764,57.285C78.171,47.6,65.956,55.493,52.331,52.7c-13.723-2.81-19.19-12.167-34.821-7.848C3.665,48.682-4.736,64.02,2.875,76.862c2.169,3.659,5.864,6.42,7.374,10.515,2.436,6.605-1.272,11.676-.549,18.168,3.005,26.971,44.2,16.524,59.352,8.133C92.822,100.517,108.9,71.229,90.764,57.285Z" transform="translate(1063.467 2595.266)" fill="url(#linear-gradient)"/>
    <g id="security-camera-2" transform="translate(1079.293 2633.016)">
      <g id="Group_3500" data-name="Group 3500" transform="translate(0.967 8.382)">
        <path id="Path_13256" data-name="Path 13256" d="M0,0H43.824V6.606A4.421,4.421,0,0,1,39.4,11.027H4.421A4.421,4.421,0,0,1,0,6.606V0Z" transform="matrix(0.866, 0.5, -0.5, 0.866, 14.696, 12.422)" fill="#6583fe"/>
        <path id="Path_13257" data-name="Path 13257" d="M4.421,0H54.186V14.345H0V4.421A4.421,4.421,0,0,1,4.421,0Z" transform="matrix(0.866, 0.5, -0.5, 0.866, 21.869, 0)" fill="#6583fe"/>
        <path id="Path_13258" data-name="Path 13258" d="M90.794,76.239a4.492,4.492,0,0,1-.317.469l.034.022a7.172,7.172,0,0,0,9.8-2.625L94.1,70.518Z" transform="translate(-41.449 -36.183)" fill="#fedb41"/>
        <path id="Path_13259" data-name="Path 13259" d="M103.908,58.561a2.752,2.752,0,1,0,3.757-1.007,2.752,2.752,0,0,0-3.757,1.007Z" transform="translate(-47.293 -30.218)" fill="#6583fe"/>
        <path id="Path_13260" data-name="Path 13260" d="M37.427,48.265a.961.961,0,0,1-.482-.13l-7.926-4.576a.967.967,0,1,1,.967-1.675l7.924,4.576a.968.968,0,0,1-.485,1.805Z" transform="translate(-13.734 -23.314)" fill="#e1e4fb"/>
        <path id="Path_13261" data-name="Path 13261" d="M1.75,57.373h2.9a3.315,3.315,0,0,1,3.315,3.315V86.835A3.315,3.315,0,0,1,4.651,90.15H1.75Z" transform="translate(-1.75 -30.302)" fill="#6583fe"/>
        <path id="Path_13262" data-name="Path 13262" d="M13,67.381h6.216V87.274H13Z" transform="translate(-6.784 -34.78)" fill="#c5c9f7"/>
        <path id="Path_13263" data-name="Path 13263" d="M40.45,68.467l-2.791,4.759a4.439,4.439,0,0,1-3.813,2.184h-9.6v6.631h9.595a11.1,11.1,0,0,0,9.533-5.46l2.814-4.8Z" transform="translate(-11.817 -35.266)" fill="#e1e4fb"/>
      </g>
      <g id="Group_3501" data-name="Group 3501" transform="translate(0 9.036)">
        <path id="Path_13264" data-name="Path 13264" d="M70.246,35.168,49.2,23.012a.967.967,0,1,0-.967,1.675l20.213,11.67-6.2,10.75L55.983,43.5,54.1,42.407,32.747,30.082l-15.763-9.1,4.479-7.757A3.457,3.457,0,0,1,26.18,11.96l6.9,3.985a.967.967,0,1,0,.967-1.675l-6.9-3.985a5.394,5.394,0,0,0-7.36,1.971l-4.962,8.594-3.3,5.721a5.4,5.4,0,0,0,1.973,7.36l14.777,8.531-2.3,3.919a3.467,3.467,0,0,1-2.979,1.707H14.367V41.513a.967.967,0,0,0-.967-.967H8.15V39.3a4.287,4.287,0,0,0-4.282-4.282H.967A.966.966,0,0,0,0,35.982V68.759a.966.966,0,0,0,.967.967h2.9A4.287,4.287,0,0,0,8.15,65.444V62.372H13.4a.967.967,0,0,0,.967-.967V56.653h8.628a.967.967,0,1,0,0-1.934H14.367v-4.7h8.628a5.409,5.409,0,0,0,4.648-2.662l2.307-3.929,4.068,2.348L31.7,49.737a10.036,10.036,0,0,1-1.5,1.957.967.967,0,0,0,1.378,1.357,11.965,11.965,0,0,0,1.791-2.335l2.328-3.97,8.1,4.676a5.36,5.36,0,0,0,2.684.724,5.415,5.415,0,0,0,1.4-.186,5.354,5.354,0,0,0,2.337-1.32,8.056,8.056,0,0,0,3.381.748,8.185,8.185,0,0,0,2.12-.281,8.075,8.075,0,0,0,4.4-2.984l1.98,1.143a.966.966,0,0,0,1.321-.354L70.6,36.491a.968.968,0,0,0-.352-1.322ZM6.216,65.444a2.351,2.351,0,0,1-2.348,2.348H1.934V36.949H3.868A2.351,2.351,0,0,1,6.216,39.3Zm6.216-5.006H8.15V42.48h4.282ZM44.758,49.748l-30.3-17.491A3.457,3.457,0,0,1,13.2,27.539l2.818-4.883,27.765,16.03L52.293,43.6l-2.819,4.885,0,.006a3.412,3.412,0,0,1-.244.359v0a3.457,3.457,0,0,1-4.469.893Zm10.464-.508a6.164,6.164,0,0,1-3.833-.2l2.582-4.472,4.472,2.582a6.164,6.164,0,0,1-3.222,2.092Z" transform="translate(0 -9.565)" fill="#2626bc"/>
        <path id="Path_13265" data-name="Path 13265" d="M71.045,26.328l2.362,1.363a.967.967,0,1,0,.967-1.675l-2.362-1.363a.967.967,0,1,0-.967,1.675Z" transform="translate(-31.571 -16.258)" fill="#2626bc"/>
        <path id="Path_13266" data-name="Path 13266" d="M103.648,62.374a3.7,3.7,0,0,0,1.854.5,3.722,3.722,0,1,0-1.854-.5Zm.314-4.113a1.774,1.774,0,0,1,1.084-.829,1.786,1.786,0,1,1-1.083.832Z" transform="translate(-45.543 -30.088)" fill="#2626bc"/>
        <path id="Path_13267" data-name="Path 13267" d="M37.909,46.46l-7.924-4.576a.967.967,0,1,0-.967,1.675l7.926,4.575a.967.967,0,0,0,.965-1.674Z" transform="translate(-12.767 -23.967)" fill="#2626bc"/>
      </g>
    </g>
  </g>
</svg>
