<svg xmlns="http://www.w3.org/2000/svg" xmlns:xlink="http://www.w3.org/1999/xlink" width="61.699" height="53.474" viewBox="0 0 61.699 53.474">
  <defs>
    <linearGradient id="linear-gradient" x1="0.398" y1="0.081" x2="0.516" y2="0.64" gradientUnits="objectBoundingBox">
      <stop offset="0" stop-color="#fff" stop-opacity="0"/>
      <stop offset="1" stop-color="#ffd300"/>
    </linearGradient>
  </defs>
  <g id="_002-warehouse" data-name="002-warehouse" transform="translate(0 -27.262)">
    <path id="Path_12818" data-name="Path 12818" d="M60.478,76.443C57.784,69.588,49.485,65.477,42.456,68.2,34.432,71.3,37.092,84.065,29.8,86.645c-3.937,1.394-9.756-3.813-13.734-4.612-7.329-1.471-13.964,3.7-15.6,10.862-1.667,7.306,1.007,17.065,9.034,19.048,9.562,2.362,14.543-6.234,22.564-8.7,8.232-2.533,17.384,3.449,24.2-3.829C61.3,94.035,63.146,83.231,60.478,76.443Z" transform="translate(0 -35.257)" fill="url(#linear-gradient)"/>
    <g id="Group_3226" data-name="Group 3226" transform="translate(4.137 27.262)">
      <g id="Group_3224" data-name="Group 3224" transform="translate(5.71)">
        <path id="Path_12819" data-name="Path 12819" d="M126.88,77.612l-19.038-9.993a1.348,1.348,0,0,0-1.253,0l-4.523,2.374c.016-.185.026-.373.026-.562A6.419,6.419,0,1,0,92.5,75.013l-4.953,2.6a1.348,1.348,0,0,0-.721,1.193v32.985a1.348,1.348,0,0,0,1.348,1.348h38.076a1.348,1.348,0,0,0,1.348-1.348V78.806A1.348,1.348,0,0,0,126.88,77.612Z" transform="translate(-86.213 -59.664)" fill="#2626bc" opacity="0.1"/>
        <g id="Group_3223" data-name="Group 3223">
          <g id="Group_3219" data-name="Group 3219" transform="translate(0.603 5.747)">
            <g id="Group_3218" data-name="Group 3218">
              <path id="Path_12820" data-name="Path 12820" d="M127.489,119.278V86.293a1.348,1.348,0,0,0-.721-1.193L107.73,75.107a1.348,1.348,0,0,0-1.253,0L87.438,85.1a1.348,1.348,0,0,0-.721,1.193v32.985a1.348,1.348,0,0,0,1.348,1.348h38.076A1.348,1.348,0,0,0,127.489,119.278Z" transform="translate(-86.717 -74.952)" fill="#fff"/>
              <path id="Path_12821" data-name="Path 12821" d="M86.718,258.482v22.21a1.348,1.348,0,0,0,1.348,1.348h38.076a1.348,1.348,0,0,0,1.348-1.348v-22.21Z" transform="translate(-86.718 -236.366)" fill="#fff"/>
              <g id="Group_3191" data-name="Group 3191" transform="translate(0 21.514)">
                <path id="Path_12822" data-name="Path 12822" d="M86.718,253.482h40.17v1.205H86.718Z" transform="translate(-86.718 -253.482)" fill="#2626bc"/>
              </g>
              <path id="Path_12823" data-name="Path 12823" d="M149.533,214.1v27.72H115.76V214.1a1.348,1.348,0,0,1,1.348-1.348h31.077A1.348,1.348,0,0,1,149.533,214.1Z" transform="translate(-112.26 -196.148)" fill="#6583fe"/>
              <g id="Group_3204" data-name="Group 3204" transform="translate(7.775 35.122)">
                <g id="Group_3195" data-name="Group 3195">
                  <g id="Group_3194" data-name="Group 3194">
                    <g id="Group_3192" data-name="Group 3192">
                      <path id="Path_12824" data-name="Path 12824" d="M161.12,376.964h-9.209a.673.673,0,0,1-.673-.673v-9.209a.673.673,0,0,1,.673-.673h9.209a.673.673,0,0,1,.673.673v9.209A.673.673,0,0,1,161.12,376.964Z" transform="translate(-151.238 -366.409)" fill="#fff"/>
                      <path id="Path_12825" data-name="Path 12825" d="M186.329,369.977h-1.984a.336.336,0,0,1-.336-.337v-3.233h2.657v3.233A.337.337,0,0,1,186.329,369.977Z" transform="translate(-180.06 -366.408)" fill="#6583fe"/>
                    </g>
                    <g id="Group_3193" data-name="Group 3193" transform="translate(1.319 6.012)">
                      <path id="Path_12826" data-name="Path 12826" d="M164.283,434.42h-1.712a.387.387,0,0,1-.387-.387v-.553a.387.387,0,0,1,.387-.387h1.712a.387.387,0,0,1,.387.387v.553A.387.387,0,0,1,164.283,434.42Z" transform="translate(-162.184 -431.069)" fill="#6583fe"/>
                      <path id="Path_12827" data-name="Path 12827" d="M164.283,417.623h-1.712a.387.387,0,0,1-.387-.387v-.553a.387.387,0,0,1,.387-.387h1.712a.387.387,0,0,1,.387.387v.553A.387.387,0,0,1,164.283,417.623Z" transform="translate(-162.184 -416.296)" fill="#6583fe"/>
                    </g>
                  </g>
                </g>
                <g id="Group_3199" data-name="Group 3199" transform="translate(10.555)">
                  <g id="Group_3198" data-name="Group 3198">
                    <g id="Group_3196" data-name="Group 3196">
                      <path id="Path_12828" data-name="Path 12828" d="M248.71,376.964H239.5a.673.673,0,0,1-.673-.673v-9.209a.673.673,0,0,1,.673-.673h9.209a.673.673,0,0,1,.673.673v9.209A.673.673,0,0,1,248.71,376.964Z" transform="translate(-238.828 -366.409)" fill="#fff"/>
                      <path id="Path_12829" data-name="Path 12829" d="M273.918,369.977h-1.984a.337.337,0,0,1-.337-.337v-3.233h2.657v3.233A.336.336,0,0,1,273.918,369.977Z" transform="translate(-267.649 -366.408)" fill="#6583fe"/>
                    </g>
                    <g id="Group_3197" data-name="Group 3197" transform="translate(1.319 6.012)">
                      <path id="Path_12830" data-name="Path 12830" d="M251.873,434.42h-1.712a.387.387,0,0,1-.387-.387v-.553a.387.387,0,0,1,.387-.387h1.712a.387.387,0,0,1,.387.387v.553A.387.387,0,0,1,251.873,434.42Z" transform="translate(-249.774 -431.069)" fill="#6583fe"/>
                      <path id="Path_12831" data-name="Path 12831" d="M251.873,417.623h-1.712a.387.387,0,0,1-.387-.387v-.553a.387.387,0,0,1,.387-.387h1.712a.387.387,0,0,1,.387.387v.553A.387.387,0,0,1,251.873,417.623Z" transform="translate(-249.774 -416.296)" fill="#6583fe"/>
                    </g>
                  </g>
                </g>
                <g id="Group_3203" data-name="Group 3203" transform="translate(21.11)">
                  <g id="Group_3202" data-name="Group 3202">
                    <g id="Group_3200" data-name="Group 3200">
                      <path id="Path_12832" data-name="Path 12832" d="M334.805,366.409h-7.714a.673.673,0,0,0-.673.673v9.209a.673.673,0,0,0,.673.673h7.714Z" transform="translate(-326.418 -366.409)" fill="#fff"/>
                      <path id="Path_12833" data-name="Path 12833" d="M361.509,369.977h-1.984a.337.337,0,0,1-.337-.337v-3.233h2.657v3.233A.336.336,0,0,1,361.509,369.977Z" transform="translate(-355.24 -366.408)" fill="#6583fe"/>
                    </g>
                    <g id="Group_3201" data-name="Group 3201" transform="translate(1.319 6.012)">
                      <path id="Path_12834" data-name="Path 12834" d="M339.463,434.42h-1.712a.387.387,0,0,1-.387-.387v-.553a.387.387,0,0,1,.387-.387h1.712a.387.387,0,0,1,.387.387v.553A.387.387,0,0,1,339.463,434.42Z" transform="translate(-337.364 -431.069)" fill="#6583fe"/>
                      <path id="Path_12835" data-name="Path 12835" d="M339.463,417.623h-1.712a.387.387,0,0,1-.387-.387v-.553a.387.387,0,0,1,.387-.387h1.712a.387.387,0,0,1,.387.387v.553A.387.387,0,0,1,339.463,417.623Z" transform="translate(-337.364 -416.296)" fill="#6583fe"/>
                    </g>
                  </g>
                </g>
              </g>
              <g id="Group_3217" data-name="Group 3217" transform="translate(13.8 24.566)">
                <g id="Group_3208" data-name="Group 3208" transform="translate(0 0.001)">
                  <g id="Group_3207" data-name="Group 3207">
                    <g id="Group_3205" data-name="Group 3205">
                      <path id="Path_12836" data-name="Path 12836" d="M211.12,289.374h-9.209a.673.673,0,0,1-.673-.673v-9.209a.673.673,0,0,1,.673-.673h9.209a.673.673,0,0,1,.673.673V288.7A.673.673,0,0,1,211.12,289.374Z" transform="translate(-201.238 -278.819)" fill="#fff"/>
                      <path id="Path_12837" data-name="Path 12837" d="M236.329,282.388h-1.984a.336.336,0,0,1-.336-.336v-3.233h2.657v3.233A.337.337,0,0,1,236.329,282.388Z" transform="translate(-230.06 -278.819)" fill="#6583fe"/>
                    </g>
                    <g id="Group_3206" data-name="Group 3206" transform="translate(1.319 6.012)">
                      <path id="Path_12838" data-name="Path 12838" d="M214.283,346.829h-1.712a.387.387,0,0,1-.387-.387v-.553a.387.387,0,0,1,.387-.387h1.712a.387.387,0,0,1,.387.387v.553A.387.387,0,0,1,214.283,346.829Z" transform="translate(-212.184 -343.478)" fill="#6583fe"/>
                      <path id="Path_12839" data-name="Path 12839" d="M214.283,330.032h-1.712a.387.387,0,0,1-.387-.387v-.553a.387.387,0,0,1,.387-.387h1.712a.387.387,0,0,1,.387.387v.553A.387.387,0,0,1,214.283,330.032Z" transform="translate(-212.184 -328.705)" fill="#6583fe"/>
                    </g>
                  </g>
                </g>
                <g id="Group_3212" data-name="Group 3212" transform="translate(10.555 0.001)">
                  <g id="Group_3211" data-name="Group 3211">
                    <g id="Group_3209" data-name="Group 3209">
                      <path id="Path_12840" data-name="Path 12840" d="M298.71,289.374H289.5a.673.673,0,0,1-.673-.673v-9.209a.673.673,0,0,1,.673-.673h9.209a.673.673,0,0,1,.673.673V288.7A.673.673,0,0,1,298.71,289.374Z" transform="translate(-288.828 -278.819)" fill="#fff"/>
                      <path id="Path_12841" data-name="Path 12841" d="M323.918,282.388h-1.984a.337.337,0,0,1-.337-.336v-3.233h2.657v3.233A.336.336,0,0,1,323.918,282.388Z" transform="translate(-317.649 -278.819)" fill="#6583fe"/>
                    </g>
                    <g id="Group_3210" data-name="Group 3210" transform="translate(1.319 6.012)">
                      <path id="Path_12842" data-name="Path 12842" d="M301.873,346.829h-1.712a.387.387,0,0,1-.387-.387v-.553a.387.387,0,0,1,.387-.387h1.712a.387.387,0,0,1,.387.387v.553A.387.387,0,0,1,301.873,346.829Z" transform="translate(-299.774 -343.478)" fill="#6583fe"/>
                      <path id="Path_12843" data-name="Path 12843" d="M301.873,330.032h-1.712a.387.387,0,0,1-.387-.387v-.553a.387.387,0,0,1,.387-.387h1.712a.387.387,0,0,1,.387.387v.553A.387.387,0,0,1,301.873,330.032Z" transform="translate(-299.774 -328.705)" fill="#6583fe"/>
                    </g>
                  </g>
                </g>
                <g id="Group_3216" data-name="Group 3216" transform="translate(21.11)">
                  <g id="Group_3215" data-name="Group 3215">
                    <g id="Group_3213" data-name="Group 3213">
                      <path id="Path_12844" data-name="Path 12844" d="M378.782,278.814v10.555h-1.689a.673.673,0,0,1-.672-.672v-9.209a.673.673,0,0,1,.672-.674Z" transform="translate(-376.42 -278.814)" fill="#fff"/>
                    </g>
                    <g id="Group_3214" data-name="Group 3214" transform="translate(1.318 6.012)">
                      <path id="Path_12845" data-name="Path 12845" d="M388.4,345.5v1.327h-.657a.387.387,0,0,1-.387-.387v-.553a.387.387,0,0,1,.387-.387Z" transform="translate(-387.36 -343.48)" fill="#6583fe"/>
                      <path id="Path_12846" data-name="Path 12846" d="M388.4,328.7v1.327h-.657a.386.386,0,0,1-.387-.387v-.553a.387.387,0,0,1,.387-.387Z" transform="translate(-387.36 -328.704)" fill="#6583fe"/>
                      <path id="Path_12847" data-name="Path 12847" d="M450.505,371.876a.6.6,0,0,1-.426-.176l-.719-.719-.719.719a.6.6,0,0,1-.852-.852l1.145-1.145a.6.6,0,0,1,.852,0l1.145,1.145a.6.6,0,0,1-.426,1.029Z" transform="translate(-440.353 -364.607)" fill="#6583fe"/>
                    </g>
                  </g>
                </g>
              </g>
            </g>
            <path id="Path_12848" data-name="Path 12848" d="M225.862,168.809a1.173,1.173,0,0,1-1.173,1.173h-7.225a1.173,1.173,0,0,1,0-2.345h7.225A1.173,1.173,0,0,1,225.862,168.809Z" transform="translate(-200.678 -156.467)" fill="#2626bc"/>
          </g>
          <g id="Group_3222" data-name="Group 3222">
            <circle id="Ellipse_124" data-name="Ellipse 124" cx="6.419" cy="6.419" r="6.419" transform="translate(1.739 12.492) rotate(-76.7)" fill="#6583fe"/>
            <g id="Group_3221" data-name="Group 3221" transform="translate(0 0.693)">
              <path id="Path_12849" data-name="Path 12849" d="M144.639,68.647a2.348,2.348,0,1,0-3.13,0,2.34,2.34,0,0,0-.783,1.746.6.6,0,1,0,1.205,0,1.143,1.143,0,1,1,2.286,0,.6.6,0,1,0,1.205,0A2.34,2.34,0,0,0,144.639,68.647ZM141.931,66.9a1.143,1.143,0,1,1,1.143,1.143A1.144,1.144,0,0,1,141.931,66.9Z" transform="translate(-133.615 -60.752)" fill="#2626bc"/>
              <g id="Group_3220" data-name="Group 3220">
                <path id="Path_12850" data-name="Path 12850" d="M105.627,251.211H83.667a.746.746,0,0,1-.745-.745V224.717a.6.6,0,0,0-1.205,0v25.749a1.953,1.953,0,0,0,1.95,1.95h21.959a.6.6,0,1,0,0-1.205Z" transform="translate(-81.717 -201.085)" fill="#2626bc"/>
                <path id="Path_12851" data-name="Path 12851" d="M122.651,47.681l-19.038-9.993a1.95,1.95,0,0,0-1.813,0l-3.617,1.9a7.021,7.021,0,1,0-11.351,5.958l-4.07,2.136a1.945,1.945,0,0,0-1.044,1.727v3.711a.6.6,0,1,0,1.205,0V49.408a.743.743,0,0,1,.4-.66L88,46.293a7.015,7.015,0,0,0,10.135-5.32l4.226-2.218a.745.745,0,0,1,.693,0l19.038,9.993a.743.743,0,0,1,.4.66V82.393a.746.746,0,0,1-.745.745H109.152a.6.6,0,0,0,0,1.205h12.593a1.953,1.953,0,0,0,1.95-1.95V49.408a1.946,1.946,0,0,0-1.044-1.727ZM91.177,45.851a5.817,5.817,0,1,1,5.817-5.817A5.823,5.823,0,0,1,91.177,45.851Z" transform="translate(-81.718 -33.013)" fill="#2626bc"/>
              </g>
            </g>
          </g>
        </g>
        <path id="Path_12852" data-name="Path 12852" d="M235.428,167.639h4.958v5.439h-4.958Z" transform="translate(-216.905 -150.723)" fill="#6583fe"/>
      </g>
      <g id="Group_3225" data-name="Group 3225" transform="translate(0 8.12)">
        <path id="Path_12853" data-name="Path 12853" d="M36.08,371.92a1.746,1.746,0,1,1,1.236-.511A1.742,1.742,0,0,1,36.08,371.92Zm0-2.289a.542.542,0,1,0,.383.159A.541.541,0,0,0,36.08,369.632Z" transform="translate(-34.333 -335.435)" fill="#6583fe"/>
        <path id="Path_12854" data-name="Path 12854" d="M384.412,97a.6.6,0,0,1-.426-.176l-.719-.719-.719.719a.6.6,0,0,1-.852-.852l1.145-1.145a.6.6,0,0,1,.852,0l1.145,1.145A.6.6,0,0,1,384.412,97Z" transform="translate(-339.682 -94.648)" fill="#6583fe"/>
        <path id="Path_12855" data-name="Path 12855" d="M65.08,111.026a1.746,1.746,0,1,1,1.236-.511A1.742,1.742,0,0,1,65.08,111.026Zm0-2.289a.542.542,0,1,0,.383.159A.541.541,0,0,0,65.08,108.738Z" transform="translate(-59.839 -105.981)" fill="#6583fe"/>
        <path id="Path_12856" data-name="Path 12856" d="M39.452,155.241a.6.6,0,0,1-.426-.176l-.719-.719-.719.719a.6.6,0,1,1-.852-.852l1.145-1.145a.6.6,0,0,1,.852,0l1.145,1.145a.6.6,0,0,1-.426,1.029Z" transform="translate(-36.292 -145.872)" fill="#6583fe"/>
      </g>
    </g>
    <g id="Group_3227" data-name="Group 3227" transform="translate(13.347 49.012)">
      <path id="Path_12857" data-name="Path 12857" d="M145.738,238.027H110.76V209.7a1.953,1.953,0,0,1,1.951-1.951h31.077a1.953,1.953,0,0,1,1.95,1.951v28.322Zm-33.773-1.205h32.568V209.7a.746.746,0,0,0-.745-.746H112.711a.747.747,0,0,0-.746.746Z" transform="translate(-110.76 -207.754)" fill="#2626bc"/>
      <path id="Path_12858" data-name="Path 12858" d="M206.722,285.579h-9.209a1.277,1.277,0,0,1-1.276-1.276v-9.209a1.277,1.277,0,0,1,1.276-1.276h9.209A1.277,1.277,0,0,1,208,275.095V284.3a1.277,1.277,0,0,1-1.276,1.276Zm-9.209-10.555a.071.071,0,0,0-.071.07V284.3a.071.071,0,0,0,.071.07h9.209a.071.071,0,0,0,.07-.07v-9.209a.071.071,0,0,0-.07-.07Z" transform="translate(-185.937 -265.858)" fill="#2626bc"/>
      <path id="Path_12859" data-name="Path 12859" d="M294.313,285.579H285.1a1.277,1.277,0,0,1-1.276-1.276v-9.209a1.277,1.277,0,0,1,1.276-1.276h9.209a1.277,1.277,0,0,1,1.276,1.276V284.3a1.277,1.277,0,0,1-1.276,1.276ZM285.1,275.024a.071.071,0,0,0-.07.07V284.3a.071.071,0,0,0,.07.07h9.209a.071.071,0,0,0,.07-.07v-9.209a.071.071,0,0,0-.07-.07Z" transform="translate(-262.972 -265.858)" fill="#2626bc"/>
      <path id="Path_12860" data-name="Path 12860" d="M156.722,373.168h-9.209a1.277,1.277,0,0,1-1.276-1.276v-9.209a1.277,1.277,0,0,1,1.276-1.276h9.209A1.277,1.277,0,0,1,158,362.684v9.209A1.277,1.277,0,0,1,156.722,373.168Zm-9.209-10.555a.071.071,0,0,0-.071.07v9.209a.071.071,0,0,0,.071.071h9.209a.071.071,0,0,0,.071-.071v-9.209a.071.071,0,0,0-.071-.07Z" transform="translate(-141.962 -342.892)" fill="#2626bc"/>
      <path id="Path_12861" data-name="Path 12861" d="M244.313,373.168H235.1a1.277,1.277,0,0,1-1.276-1.276v-9.209a1.277,1.277,0,0,1,1.276-1.276h9.209a1.277,1.277,0,0,1,1.276,1.276v9.209A1.277,1.277,0,0,1,244.313,373.168ZM235.1,362.613a.071.071,0,0,0-.07.07v9.209a.071.071,0,0,0,.07.071h9.209a.071.071,0,0,0,.07-.071v-9.209a.071.071,0,0,0-.07-.07Z" transform="translate(-218.998 -342.892)" fill="#2626bc"/>
      <path id="Path_12862" data-name="Path 12862" d="M331.01,373.168h-8.317a1.277,1.277,0,0,1-1.276-1.276v-9.209a1.277,1.277,0,0,1,1.276-1.276h8.317Zm-8.317-10.555a.071.071,0,0,0-.07.07v9.209a.071.071,0,0,0,.07.071H329.8v-9.35h-7.112Z" transform="translate(-296.032 -342.892)" fill="#2626bc"/>
      <path id="Path_12863" data-name="Path 12863" d="M374.987,285.574H372.7a1.276,1.276,0,0,1-1.275-1.275V275.09a1.277,1.277,0,0,1,1.275-1.276h2.292v11.76ZM372.7,275.019a.071.071,0,0,0-.07.071V284.3a.07.07,0,0,0,.07.07h1.087v-9.35Z" transform="translate(-340.009 -265.853)" fill="#2626bc"/>
    </g>
  </g>
</svg>
